<svg id="avatar-developer" xmlns="http://www.w3.org/2000/svg" width="100" height="100" viewBox="0 0 100 100"><style>.st0{fill:#aaa}.st1{fill:#f2f2f2}.st2{fill:#ffc088;stroke:#ffc088;stroke-width:.75}.st3{opacity:.1;fill:#fff;enable-background:new}.st4{fill:#fcfbd0}.st5{fill:#603813}.st6{fill:#ffc088}.st7{fill:#ffe2b5}.st8{fill:#fff}.st9{fill:#323e4c}.st10{fill:#456}</style><circle class="st0" cx="50" cy="50" r="50"/><path class="st7" d="M78.784 74.602c-1.164-5.042-20.44-9.974-20.44-9.974v-9.479H40.53v9.479s-19.073 4.932-20.237 9.974C19.13 79.644 50.03 98.53 50.03 98.53s29.918-18.886 28.754-23.928z"/><path class="st10" d="M49.999 100.001c12.253 0 23.469-4.414 32.164-11.73-1.065-4.307-2.666-10.82-3.407-14.032-.831-3.598-10.866-7.14-16.549-8.873a24.342 24.342 0 0 0-1.132-.012L50.03 69.222l-11.883-3.505c-.495-.007-.993.006-1.492.027-5.64 1.738-15.534 5.269-16.362 8.858-.7 3.032-1.982 9.006-2.896 13.29 8.755 7.54 20.142 12.109 32.602 12.109z"/><path class="st6" d="M58.344 57.196l-5.85 2.474-11.964 3.375v-7.896h17.814z"/><path class="st7" d="M64.833 19.522H35.425c-.724 0-1.413.12-1.898.658-.486.536-.72 1.16-.647 1.88l3.008 29.617a2.52 2.52 0 0 0 1.358 1.985l8.49 4.603c.367.191.774.448 1.187.448h5.876c.356 0 .709-.243 1.035-.387l8.013-4.895c.816-.363 1.384-1.162 1.5-2.047l4.01-29.241c.022-.135.034-.097.034-.238 0-1.413-1.145-2.383-2.558-2.383z"/><path class="st7" d="M46.923 56.932c-.206 0-.41.033-.593-.063l-8.49-4.406a1.24 1.24 0 0 1-.679-.982l-3.009-29.654c-.037-.36.081-.87.325-1.139.242-.267.586-.572.948-.572h29.407c.368 0 .718.316.962.593.242.276.353.724.306 1.088l-4.02 30.237c-.06.443-.343.84-.75 1.022l-8.013 3.84c-.164.07-.34.036-.518.036h-5.876z"/><path class="st2" d="M49.775 49.571c-1.47 0-4.997.602-4.997.602 1.763 1.193 4.997 2.181 4.997 2.181s3.234-.988 4.997-2.181c0 0-3.528-.602-4.997-.602z"/><path class="st8" d="M46.083 50.47s2.94.038 7.384 0c0 0-3.027 1.392-7.384 0z"/><path class="st5" d="M39.667 31.717l7.22 1.048-.303 1.604-8.461-1.033zm20.663.207l-7.237.933.278 1.61 8.476-.902z"/><path class="st4" d="M66.288 15.362s-9.154 9.98-16.731 10.312c-7.577.333-14.431 3.66-15.68 8.65-1.245 4.99-11.835-21.873 12.417-24.617 14.696-1.664 19.994 5.655 19.994 5.655z"/><path class="st7" d="M35.12 34.867s-5.172-2.514-4.544 1.885c.628 4.398 4.177 7.018 4.917 7.07.74.053-.373-8.955-.373-8.955zm29.414 0s5.171-2.514 4.543 1.885c-.628 4.398-4.177 7.018-4.917 7.07-.74.053.374-8.955.374-8.955z"/><path class="st4" d="M63.57 14.803s0 1.247 3.207 1.603c3.206.356.045 17.335.045 17.335l-2.693 4.947c.145-7.937-4.834-16.58-4.834-16.58s3.518-7.149 4.275-7.305zM42.046 26.762s-8.984 3.85-5.454 12.031c0 0-3.69-2.727-2.888-8.822"/><path class="st6" d="M59.161 37.073s-3.44-1.481-5.252.706c0 0 3.025 2.947 5.252-.706zm-18.816 0s3.44-1.481 5.252.706c0 0-3.025 2.947-5.252-.706z"/><path class="st9" d="M62.555 34.898a.586.586 0 0 0-.343-.148c-.657-.09-1.31-.229-1.968-.266-1.52-.088-3.04-.154-4.562-.175-1.894-.03-3.787-.008-5.682-.008s-3.788-.022-5.682.008c-1.523.021-3.043.087-4.562.175-.658.037-1.31.176-1.968.266a.586.586 0 0 0-.343.148l-2.74-.888.095.713 2.56 1.593c.449.483.279 1.106.345 1.663.133 1.123.385 2.214.722 3.29.209.659.625 1.067 1.313 1.217 1.71.375 3.434.49 5.177.332.67-.062 1.209-.363 1.583-.918.597-.89 1.178-1.79 1.758-2.691.388-.598.724-1.232 1.154-1.797a.918.918 0 0 1 .588-.328.919.919 0 0 1 .588.328c.43.565.766 1.2 1.154 1.797.58.9 1.161 1.8 1.758 2.691.374.555.912.856 1.583.918 1.743.159 3.468.043 5.177-.332.687-.15 1.104-.558 1.313-1.216a18.05 18.05 0 0 0 .722-3.291c.066-.557-.105-1.18.346-1.663l2.56-1.593.095-.713-2.741.888zm-13.576 1.385a3.278 3.278 0 0 1-.155.643c-.655 1.754-1.495 3.406-2.722 4.84-.25.293-.541.511-.918.568-.705.105-2.059.258-3.2.164s-1.427-.246-2.12-.441c-.403-.114-.76-.38-.915-.81-.595-1.655-.767-3.352-.478-5.093.084-.51.373-.832.861-.922.692-.128 1.392-.29 2.087-.29 1.735 0 3.47.062 5.204.144.604.027 1.211.15 1.799.299.508.127.635.385.557.898zm12.072 4.963c-.155.432-.512.697-.914.81-.694.196-.98.348-2.121.442-1.141.094-2.495-.059-3.2-.164-.377-.057-.668-.275-.918-.568-1.227-1.434-2.067-3.086-2.722-4.84a3.278 3.278 0 0 1-.155-.643c-.078-.513.05-.771.557-.898.588-.149 1.195-.272 1.799-.3 1.734-.081 3.469-.144 5.204-.144.695 0 1.395.163 2.087.291.488.09.777.413.861.922.29 1.74.117 3.438-.478 5.092zM47.655 99.941c.778.037 1.558.06 2.344.06.608 0 1.211-.024 1.813-.046V68.214h-4.157V99.94z"/><circle class="st1" cx="49.853" cy="82.601" r=".642"/><circle class="st1" cx="49.853" cy="94.999" r=".641"/><path class="st9" d="M38.997 61.894l-5.017 4.55 11.808 10.9 3.797-8.692zm20.995 0l5.017 4.55-10.758 10.9-4.666-8.692zm-1.429 21.758h8.551s1.666 8.173-4.275 8.173c0 0-5.77.14-4.276-8.173zm-26.079 0h8.55s1.667 8.173-4.274 8.173c0 0-5.77.14-4.276-8.173z"/><path class="st3" d="M50.03 0v100C77.63 99.982 100 77.604 100 50S77.63.018 50.03 0z"/></svg>