<svg xmlns="http://www.w3.org/2000/svg" height="200" width="200" viewBox="0 0 200 200"><path d="M225 225H-25V-25h250v250z" data-colored="true" data-filltype="tone" data-stroketype="none" fill="#eee"/><g data-updown="6" data-leftright="0" data-dist="0" data-scaleX=".85" data-scaleY=".85" data-rotate="0"><path d="M100.093 108.803h-.833v-.85h.833v.85z" data-colored="true" data-filltype="tone" data-stroketype="none" fill="#fef6e1" data-updown="0" data-leftright="0" data-dist="0" data-scaleX=".98" data-scaleY="1" data-rotate="0"/><path d="M180.78 193.19c-1.866-4.034-6.965-10.012-12.63-11.664-7.004-2.043-22.812-4.512-28.673-5.885-4.7-1.101-14.163-9.6-17.48-12.452-.595-.51-1.082-1.563-1.094-2.346-.118-9.234 3.566-33.765 3.566-33.765H74.884s3.684 24.53 3.564 33.765c-.009.783-.499 1.836-1.092 2.346-3.317 2.853-12.78 11.35-17.48 12.452-5.862 1.373-21.67 3.927-28.672 5.97-5.667 1.65-10.765 7.544-12.631 11.578-3.152 6.807-3.897 19.125-3.897 29.75h170c0-10.624-.745-22.943-3.895-29.75z" data-colored="true" data-filltype="tone" data-stroketype="none" data-fromskin="true" fill="#f0c7b1"/><path d="M149.959 179.828c20.69 3.01 29.398 7.401 32.125 43.112h2.592c0-10.625-.745-22.943-3.895-29.75-1.867-4.034-6.966-10.012-12.631-11.663-7.004-2.043-22.812-4.512-28.673-5.885-4.7-1.101-15.506-10.258-18.397-13.897 2.856 3.998 10.872 13.264 17.896 15.69 3.36 1.162 6.158 1.69 10.983 2.393zm-89.582-2.392c7.024-2.426 15.04-11.693 17.896-15.691-2.89 3.638-13.697 12.796-18.396 13.897-5.862 1.373-21.67 3.926-28.673 5.969-5.666 1.65-10.765 7.545-12.631 11.579-3.15 6.806-3.896 19.125-3.896 29.75h2.593c2.71-35.483 11.453-40.106 32.125-43.113 4.823-.701 7.622-1.23 10.982-2.391z" data-colored="true" data-filltype="hl1" data-stroketype="none" data-fromskin="true" fill="#ffe4d6"/><path d="M95.975 191.355s-4.313-1.367-6.02-2.022c-8.882-3.407-37.736-5.616-37.736-5.616s30.39 1.206 37.097 2.362c-.389-4.052-2.564-17.003-2.564-17.003s4.377 14.293 5.448 17.898c.573 1.928 3.775 4.381 3.775 4.381zm9.18-1.14c-.076.062-.163.142-.257.227a1.84 1.84 0 0 0 .256-.227zm-9.18 1.14s2.46 2.544 3.695 2.576c1.624.043 4.104-2.464 5.229-3.489-1.076.814-3.536 1.183-4.514 1.221-1.13.043-4.41-.308-4.41-.308zm17.866-6.39c-1.314.21-3.728.67-3.728.67l1.943-12.657c-.549 2.61-3.802 13.78-6.902 17.237 1.624-1.374 5.235-2.033 7.076-2.299 8.7-1.261 8.697-1.26 34.903-4.199 0 0-24.71-.131-33.292 1.247z" data-colored="true" data-filltype="sd1" data-stroketype="none" data-fromskin="true" fill="#e1ac8f"/><path d="M180.78 193.19c-1.866-4.034-6.965-10.012-12.63-11.664-7.004-2.043-22.812-4.512-28.673-5.885-4.7-1.101-14.163-9.6-17.48-12.452-.595-.51-1.082-1.563-1.094-2.346-.118-9.234 3.566-33.765 3.566-33.765H74.884s3.684 24.53 3.564 33.765c-.009.783-.499 1.836-1.092 2.346-3.317 2.853-12.78 11.35-17.48 12.452-5.862 1.373-21.67 3.927-28.672 5.97-5.667 1.65-10.765 7.544-12.631 11.578-3.152 6.807-3.897 19.125-3.897 29.75h170c0-10.624-.745-22.943-3.895-29.75z" data-colored="true" data-filltype="none" data-stroketype="sd3" data-fromskin="true" fill="none" stroke="#c27b55" stroke-width="1.275"/><path d="M75.517 163.052c6.979 4.54 16.307 8.814 24.485 8.814 7.828 0 17.345-4.309 24.458-8.869a4.208 4.208 0 0 1-.239-1.264c-.126-9.877 3.345-34.021 4.076-38.983H71.703c.73 4.963 4.202 29.106 4.074 38.982a4.202 4.202 0 0 1-.26 1.32z" data-colored="false" data-filltype="gradient" data-stroketype="none" data-fromskin="true" fill="url(#a)" transform="matrix(.85 0 0 .85 14.676 23.378)"/><g data-updown="0" data-leftright="0" data-dist="0" data-scaleX="1" data-scaleY="1" data-rotate="0"><path d="M124.205 225.66H74.788v-47.756c18.913 3.994 31.348 3.687 49.418 0v47.756z" data-colored="false" data-filltype="#f3f1f3" data-stroketype="none" fill="#f3f1f3"/><path d="M106 225.431c-2.359 0-9.118.177-14.035-.196l-.008-.145c-.696-15.86.96-26.111 3.856-33.395l.04-.104-.078-.08c-.77-.768-2.062-1.644-3.43-2.57-1.369-.93-2.783-1.888-3.685-2.76.531-.622 1.186-1.235 1.996-1.87.208-.107.988-.717 5.078-4.226l.308-.263c.695-.152 1.817-.25 3.177-.25 1.855 0 4.021.189 5.535.48 1.327 1.239 2.933 4.529 3.534 6.094-.83 1.947-1.808 2.66-3.159 3.641-.658.479-1.404 1.021-2.254 1.795l-.07.064.017.094c3.422 17.264 3.423 21.296 3.423 25.196 0 1.718 0 5.618.288 8.487a12.44 12.44 0 0 1-.533.008z" data-colored="false" data-filltype="#131111" data-stroketype="none" fill="#131111"/><path d="M108.474 186.15c-.641-1.697-2.304-5.041-3.638-6.256-2.445-.479-6.786-.717-8.9-.204-.092.075-5.31 4.576-5.363 4.471-.77.602-1.52 1.278-2.142 2.031 1.752 1.765 5.656 3.873 7.225 5.44-3.103 7.803-4.53 18.352-3.868 33.473.009.094.009.196.017.29 5.743.441 14.068.28 14.918.189-.986-9.611 1.222-8.887-3.732-33.875 2.608-2.376 4.22-2.547 5.483-5.56zm-4.463 16.183a2.717 2.717 0 0 1-.043-.11c1.7 8.967 1.173 15.837 2.457 22.926-4.025-.27-10.212-.044-14.255-.044.314-6.119 1.01-26.932 4.029-33.78.144-.038.288-.07.433-.106l-.878 29.526 2.335-29.806.051-.007 1.531 27.714.355-27.824h.065l3.57 30.902-1.956-30.716c.267.053.535.12.8.198.026 0 .06.008.086.025.088.852.795 7.142 1.42 11.102zm-.749-11.738c-2.358-1.063-5.408-.872-7.76.204-1.428-1.54-3.467-2.615-6.4-4.582.468-.407 1.071-.91 1.879-1.538.068 0 2.958-2.356 3.009-2.406.782-.714 1.479-1.521 2.142-2.227 2.49-.102 6.145.017 8.347.12 1.275 1.594 2.491 3.99 3.408 5.898-1.667 2.44-3.316 3.528-4.625 4.531z" data-colored="false" data-filltype="#000000" data-stroketype="none"/><path d="M81.143 204.494c-9.804-34.06-5.376-25.144-7.99-38.522 1.724-4.091 3.365-8.874 4.286-9.858l.068-.074c1.949 20.406 7.615 11.591 20.217 23.564-7.204 4.806-13.882 17.282-16.581 24.89zm45.047-38.521c-1.23-3.147-3.465-7.758-4.432-8.782 1.21 17.577-12.875 14.069-20.698 22.27 7.49 4.856 14.597 17.561 17.146 25.037 11.152-36.987 5.143-20.748 7.984-38.525z" data-colored="false" data-filltype="#f3f1f4" data-stroketype="none" fill="#f3f1f4"/><path d="M121.607 156.8c0 4.367-.357 7.788-1.073 8.788-2.076 4.938-11.137 8.376-13.931 9.784-2.12 1.043-4.2 2.388-5.806 4.122 3.241 2.105 4.85 2.876 10.99 12.274 3.61 6.043 5.559 10.581 6.428 13.294 11.371-37.68 5.288-21.23 8.151-39.108-1.348-3.473-3.909-8.373-4.759-9.154zm3.1 16.6c-1.663 15.365-2.966 12.311-6.578 29.053-2.309-7.347-9.414-19.476-16.516-23.027 3.347-2.514 4.277-2.662 8.27-4.488 12.237-5.457 12.737-10.527 12.017-17.23 1.026 1.21 2.657 5.237 3.989 8.093-.73 2.674-1.062 6.492-1.181 7.598zm-42.712-3.91c-3.746-3.102-2.686-6.938-4.41-13.783-.767.85-2.674 5.637-4.607 10.247.473 2.377.579 6.28.646 7.514.475 10.372 1.487 10.85 7.505 31.586 2.577-7.57 9.825-20.715 17.204-25.508-5.891-5.377-13.307-7.418-16.338-10.056zm4.641 21.683c-1.887 3.116-3.84 6.358-5.414 11.288-3.776-17.229-5.1-14.42-6.57-29.036-.273-2.526-.525-5.123-1.19-7.616 1.392-3.05 3.383-8.74 4.02-9.346 1.162 6.016.057 11.443 4.82 14.446 2.227 1.696 9.438 4.522 14.891 8.806-3.307 1.963-5.087 3.12-10.557 11.458z" data-colored="false" data-filltype="#cfc8d7" data-stroketype="none" fill="#cfc8d7"/><path d="M116.947 201.729l-1.027-2.256s7.776-23.949 9.131-30.791c.775 7.1-8.104 33.047-8.104 33.047zm-35.224-.938l1.221-2.77s-7.287-22.497-8.643-29.34c-.775 7.102 7.422 32.11 7.422 32.11z" data-colored="false" data-filltype="#e1e0e1" data-stroketype="none" fill="#e1e0e1"/><path d="M120.745 189.643c6.005-17.71 2.343-19.169 5.36-25.049.113-.222 1.186.89 1.302 1.394 1.11 4.81 45.347 14.737 46.745 15.808 1.238.9 4.803 2.667 4.803 2.667 4.196 7.71 6.598 9.093 7.777 29.736.11 2.62-.052 10.03-.052 12.02l-72.725-.575c.175-6.622 1.02-18.538 6.79-36.001zm-42.138 0c-6.005-17.71-2.342-19.169-5.359-25.049-.114-.222-1.187.89-1.303 1.394-1.11 4.81-45.347 14.737-46.745 15.808-1.237.9-4.802 2.667-4.802 2.667-4.197 7.71-6.598 9.093-7.778 29.736-.11 2.62.052 10.03.052 12.02l72.725-.575c-.174-6.622-1.02-18.538-6.79-36.001z" data-colored="true" data-filltype="tone" data-stroketype="none" fill="#323e4c"/><path d="M125.437 184.878c-3.869 13.93-9.155 26.449-11.48 40.766-.756-.006 1.267-19.29 6.788-36 6.005-17.71 2.343-19.169 5.36-25.05.065-.127-.527 1.68-.19 2.068-.124 6.568 1.492 11.648-.478 18.216zm-51.522 0c3.87 13.93 9.156 26.449 11.48 40.766.757-.006-1.267-19.29-6.788-36-6.005-17.71-2.342-19.169-5.359-25.05-.065-.127.526 1.68.19 2.068.124 6.568-1.493 11.648.477 18.216z" data-colored="true" data-filltype="sd1" data-stroketype="none" fill="#222e3d"/><path d="M144.247 181.505s-1.942 2.177-7.34 5.884c4.515-5.002 6.596-7.011 6.596-7.011l.744 1.127zm1.849 10.093l-1.3-1.161c-3.857 11.713-6.435 17.498-10.903 31.125 6.412-12.177 7.942-16.5 12.203-29.964zm-90.247-11.22s2.08 2.009 6.597 7.011c-5.399-3.707-7.34-5.884-7.34-5.884l.743-1.127zm9.61 41.184c-4.468-13.627-7.046-19.412-10.903-31.125l-1.3 1.161c4.261 13.464 5.791 17.787 12.203 29.964z" data-colored="true" data-filltype="sd2" data-stroketype="none" fill="#15202d"/><path d="M167.174 209.813c0-9.856 2.643-15.598 8.173-23.92.516.316.79.461 1.143.743-5.88 7.296-7.048 14.103-9.316 23.177zm-32.383 9.663c5.196-14.198 6.851-19.744 10.291-29.23-.977-.298-7.37-2.537-8.346-2.844.349.85 2.646 1.549 6.649 4.003 0 0-4.326 13.093-8.594 28.07zm6.988-39.207s-2.849 3.519-5.664 7.079c2.88-2.27 4.886-4.798 7.387-6.97-3.395-2.863-8.934-7.246-12.513-10.276 2.826 3.036 10.79 10.167 10.79 10.167zm44.66 45.948l.242.002c0-1.99.162-9.4.052-12.02-1.18-20.643-3.582-22.027-7.777-29.736 0 0-3.565-1.767-4.803-2.667-1.134-.868-32.975-8.433-44.616-13.498 13.609 9.326 39.34 12.773 46.954 18.338 3.682 2.692 8.64 25.729 9.947 39.581zM22.846 186.61c.461-.326.526-.311.993-.62 5.53 8.323 8.338 13.967 8.338 23.822-2.268-9.073-3.834-16.163-9.33-23.202zm33.12 4.796c4.003-2.454 6.3-3.153 6.65-4.003-.977.306-7.37 2.546-8.347 2.844 3.44 9.486 5.095 15.032 10.291 29.23a797.005 797.005 0 0 0-8.593-28.071zm12.395-21.304c-3.578 3.03-9.118 7.413-12.513 10.276 2.502 2.173 4.509 4.7 7.388 6.97-2.816-3.56-5.665-7.08-5.665-7.08s7.966-7.13 10.79-10.166zm-45.5 16.534c7.615-5.565 33.345-9.013 46.955-18.338-11.642 5.065-43.483 12.63-44.617 13.498-1.237.9-4.802 2.667-4.802 2.667-4.197 7.71-6.598 9.093-7.778 29.736-.11 2.62.052 10.03.052 12.02l.243-.002c1.307-13.852 6.265-36.889 9.948-39.58z" data-colored="true" data-filltype="hl1" data-stroketype="none" fill="#454f5b"/><path d="M127.085 164.796c-.041-.249-.376-.539-.627-.558-.252-.02-.367.39-.482.614-3.017 5.88.352 7.083-5.653 24.791-5.77 17.464-6.447 29.633-6.62 36.255l72.98.32c0-1.988.415-9.398.304-12.019-1.18-20.643-3.666-22.196-7.862-29.906 0 0-3.735-1.852-4.973-2.75-4.155-3.182-.501.019-18.725-5.1-14.94-4.366-15.746-5.591-21.164-7.098-1.095-.314-3.449-.7-5.908-2.424-.225-.157-1.189-1.64-1.27-2.125zm-12.98 60.296c3.169-20.03 5.171-25.27 9.6-40.183 2.994-9.438 1.34-14.797 2.767-19.159.074-.228.397-.24.485-.014 2.069 5.281 7.852 6.507 16.009 14.49-4.941 4.94-6.213 6.272-6.851 7.122.734.373 4.745 1.895 8.415 3.315-.208.652-11.403 32.317-11.535 32.742 8.5-18.34 9.599-23.979 12.087-33.158-.69-.52-6.708-2.73-7.726-3.094 3.633-3.76 4.683-4.587 6.4-6.775 1.379 0-13.493-11.32-14.22-12.08.393.31 2.34 1.183 2.558 1.268 12.48 4.39 2.606 2.404 29.92 10.2 2.612.664 6.252 1.332 8.95 1.598.186.017 4.587 2.318 7.098 3.374-6.11 6.354-10.027 14.563-10.888 25.075 2.736-10.766 4.208-16.396 11.169-24.496 6.477 13.109 5.742 11.216 7.845 40.553-17.52-.69-44.387-.849-72.084-.778zm-43.107-58.17c-2.46 1.724-4.813 2.109-5.907 2.423-5.418 1.507-6.225 2.733-21.165 7.098-18.224 5.12-14.57 1.92-18.725 5.1-1.238.9-4.973 2.75-4.973 2.75-4.196 7.71-6.681 9.263-7.862 29.907-.11 2.62.305 10.03.305 12.02l72.979-.32c-.173-6.623-.85-18.792-6.62-36.256-6.005-17.709-2.637-18.911-5.653-24.792-.115-.224-.23-.633-.482-.613-.25.02-.585.31-.627.558-.082.484-1.046 1.967-1.27 2.125zM13.164 225.87c2.105-29.337 1.369-27.444 7.846-40.553 6.96 8.1 8.432 13.73 11.169 24.496-.861-10.512-4.777-18.721-10.889-25.075 2.512-1.056 6.912-3.357 7.098-3.374 2.698-.266 6.339-.934 8.95-1.598 27.315-7.796 17.441-5.81 29.92-10.2.22-.086 2.166-.958 2.559-1.268-.728.76-15.6 12.08-14.22 12.08 1.717 2.188 2.767 3.015 6.4 6.775-1.019.364-7.037 2.573-7.727 3.094 2.489 9.18 3.587 14.817 12.087 33.158-.132-.425-11.326-32.09-11.534-32.742 3.67-1.42 7.68-2.943 8.415-3.315-.639-.85-1.91-2.181-6.851-7.123 8.156-7.982 13.94-9.208 16.008-14.49.089-.226.411-.213.486.015 1.426 4.362-.229 9.72 2.766 19.159 4.43 14.912 6.432 20.153 9.601 40.183-27.697-.07-54.564.087-72.084.778z" data-colored="true" data-filltype="sd3" data-stroketype="none" fill="#0b141e"/></g><g data-updown="0" data-leftright="0" data-dist="0" data-scaleX="1" data-scaleY="1" data-rotate="0"><g data-updown="0" data-leftright="1.5" data-dist="0" data-scaleX="1" data-scaleY="1" data-rotate="0"><path d="M55.902 94.125c-1.17-2.085-4.792-7.208-8.483-5.953-2.337.795-2.799 3.394-3.175 5.69-.5 3.052.4 9.09 1.181 11.27.749 2.097 3.003 6.146 4.474 7.689 1.81 1.89 4.06 7.925 4.415 8.551.561.988 1.306 2.475 3.504 2.289 2.425-.208 3.896-1.573 4.978-1.803 2.67-.566-3.85-22.306-6.894-27.733z" data-colored="true" data-filltype="tone" data-stroketype="sd3" fill="#f0c7b1" stroke="#c27b55" stroke-width="1.275"/><path d="M53.519 106.767c-.112-.494.006-1.326.12-2.129.106-.731.204-1.423.144-1.913-.227-1.83-1.507-5.312-2.343-7.197-.963-2.17-2.519-4.904-4.473-5.609-.808-.292-1.339.057-1.647.411-.226.26-.277.566-.203.601.073.036.243-.216.487-.454.2-.195.492-.363.893-.328-.162.912-.992 5.85-.633 9.219.284 2.647 1.355 4.625 1.522 4.922.025.312.065.617.126.914.79 3.865 4.225 8.26 5.421 9.697.22.266.451.423.508.36.056-.065-.08-.33-.3-.595-1.18-1.427-4.582-5.806-5.345-9.535-.81-3.958 1.97-9.823 2.59-11.065.316.582.584 1.143.791 1.61.161.366.342.795.526 1.256-.365.648-2.919 5.372-1.987 9.152.345 1.395 1.9 3.192 2.93 3.683.567.272.78.678 1.027 1.147.286.544.61 1.16 1.554 1.608.191.092.365.129.519.129a.9.9 0 0 0 .616-.25c.015.238.014.544.008.825-.01.366.035.666.116.672.08.007.167-.282.176-.646.014-.447.011-1-.061-1.264-.211-.78-.857-1.66-1.541-2.591-.67-.92-1.366-1.866-1.541-2.63zm-6.16-3.427c-1.85-6.068.557-11.305.972-12.138.723.7 1.36 1.632 1.879 2.546-.378.73-2.774 5.51-2.851 9.592zm7.982 8.876c-.853-.404-1.138-.948-1.416-1.473-.249-.475-.508-.965-1.164-1.28a3.056 3.056 0 0 1-.46-.29c-2.113-5.324.23-7.652.818-8.128.18.65.314 1.247.373 1.726.054.44-.044 1.138-.142 1.814-.12.837-.243 1.703-.116 2.264.192.835.909 1.812 1.601 2.756.615.838 1.246 1.703 1.463 2.407-.092.14-.382.477-.957.204z" data-colored="true" data-filltype="sd3" data-stroketype="none" fill="#c27b55"/></g><g data-updown="0" data-leftright="-1.5" data-dist="0" data-scaleX="1" data-scaleY="1" data-rotate="0"><path d="M143.227 94.125c1.17-2.085 4.793-7.208 8.483-5.953 2.337.795 2.799 3.394 3.175 5.69.5 3.052-.4 9.09-1.18 11.27-.75 2.097-3.003 6.146-4.476 7.689-1.81 1.89-4.06 7.925-4.414 8.551-.56.988-1.305 2.475-3.503 2.289-2.426-.208-3.897-1.573-4.979-1.803-2.67-.566 3.85-22.306 6.894-27.733z" data-colored="true" data-filltype="tone" data-stroketype="sd3" fill="#f0c7b1" stroke="#c27b55" stroke-width="1.275"/><path d="M144.07 109.395c-.685.932-1.33 1.811-1.542 2.59-.073.265-.075.819-.061 1.266.01.363.096.652.176.646s.126-.306.116-.673a10.04 10.04 0 0 1 .009-.824.9.9 0 0 0 .616.249c.155 0 .327-.037.518-.129.942-.447 1.268-1.064 1.553-1.608.246-.469.462-.874 1.028-1.146 1.031-.492 2.585-2.289 2.93-3.683.932-3.78-1.622-8.505-1.987-9.152.184-.463.365-.892.526-1.258.207-.466.475-1.026.79-1.609.62 1.241 3.4 7.107 2.592 11.065-.762 3.729-4.165 8.108-5.346 9.535-.219.266-.355.53-.299.595.056.063.288-.092.509-.36 1.195-1.438 4.631-5.832 5.422-9.697.06-.298.1-.602.124-.914.167-.296 1.24-2.274 1.522-4.922.359-3.367-.472-8.306-.632-9.218a1.1 1.1 0 0 1 .893.327c.244.239.413.49.486.455.073-.036.023-.342-.202-.601-.309-.355-.84-.703-1.647-.412-1.954.706-3.512 3.439-4.473 5.61-.836 1.885-2.117 5.365-2.344 7.196-.062.49.038 1.182.144 1.914.115.803.232 1.635.12 2.128-.174.766-.87 1.712-1.542 2.63zm4.85-15.648c.52-.913 1.157-1.847 1.88-2.545.414.833 2.821 6.07.973 12.138-.08-4.081-2.475-8.862-2.853-9.593zm-6.09 18.265c.217-.704.849-1.569 1.464-2.407.693-.944 1.409-1.921 1.602-2.756.126-.56.003-1.427-.117-2.264-.097-.676-.195-1.375-.14-1.814.057-.479.192-1.076.372-1.726.587.476 2.931 2.804.82 8.127a3.035 3.035 0 0 1-.462.292c-.655.314-.913.804-1.163 1.28-.278.524-.563 1.068-1.417 1.472-.575.273-.866-.064-.958-.204z" data-colored="true" data-filltype="sd3" data-stroketype="none" fill="#c27b55"/></g><g data-scaleX=".98"><g data-updown="0" data-leftright="0" data-dist="0" data-scaleX="1" data-scaleY="1" data-rotate="0"><path d="M99.678 24.122c-28.004.045-50.746 23.517-50.703 52.434a54.11 54.11 0 0 0 1.668 13.288c.01.045 8.571 26.716 10.786 37.443 1.983 9.602 10.795 17.39 14.76 21.635 4.557 4.88 10.253 12.1 23.489 12.036 13.235.064 18.932-7.156 23.488-12.036 3.966-4.244 12.778-12.033 14.76-21.635 2.216-10.727 10.777-37.397 10.786-37.443h.001a54.07 54.07 0 0 0 1.668-13.288c.044-28.917-22.7-52.389-50.703-52.434z" data-colored="true" data-filltype="tone" data-stroketype="none" fill="#f0c7b1"/><path d="M127.557 32.788c12.165 9.516 20.1 25.061 20.075 42.627a57.004 57.004 0 0 1-1.576 13.288h-.002c-.009.046-8.105 26.715-10.2 37.44-1.876 9.604-10.21 17.391-13.962 21.638-4.309 4.88-9.696 12.1-22.213 12.036-12.519.064-17.906-7.156-22.215-12.036-3.75-4.247-12.085-12.034-13.96-21.638-2.096-10.725-10.192-37.394-10.202-37.44a57.01 57.01 0 0 1-1.577-13.288C51.7 57.85 59.635 42.305 71.8 32.79c-13.762 9.383-22.851 25.48-22.823 43.766a54.11 54.11 0 0 0 1.667 13.288h.001c.01.045 8.57 26.716 10.786 37.443 1.982 9.602 10.795 17.39 14.76 21.635 4.557 4.88 10.252 12.1 23.489 12.036 13.235.064 18.931-7.156 23.488-12.036 3.966-4.244 12.778-12.033 14.76-21.635 2.215-10.727 10.777-37.397 10.785-37.443h.002a54.07 54.07 0 0 0 1.668-13.288c.025-18.285-9.063-34.384-22.826-43.768z" data-colored="true" data-filltype="sd05" data-stroketype="none" fill="#e8b9a0"/><path d="M100.002.867C66.384.92 39.082 28.536 39.134 62.56a62.469 62.469 0 0 0 2.002 15.634h.001c.012.054 10.289 31.434 12.948 44.055 2.38 11.298 12.959 20.462 17.72 25.456 5.47 5.742 12.307 14.237 28.197 14.162 15.889.075 22.727-8.42 28.197-14.162 4.761-4.994 15.34-14.158 17.72-25.456 2.659-12.621 12.937-44 12.947-44.055h.002a62.422 62.422 0 0 0 2.002-15.634C160.923 28.536 133.62.92 100.002.867z" data-colored="true" data-filltype="none" data-stroketype="sd3" fill="none" stroke="#c27b55" stroke-width="1.5" transform="matrix(.833 0 0 .84991 16.376 23.385)"/></g></g><path d="M99.965 144.015c-1.297 0-2.548-.164-3.315-.465a.426.426 0 0 1 .31-.792c1.415.555 4.977.575 6.549-.164a.425.425 0 0 1 .362.769c-.952.447-2.457.652-3.906.652zm12.482-7.21a.668.668 0 0 0-.525-1.227c-9.916 4.244-24.43.288-24.575.249a.668.668 0 1 0-.359 1.286c.394.11 6.538 1.785 13.63 1.785 3.926 0 8.14-.514 11.83-2.092z" data-colored="true" data-filltype="sd3" data-stroketype="none" data-fromskin="true" fill="#c27b55" data-updown="0" data-leftright="0" data-dist="0" data-scaleX="1" data-scaleY="1" data-rotate="0"/><g data-updown="0" data-leftright="0" data-dist="0" data-scaleX=".9" data-scaleY=".9" data-rotate="0"><path d="M83.071 89.125c-3.293-.784-4.969 1.059-9.809 1.166-8.057.177-9.938-.618-11.199-2.638a15.28 15.28 0 0 1-1.264-2.601l-.1-4.149c1.328-3.949 19.541-4.352 25.9 1.784.287.666.433 1.287.465 1.867-.19.958-.512 1.878-.947 2.749-.706.81-1.762 1.426-3.046 1.822z" data-colored="false" data-filltype="gradient" data-stroketype="none" fill="url(#b)" transform="matrix(.765 0 0 .765 20.927 30.527)"/><g data-scaleX="1" data-scaleY="1"><g data-updown="0" data-leftright="0" data-dist="0" data-scaleX=".95" data-scaleY=".95" data-rotate="0"><path d="M81.934 96.132a4.348 4.348 0 0 1-5.35 3.05 4.369 4.369 0 0 1-3.062-5.357 4.35 4.35 0 0 1 5.353-3.051 4.368 4.368 0 0 1 3.06 5.358z" data-colored="true" data-filltype="tone" data-stroketype="sd3" fill="#7485bf" stroke="#2d4391" stroke-width=".363"/><path d="M81.256 96.186c-.617 1.782-2.476 2.82-4.287 2.325-1.671-.459-2.727-2.063-2.59-3.758.62-.049 1.3-.063 2.004-.03-.008.025-.02.046-.026.07-.223.818.295 1.676 1.157 1.912.864.237 1.744-.237 1.967-1.055.028-.106.043-.213.047-.319.59.215 1.17.494 1.728.855z" data-colored="true" data-filltype="hl1" data-stroketype="none" fill="#92a0ce"/><path d="M78.319 93.677a1.585 1.585 0 0 0-1.99 1.12c-.227.865.299 1.771 1.172 2.022a1.587 1.587 0 0 0 1.992-1.115c.228-.87-.3-1.776-1.174-2.027zm.19 3.076c-.363.113-.739-.037-.838-.336-.097-.299.118-.63.484-.74.366-.114.74.037.841.333.099.299-.118.63-.487.743z" data-colored="false" data-filltype="#000000" data-stroketype="none" opacity=".9"/><path d="M75.41 97.274c-.269.161-.67.017-.9-.325-.23-.339-.195-.744.075-.906.267-.16.672-.015.9.324.227.34.194.746-.075.907z" data-colored="false" data-filltype="#ffffff" data-stroketype="none" fill="#fff" opacity=".6"/><path d="M81.15 94.79c-.614.368-1.538.036-2.06-.742-.524-.78-.446-1.71.17-2.076.613-.37 1.538-.039 2.059.74.522.78.447 1.708-.168 2.077z" data-colored="false" data-filltype="#ffffff" data-stroketype="none" fill="#fff" opacity=".8"/></g></g><path d="M62.03 94.862c-.293 2.527 7.538 16.833 15.354 16.833S92.3 107.647 92.3 94.863c0-13.609-7.101-16.831-14.917-16.831S63.48 82.32 62.029 94.862zm5.409.73l-.077-3.174c1.016-3.02 14.949-3.329 19.814 1.365 1.068 2.472-.313 4.19-2.7 4.925-2.52-.6-3.801.81-7.504.892-6.164.136-7.603-.472-8.567-2.018a11.65 11.65 0 0 1-.966-1.99z" data-colored="true" data-filltype="tone" data-stroketype="none" data-fromskin="true" fill="#f0c7b1"/><path d="M59.698 82.412c.023 7.534 7.646 13.604 17.038 13.566 9.389-.043 16.985-6.179 16.961-13.713-.023-7.533-7.647-13.605-17.04-13.566-9.392.044-16.984 6.179-16.959 13.713zm1.102 2.641l-.1-4.149c1.328-3.949 19.541-4.352 25.9 1.784 1.396 3.231-.409 5.477-3.529 6.438-3.293-.784-4.969 1.059-9.809 1.166-8.057.177-9.938-.618-11.199-2.638a15.229 15.229 0 0 1-1.263-2.601z" data-colored="false" data-filltype="gradient" data-stroketype="none" data-fromskin="true" fill="url(#c)" transform="matrix(.765 0 0 .765 20.927 30.527)"/><path d="M62.063 87.654a15.28 15.28 0 0 1-1.264-2.601l-.1-4.149c1.328-3.949 19.541-4.352 25.9 1.784 1.396 3.231-.409 5.477-3.529 6.438-3.293-.784-4.969 1.059-9.809 1.166-8.055.177-9.937-.619-11.198-2.638z" data-colored="false" data-filltype="gradient" data-stroketype="none" fill="url(#d)" transform="matrix(.765 0 0 .765 20.927 30.527)"/><path d="M89.367 92.64c-7.357-4.408-12.776-4.688-21.51-4.127 7.29-1.148 15.686-.315 21.51 4.127z" data-colored="true" data-filltype="sd3" data-stroketype="none" data-fromskin="true" fill="#c27b55"/><path d="M88.423 95.768c-2.479-6.36-19.847-6.398-20.985-3.198v2.98c-.781-1.178-.801-1.25-1.135-2.604l-1.679.57s2.1-2.963 4.054-3.351c16.972-3.38 19.6 4.583 19.745 5.603zm-2.668 3.165c-3.538-1.514-4.544.29-8.846.379-6.123.128-7.318-.586-8.51-1.894.622 1.6 1.052 2.36 8.32 2.315 4.112-.025 6.359-1.724 9.036-.8z" data-colored="true" data-filltype="tone" data-stroketype="none" fill="#09152e"/></g><g data-updown="0" data-leftright="0" data-dist="0" data-scaleX=".9" data-scaleY=".9" data-rotate="0"><path d="M116.529 89.125c3.293-.784 4.969 1.059 9.809 1.166 8.057.177 9.938-.618 11.199-2.638a15.28 15.28 0 0 0 1.264-2.601l.1-4.149c-1.328-3.949-19.541-4.352-25.9 1.784-.287.666-.433 1.287-.465 1.867.19.958.512 1.878.947 2.749.706.81 1.762 1.426 3.046 1.822z" data-colored="false" data-filltype="gradient" data-stroketype="none" fill="url(#e)" transform="matrix(.765 0 0 .765 25.407 30.527)"/><g data-scaleX="1" data-scaleY="1"><g data-updown="0" data-leftright="0" data-dist="0" data-scaleX=".95" data-scaleY=".95" data-rotate="0"><path d="M125.812 96.132a4.348 4.348 0 0 1-5.35 3.05 4.37 4.37 0 0 1-3.062-5.357 4.35 4.35 0 0 1 5.352-3.051 4.369 4.369 0 0 1 3.06 5.358z" data-colored="true" data-filltype="tone" data-stroketype="sd3" fill="#7485bf" stroke="#2d4391" stroke-width=".363"/><path d="M125.134 96.186c-.617 1.782-2.476 2.82-4.287 2.325-1.671-.459-2.727-2.063-2.59-3.758a16.09 16.09 0 0 1 2.004-.03c-.007.025-.02.046-.026.07-.223.818.295 1.676 1.157 1.912.864.237 1.745-.237 1.968-1.055.027-.106.043-.213.047-.319.59.215 1.17.494 1.727.855z" data-colored="true" data-filltype="hl1" data-stroketype="none" fill="#92a0ce"/><path d="M122.197 93.677a1.584 1.584 0 0 0-1.99 1.12c-.227.865.3 1.771 1.172 2.022a1.588 1.588 0 0 0 1.993-1.115c.226-.87-.3-1.776-1.175-2.027zm.19 3.076c-.363.113-.74-.037-.838-.336-.097-.299.118-.63.484-.74.366-.114.74.037.841.333.1.299-.118.63-.487.743z" data-colored="false" data-filltype="#000000" data-stroketype="none" opacity=".9"/><path d="M119.29 97.274c-.27.161-.672.017-.9-.325-.23-.339-.197-.744.074-.906.266-.16.673-.015.9.324.227.34.193.746-.075.907z" data-colored="false" data-filltype="#ffffff" data-stroketype="none" fill="#fff" opacity=".6"/><path d="M125.029 94.79c-.615.368-1.538.036-2.062-.742-.523-.78-.445-1.71.17-2.076.614-.37 1.539-.039 2.06.74.522.78.448 1.708-.168 2.077z" data-colored="false" data-filltype="#ffffff" data-stroketype="none" fill="#fff" opacity=".8"/></g></g><path d="M121.645 78.032c-7.816 0-14.917 3.222-14.917 16.83 0 12.785 7.101 16.833 14.917 16.833S136.862 97.9 137 94.862c.57-12.613-7.538-16.83-15.354-16.83zm8.978 19.55c-.965 1.546-2.404 2.154-8.567 2.018-3.703-.082-4.985-1.491-7.504-.892-2.387-.735-3.768-2.453-2.7-4.925 4.865-4.694 18.798-4.386 19.814-1.365l-.077 3.174a11.536 11.536 0 0 1-.966 1.99z" data-colored="true" data-filltype="tone" data-stroketype="none" data-fromskin="true" fill="#f0c7b1"/><path d="M122.943 68.699c-9.393-.04-17.016 6.033-17.039 13.566-.025 7.535 7.572 13.67 16.961 13.713 9.391.037 17.014-6.033 17.037-13.566.026-7.534-7.566-13.669-16.959-13.713zm14.594 18.955c-1.261 2.02-3.143 2.815-11.199 2.638-4.84-.107-6.516-1.95-9.809-1.166-3.12-.961-4.925-3.207-3.529-6.438 6.359-6.136 24.572-5.733 25.9-1.784l-.1 4.149a15.08 15.08 0 0 1-1.263 2.601z" data-colored="false" data-filltype="gradient" data-stroketype="none" data-fromskin="true" fill="url(#f)" transform="matrix(.765 0 0 .765 25.407 30.527)"/><path d="M137.537 87.654a15.28 15.28 0 0 0 1.264-2.601l.1-4.149c-1.328-3.949-19.541-4.352-25.9 1.784-1.396 3.231.409 5.477 3.529 6.438 3.293-.784 4.969 1.059 9.809 1.166 8.056.177 9.937-.619 11.198-2.638z" data-colored="false" data-filltype="gradient" data-stroketype="none" fill="url(#g)" transform="matrix(.765 0 0 .765 25.407 30.527)"/><path d="M109.661 92.64c7.357-4.408 12.777-4.688 21.51-4.127-7.29-1.148-15.686-.315-21.51 4.127z" data-colored="true" data-filltype="sd3" data-stroketype="none" data-fromskin="true" fill="#c27b55"/><path d="M130.35 90.164c1.954.389 4.054 3.351 4.054 3.351l-1.679-.57c-.334 1.355-.354 1.427-1.134 2.604v-2.98c-1.138-3.2-18.506-3.162-20.985 3.199.145-1.02 2.772-8.984 19.745-5.604zm-8.04 9.57c7.267.045 7.698-.717 8.32-2.315-1.193 1.308-2.388 2.022-8.511 1.894-4.301-.09-5.308-1.894-8.846-.379 2.677-.925 4.925.774 9.037.8z" data-colored="true" data-filltype="tone" data-stroketype="none" fill="#09152e"/></g><g data-updown="0" data-leftright="0" data-dist="0" data-scaleX="1" data-scaleY="1" data-rotate="0"><path d="M141 113.974c.035 22.622-18.292 40.994-40.938 41.025-22.642.037-41.028-18.273-41.063-40.9-.035-22.62 18.292-41.064 40.937-41.1 22.643-.035 41.031 18.35 41.064 40.975z" data-colored="false" data-filltype="gradient" data-stroketype="none" data-fromskin="true" fill="url(#h)" transform="matrix(.85 0 0 .85 14.676 23.378)"/><path d="M137.5 53.999c0 20.711-16.789 37.5-37.499 37.5-20.711 0-37.501-16.789-37.501-37.5s16.79-37.5 37.501-37.5c20.71 0 37.499 16.789 37.499 37.5z" data-colored="false" data-filltype="gradient" data-stroketype="none" data-fromskin="true" fill="url(#i)" transform="matrix(.85 0 0 .85 14.676 23.378)"/></g><path d="M60.976 85.84c5.718-7.178 15.558-5.984 23.621-4.83 2.051.294 4.163.514 6.174 1.022 1.441.363 2.574 2.006 1.416 3.332-.542.631-1.724.514-2.453.499-9.655-.195-20.569-5.747-28.758-.023zm77.45-.29c-1.655-1.108-3.407-1.89-5.387-2.21-7.266-1.179-21.104 3.664-24.741 2.638-2.228-.628-1.777-2.86-.792-3.41.593-.331.757-.323 6.05-1.233 8.994-1.545 19.065-2.774 24.87 4.214z" data-colored="true" data-filltype="#000000" data-stroketype="none" fill="#fef6e1" data-updown="0" data-leftright="0" data-dist="0" data-scaleX=".9" data-scaleY=".9" data-rotate="0"/><g data-updown="0" data-leftright="0" data-dist="0" data-scaleX="1" data-scaleY="1" data-rotate="0"><path d="M98.898 99.878s-.754 17.385-.65 21.204c.03 1.083 2.115 3.924 1.973 5.996 0 0-4.07-.297-5.393-.764-1.385-.491-3.529-1.448-2.681-4.122 1.207-3.804 6.75-22.314 6.75-22.314z" data-colored="true" data-filltype="sd1" data-stroketype="none" data-fromskin="true" fill="#e1ac8f"/><path d="M98.519 125.037s-1.688-.6-2.754-.569c-.97.03-1.11-.617-1.012-.984.099-.368.431-.596 1.369-.346.937.25 2.397 1.899 2.397 1.899zm2.511.001s1.683-.555 2.753-.567c.971-.011 1.112-.617 1.013-.983-.099-.37-.432-.6-1.369-.35-.937.253-2.397 1.9-2.397 1.9z" data-colored="true" data-filltype="sd3" data-stroketype="none" data-fromskin="true" fill="#c27b55"/></g><g data-updown="0" data-leftright="0" data-dist="0" data-scaleX=".98" data-scaleY="1" data-rotate="0"><path d="M143.808 107.186c-3.801-10.568.597-26.777-6.835-38.768-3.385-5.748-6.328-9.697-5.79-16.383l-.306-.106c-.718 1.15-1.66 2.397-2.286 3.196.355-.927.935-2.348 1.46-3.42l-.277-.185c-2.153 2.612-4.002 3.952-6.546 4.675 2.749-1.972 5.788-5.403 7.119-7.305l-.226-.241c-9.429 6.19-20.129 6.274-29.568 6.35-8.52.064-13.81-.132-19.953-3.775-4.432 1.5-7.923 1.308-11.759-1.39-12.007 23.753-6.672 11.862-13.85 55.894-4.168-5.669-5.38-9.274-6.366-14.675-.26-1.723-.515-4.38-.357-6.133l-.053-.055c-3.708-8.304-5.458-13.032-4.577-29.502.654-6.833 2.11-11.963 6.31-17.337a27.256 27.256 0 0 1-.232-8.677c-2.199-4.103-3.712-8.325-4.302-9.834 3.072 2.4 3.326 2.538 5.89 3.363.586-1.646 1.44-3.281 1.988-4.134.247 1.902.444 3.187 1.002 5.035.19.047 1.094.297 1.383.376-.166-1.125-.318-1.647-.294-2.656.475 1.107.877 1.363 2.257 3.082 1.528.327 1.161.278 1.62.278-2.224-3.555-3.724-6.701-4.105-11.486 3.043 1.769 7.3 2.78 11.746 2.78 10.445 0 21.133-8 35.96-8 12.849 0 23.966 7.273 28.89 15.556-.004-2.137-.093-3.905.662-6.101 0 0 .088 3.149.088 5.603l.33.031c.516-2.805 1.606-5.197 3.405-7.456-1.598 4.384-.99 2.043-2.777 7.396l.29.159c1.192-1.563 2.168-2.668 5.013-4.133-2.055 2.102-3.627 3.307-4.6 4.793l.251.22c1.213-1.122 2.475-1.547 3.759-.52-2.067-.767-3.287.576-4.705 2.273 5.514.927 8.505 4.173 12.382 8.512 8.923 10.498 11.273 20.747 6.433 35.276 2.028 4.473 1.716 14.555-2.811 22.681-.002 4.768-3.2 10.651-5.663 14.743z" data-colored="true" data-filltype="tone" data-stroketype="none" fill="#fef6e1"/><path d="M68.268 49.194c.3.284.598.568.895.854-.108-.073-.215-.14-.323-.215-12.007 23.752-6.673 11.862-13.85 55.893-4.169-5.669-5.38-9.274-6.366-14.675-.261-1.723-.516-4.38-.358-6.132l-.052-.056c-3.709-8.303-5.459-13.031-4.578-29.502.654-6.833 2.11-11.963 6.31-17.336a27.259 27.259 0 0 1-.245-8.537 51.968 51.968 0 0 0 1.552 2.18c.36 2.23.663 4.405.106 6.162-7.946 25.054-3.332 36.546 1.666 54.395-2.052-13.54-5.95-30.755 4.68-40.796-4.54 11.13-3.286 16.177-2.18 23.797.763-10.129 4.327-19.551 12.743-26.032zm77.58-14.713a285.8 285.8 0 0 0-.921-1.025c-.319.216-.645.415-.966.626 12.459 26.06.495 23.557 3.346 35.194 3.332 8.5-.986 13.6-.986 22.099 0-12.75-.567-21.621-7.464-31.596-2.329-3.368-2.983-14.808-4.552-20.46-19.327 12.11-47.958 14.643-78.018-9.833 14.161 5.1 43.024 1.148 52.931-5.368-11.293 2.092-34.87 2.217-45.473-2.236 25.406-2.014 25.1-10.335 46.757-11.899-10.412-3.966-33.157 6.166-43.6 6.166-4.446 0-8.703-1.01-11.747-2.78.38 4.786 1.881 7.933 4.104 11.487-.459 0-.091.049-1.619-.279-1.381-1.718-1.783-1.976-2.257-3.081-.025 1.008.128 1.53.294 2.656-.29-.08-1.194-.33-1.383-.376-.558-1.849-.755-3.134-1.002-5.036-.547.853-1.402 2.489-1.989 4.135-2.564-.825-2.817-.964-5.889-3.363.59 1.508 2.103 5.732 4.302 9.833-.005.047-.007.095-.013.141 5.252 7.85 12.636 14 19.462 20.562 3.71 2.485 7.128 2.63 11.436 1.174 6.142 3.643 11.434 3.84 19.953 3.775 9.44-.075 20.139-.16 29.568-6.35l.225.241c-1.33 1.902-4.37 5.333-7.118 7.305 2.544-.724 4.393-2.063 6.546-4.674l.277.185c-.525 1.073-1.105 2.492-1.46 3.42.625-.8 1.568-2.047 2.286-3.196l.307.105c-.538 6.687 2.404 10.636 5.789 16.383 7.432 11.991 3.035 28.2 6.835 38.769 2.464-4.093 5.66-9.975 5.66-14.748 4.528-8.126 4.84-18.208 2.812-22.68 4.84-14.528 2.49-24.777-6.433-35.276zm.61 21.8c-.274-8.095-5.525-18.369-5.525-18.369-2.454-4.422-4.647-6.533-8.326-7.39 10.35.527 14.415 16.301 13.968 24.542a12.673 12.673 0 0 1-.116 1.217zM122.92 22.1c2.734 2.263 3.387 2.909 6.077 6.722-13.872-25.403-41.094-6.18-49.702-6.8 8.75 1.845 28.536-11.212 43.625.078zm7.048 11.042c-16.627 14.064-42.016 8.106-62.782 1.466 20.681 9.664 47.01 14.894 62.782-1.466zM64.578 48.44c-5.447 2.911-8.01 10.242-8.247 15.086 1.017-4.18 4.07-11.851 8.247-15.086zm-6.872-4.037c-7.796 4.844-9.308 15.954-8.538 25.285.82-8.62 2.342-19.867 8.538-25.285zm56.181-10.535c-.838.183-6.046.912-8.89 1.016-2.216.132-10.86.279-18.651-.04 8.043 1.758 12.873 2.085 18.74 1.737 6.751-.249 12.794-1.613 17.801-5.776-3.528 1.981-5.031 2.264-9 3.063zM141.83 56.43s-.213-.374-.49-.936c-.758-1.298-1.62-4.829-4.946-15.924 2.47 20.563 6.512 16.813 8.323 27.438 0-3.822-.261-5.78-2.887-10.578z" data-colored="true" data-filltype="sd1" data-stroketype="none" fill="#efe1bc"/><path d="M147.865 81.287c.303-2.759.18-1.494.214-3.068.255-5.307-2.854-9.756-.962-16.138 1.545-4.634 2.437-5.36 1.76-13.429-.099-1.164-.394-4.058-.917-5.098.713 1.266 1.184 3.608 1.437 5.044 1.405 8.11.223 9.342-1.267 13.825-1.991 6.774 1.83 9.762-.265 18.864zm-13.56-41.969c.93 25.812 6.061 19.817 10.593 35.486-3.077-18.482-5.923-3.16-10.593-35.486zm-77.64 13.16c-7.656 9.828-6.883 16.913-4.998 31.447-.17-14.712-1.928-20.296 4.998-31.447zm-5.496-14.041c-4.393 13.87-5.355 20.13-3.246 35.089-.39-14.998-.297-18.308 3.246-35.09zm16.81 10.987c-8.022 5.88-12.21 16.638-12.455 25.802 1.235-8.758 5.841-19.805 12.455-25.802zm55.73-5.14c-10.038 3.771-26.378 4.781-38.308 1.124-9.297-2.767-23.813-12.063-31.622-17.909 7.079 5.75 19.551 14.285 28.26 17.658 9.05 3.45 23.23 4.732 34.22 1.908 7.704-1.975 11.697-3.841 18.046-7.746-2.826 1.58-6.99 3.816-10.596 4.965zm-21.693-30.756c10.135-1.942 22.082 4.723 28.37 12.604-6.578-9.62-17.357-14.405-23.792-14.52-10.562-.186-21.488 9.046-42.849 9.844 20.086.903 29.741-6.52 38.271-7.928zm7.96 10.903c-14.401 5.221-25.523 6.47-40.656 7.292 15.63.982 26.804-.565 40.656-7.292zm15.134 2.977c-8.882 4.273-12.77 4.973-31.102 6.112 11.493.474 22.23-.136 31.102-6.112zM95.715 40.4c8.866 1.052 24.397-.089 32.171-8.319-9.388 8.07-26.755 7.78-40.3 7.231 5.184.826 4.249.688 8.129 1.088zm38.002-7.894c6.355 2.388 7.904 13.763 10.412 22.948-1.122-8.141-3.038-21.182-10.412-22.948z" data-colored="true" data-filltype="hl1" data-stroketype="none" fill="#fffefb"/><path d="M145.97 34.367c-3.622-4.054-6.874-7.624-12.186-8.517 1.744-2.093 2.97-2.871 5.206-1.572-1.325-1.59-2.847-1.892-4.69-.187 1.059-1.619 2.889-2.94 5.248-5.465-3.524 1.687-4.584 2.839-5.931 4.607 1.903-5.697 1.083-2.659 3.099-8.287-2.107 2.41-3.454 5.032-4.048 8.261 0-5.017-.154-4.368-.058-6.561-1.155 2.625-1.024 4.938-1.024 6.45-1.86-3.129-4.593-5.779-7.54-7.946-20.87-15.544-41.682-1.237-52.961.493-4.573.788-11.424.287-16.119-2.584.332 4.9 1.818 8.153 3.99 11.627l-1.224-.263c-1.682-2.07-1.845-2.003-2.466-3.68-.16 1.498.084 2.328.208 3.178-.415-.11-.797-.228-1.05-.289-.618-2.051-.797-3.612-1.024-5.346-.511.667-1.601 2.703-2.2 4.377-2.497-.805-2.676-.934-6.188-3.68.416.85 1.923 5.491 4.531 10.395-.391 3.003-.273 6 .225 8.6-4.186 5.365-5.64 10.494-6.297 17.373-.868 16.199.722 20.917 4.606 29.594.008.009.008.026.017.034-.148 1.675.099 4.336.366 6.102.982 5.382 2.187 9.089 6.59 15.001.016.017.024.043.041.06 2.828-17.311 2.536-17.735 3.14-22.004 2.976-21.853 2.847-18.59 10.671-34.056 3.176 2.233 6.693 3.018 11.679 1.325 3.617 2.146 7.31 3.783 17.543 3.783 10.138-.13 21.804.35 32.087-6.4-1.558 2.228-5.096 6.08-7.88 7.802 2.898-.626 4.977-1.816 7.572-4.964-.798 1.628-1.735 4.092-1.808 4.386.125-.153 1.791-2.184 2.924-3.995-.544 6.753 2.41 10.707 5.814 16.489 7.46 12.037 2.925 28.49 6.94 39.062 2.573-4.246 5.863-10.272 5.863-15.086 4.34-7.723 4.962-17.943 2.824-22.735 4.346-13.285 3.468-23.668-6.49-35.382zm-90.622-13.08c.407 1.18.496 1.154 2.075 3.068a93.163 93.163 0 0 1-1.775-.391c-.182-.898-.3-1.751-.3-2.678zm-2.09-2.261c.078 1.302.382 3.01.824 4.513-2.386-.627-1.5-.429-2.332-.68.685-2.103.944-2.635 1.508-3.833zm1.432 85.178C51.178 97.74 50.256 95.543 49.284 89c-.095-.753-.393-2.929-.408-3.969-5.056-11.797-6.957-34.197 1.008-46.524v-.009s.332-.53.933-1.292c-.223-1.142-.442-3.552-.367-6.187.617 1.122 1.316 2.142 1.941 3.12 0-.003.492.663.492.68 3.79 4.92 7.292 9.012 15.76 15.085-10.167 16.806-9.536 11.13-13.953 54.301zm97.994-39.852c-.296 2.005-.935 4.746-1.282 5.941 2.316 6.008-.214 17.353-2.55 22.421-1.02 6.029-2.12 7.242-5.006 13.25-2.063-9.349 2.152-25.938-5.63-38.314-5.048-8.536-7.212-9.655-6.023-20.202 0 0 .05-.574.066-.723-10.519 6.562-22.138 7.304-37.46 6.97-4.429 0-10.412-.568-14.144-2.924-7.565 2.195-10.37-1.222-16.668-6.239-6.8-5.895-11.42-11.043-17.119-23.177 3.202 2.65 9.61 3.986 13.653 4.675-2.726-3.708-4.33-7.096-5.056-11.899 2.899 1.972 9.846 3.912 15.969 3.221 11.273-1.08 27.059-12.89 46.456-3.935 9 4.052 13.566 9.754 14.636 12.749.008 0 .016.008.033.008.05.017.1.026.158.034.014.016.276.077.3.077 5.81 1.976 6.2 2.345 11.828 9.043 3.164 3.96 10.779 11.865 7.84 29.024z" data-colored="true" data-filltype="sd3" data-stroketype="none" fill="#d0b87a"/></g></g></g><defs><radialGradient id="h" cx="100" cy="114" r="41" gradientUnits="userSpaceOnUse" class="svga-on-canvas-facehighlight-gradient-single-0"><stop stop-opacity=".5" stop-color="#ffe4d6" offset="0" data-stoptype="hl1"/><stop stop-opacity="0" stop-color="#f0c7b1" offset=".9" data-stoptype="tone"/></radialGradient><radialGradient id="i" cx="100" cy="54" r="37" gradientUnits="userSpaceOnUse" class="svga-on-canvas-facehighlight-gradient-single-1"><stop stop-opacity=".5" stop-color="#ffe4d6" offset="0" data-stoptype="hl1"/><stop stop-opacity="0" stop-color="#f0c7b1" offset=".9" data-stoptype="tone"/></radialGradient><radialGradient id="b" cx="125.379" cy="82.93" r="12.84" gradientTransform="matrix(-1.0592 .0004 -.0004 .9318 206.511 5.177)" gradientUnits="userSpaceOnUse" class="svga-on-canvas-eyesback-gradient-left-0"><stop stop-color="#fff" offset="0" data-stoptype="#ffffff"/><stop stop-color="#fdfefe" offset=".544" data-stoptype="#fdfefe"/><stop stop-color="#f6f8f9" offset=".74" data-stoptype="#f6f8f9"/><stop stop-color="#eaeff2" offset=".879" data-stoptype="#eaeff2"/><stop stop-color="#d9e3e8" offset=".992" data-stoptype="#d9e3e8"/><stop stop-color="#d8e2e7" offset="1" data-stoptype="#d8e2e7"/></radialGradient><radialGradient id="e" cx="125.001" cy="82.93" r="12.841" gradientTransform="matrix(1.0592 .0004 .0004 .9318 -6.511 5.177)" gradientUnits="userSpaceOnUse" class="svga-on-canvas-eyesback-gradient-right-0"><stop stop-color="#fff" offset="0" data-stoptype="#ffffff"/><stop stop-color="#fdfefe" offset=".544" data-stoptype="#fdfefe"/><stop stop-color="#f6f8f9" offset=".74" data-stoptype="#f6f8f9"/><stop stop-color="#eaeff2" offset=".879" data-stoptype="#eaeff2"/><stop stop-color="#d9e3e8" offset=".992" data-stoptype="#d9e3e8"/><stop stop-color="#d8e2e7" offset="1" data-stoptype="#d8e2e7"/></radialGradient><radialGradient id="c" cx="123.218" cy="81.096" fx="133.802" fy="77.197" r="17.898" gradientTransform="matrix(.9998 .0183 .0166 -.7038 -47.759 136.625)" gradientUnits="userSpaceOnUse" class="svga-on-canvas-eyesfront-gradient-left-3"><stop stop-color="#e1ac8f" offset="0" data-stoptype="sd1"/><stop stop-opacity=".3" stop-color="#e1ac8f" offset=".7" data-stoptype="sd1"/><stop stop-opacity="0" stop-color="#f0c7b1" offset="1" data-stoptype="tone"/></radialGradient><radialGradient id="d" cx="79.496" cy="81.496" r="23.208" gradientTransform="matrix(1.0971 -.0499 .0576 .9543 -20.163 27.912)" gradientUnits="userSpaceOnUse" class="svga-on-canvas-eyesfront-gradient-left-4"><stop stop-opacity="0" offset=".9" data-stoptype="#000000"/><stop stop-opacity=".2" offset="1" data-stoptype="#000000"/></radialGradient><radialGradient id="f" cx="122.818" cy="81.096" fx="133.402" fy="77.197" r="17.898" gradientTransform="matrix(-.9998 .0183 -.0166 -.7038 246.96 136.633)" gradientUnits="userSpaceOnUse" class="svga-on-canvas-eyesfront-gradient-right-3"><stop stop-color="#e1ac8f" offset="0" data-stoptype="sd1"/><stop stop-opacity=".3" stop-color="#e1ac8f" offset=".7" data-stoptype="sd1"/><stop stop-opacity="0" stop-color="#f0c7b1" offset="1" data-stoptype="tone"/></radialGradient><radialGradient id="g" cx="79.859" cy="81.511" r="23.208" gradientTransform="matrix(-1.0971 -.0499 -.0576 .9543 220.163 27.916)" gradientUnits="userSpaceOnUse" class="svga-on-canvas-eyesfront-gradient-right-4"><stop stop-opacity="0" offset=".9" data-stoptype="#000000"/><stop stop-opacity=".2" offset="1" data-stoptype="#000000"/></radialGradient><linearGradient id="a" x1="100" y1="172" x2="100" y2="123" gradientUnits="userSpaceOnUse" class="svga-on-canvas-chinshadow-gradient-single-0"><stop stop-opacity=".8" stop-color="#e1ac8f" offset="0" data-stoptype="sd1"/><stop stop-color="#c27b55" offset=".7" data-stoptype="sd3"/></linearGradient></defs></svg>