<svg xmlns="http://www.w3.org/2000/svg" width="1000" height="1000" viewBox="0.499756 1080.5002441 1000 1000"><path fill="#F0C7B1" d="M885.6 1925.4c-9-19.2-33.2-47.6-60-55.3-33-9.6-108-21.2-136-28-22-5-67-45.3-82.8-59-2.8-2.6-5-7.5-5-11.2-.5-43.8 17-160.2 17-160.2H383.4s17.6 116.4 17.2 160.2c0 3.7-2.6 8.6-5 11-16 13.7-61 54-83 59-27.8 6.6-102.8 18.8-136 28.7-26.8 7.5-51 35.6-60 54.8-15 32.4-18.5 90.5-18.5 141h806c0-50.4-3.4-108.6-18.6-141z"/><path fill="#FFE4D6" d="M739.8 1862c98.2 14.5 139.4 35.2 152.2 204.5h12.4c0-50-3.4-108.7-18.2-141-9-19.2-33.2-47.6-60-55.3-33.4-9.7-108-21.3-136.2-28-22-5.2-73.4-48.5-87-65.8 13.6 19 51.4 62.8 85 74.2 15.7 5.6 29 8 51.8 11.4zm-424.6-11.4c33-11.5 71.3-55.3 85-74.4-13.6 17.4-65 60.7-87 65.7-27.8 6.4-103 18.7-136.2 28.6-26.8 7.4-51 35.6-60 54.7-14.7 32.4-18 90.7-18 141.2h12.3c12.7-168.3 54.3-189.8 152-204.4 22.6-3.3 35.8-5.8 52-11.4z"/><path fill="#E1AC8F" d="M484 1916.4s-20.5-6.3-28.5-9.7c-42-16.2-179-27-179-27s144.2 5.7 176 11.2c-1.8-19.2-12.3-80.8-12.3-80.8s20.8 67.6 26 85c2.4 10 17.7 21.3 17.7 21.3zm43.4-5l-1.4 1.2c.3-1 .8-1 1.2-1.4h.2zm-43.5 5s11.4 12 17.5 12.4c7.4 0 19.4-11.5 24.5-16.7-5.2 4-16.6 5.7-21.3 6-5.5 0-21-1.7-21-1.7h.2zm84.5-30c-6.4.8-17.8 3-17.8 3l9.2-60c-2.5 12.3-18 65.3-32.7 81.4 7.6-6.3 24.7-9.7 33.5-11 41.3-6 41.3-6 165.4-20 0 .5-116.6 0-157.6 6.6z"/><path fill="none" stroke="#C27B55" stroke-width="1.4" d="M885.6 1925.4c-9-19.2-33.2-47.6-60-55.3-33-9.6-108-21.2-136-28-22-5-67-45.3-82.8-59-2.8-2.6-5-7.5-5-11.2-.5-43.8 17-160.2 17-160.2H383.4s17.6 116.4 17.2 160.2c0 3.7-2.6 8.6-5 11-16 13.7-61 54-83 59-27.8 6.6-102.8 18.8-136 28.7-26.8 7.5-51 35.6-60 54.8-15 32.4-18.5 90.5-18.5 141h806c0-50.4-3.4-108.6-18.6-141z"/><path fill="#D9D9D9" d="M83.5 2072c-12-97.7 32.4-189.6 139-220.2 31.6-9 23-13.6 27.7-13.6v-2.6c.4-32.2 36.6-26 46.7-28 40.7-8.4 54.8-51.4 101-40.4 1.4 9.7.5 21.3-5.5 63 43.8 94.2 91.4 86 108.3 139.2 15.4-47.2 70-54.8 110.2-139.3-2.6-23.8-8.5-44.6-6-64.2h.5c31-10.2 44.6 3.3 57.4 15.8 37.7 36.4 57.7 13.5 76.8 30 7.6 7 10 16.4 10 26.5 86.5 12.5 185.5 40 165.5 231.6l.5.6c-87.6-.5-585.2 21.7-832.2 1.7z"/><path fill="#CAB6B6" d="M502.2 1965.3c17-43 68.6-52.8 107.2-131.8.2-.4 1-2.5 2.4-5-1-7.3-1.7-15.4-4.7-23.4-2-13.5-3.7-26.3-2.4-38.2 8 2.2 15.2 5 20.8 10.7 7.7 8 1.7 22.5-5.6 36.5-13.6 59-47.6 102-117.6 151.3zm278.4-43.7c12 41.6 19.4 108.3 10.2 151 8 0 10.6-.6 18.3-.6 3-44.7-5-115.6-28.4-150.4zm-127.8 7.6c-51.6 30.2-103.4 41.6-150.6 81.5-46.7-40-99.4-46.6-151-77-23.7-9.2-59.8-42.8-82-66.6 70 106 120 75.8 231.3 147.2 111.8-71.3 162-47.3 231.7-153-21.7 23.8-55.6 58.6-79.5 68zm-152.3 41.2c-17-43-66.3-57.7-105-137-.4-.3-1.2-2.4-2.5-5 .4-7.2-1-15.3 2.6-23.8 2-13.6 3-24.6 1.6-37-8 2.2-12.3 4-17.4 9.4-7.7 8-1.7 22.5 5.6 36.6 13 59.4 45.3 107.4 115 156.8zm-293-53.6c-17.2 38-17.2 110.5-13.8 155.2 7.2 0 10.2.4 18.2.4-10-42.6-7.3-113-4.3-155.6zm293.6 61.6c66-20 136.5-56 194.8-144.4-52.8 71-131 113-193 139-64.2-23.3-140.8-69.3-185.2-131.3 52.2 85.3 117.6 116.8 183.5 136.8z"/><path fill="#E8E8E8" d="M915.3 2069.8h-1.6c-1.7-196-111-203.5-171.4-216.3-9.2 0-14.4-26.2-21.3-33-6-6-51.3-6-65.7-45 2.5 2 4.6 4.2 6.8 6.2 37.8 36.6 57.8 13.7 77 30.2 7.6 7 10 16.2 10 26.4 87 12.3 185.5 39.6 166.3 231.5v-.2zm-833 4.7H84c19-155.6 64.6-204.7 175.5-223.2 14-5 6.5-15.2 13.7-22.4 6-6 38.7-6 84.3-54-2.8 2-12.4 4.2-14.5 6.4-37.8 36.5-66.2 26.2-77 30-12.7 4.7-14.7 16.2-14.7 26.4-86.4 13-178.2 60.4-168.8 236.8h-.2z"/><path fill="#AB7878" d="M750 1837.4c0-39.5-37.4-32-54.4-35.7-37.8-8-36.5-52-91-36.2-2 18.8 2.2 35.4 6 65-39.8 83.5-94.8 92.8-109.7 137.8-16.2-49.7-64.7-45-108-137.7 6-43.7 6.8-54 5.5-63.7-41.2-9.3-50.5 17.3-88 35-22.5 11-29.3 1-48.5 11-8 3.7-12.3 14.4-11.8 23.3v1.7c-4.7.5 2 .5-29.4 5.5-101.8 16.7-147.4 103-136.8 229.2 48 0 4.2 18 737.8-.5 34-1 92-1.6 94.4-1.6 21.7-187.5-73-218.6-166.2-233v-.2zM84 2071.7c10-145 32.4-201.6 165.3-231 72.3 120.4 161.2 102.8 251 170C419 1943 333.6 1952 252 1839c-1-9.3 3.8-20 14.4-23.8 7.2-3 14.8-2.2 22.6-2.2 28.4.5 50.5-22.2 71.7-38.7 10.2-6.7 25-7.2 37-5 1 15.7-5 39-7 55.7-4.4-9.3-8.3-18.7-12.5-28.5 50 147.7 100.2 114.3 122.7 175.6-4.7-1.2-84.6-30-148.4-93.4-13.6-13.6-40.4-43-42.6-45.4 79.3 106.3 129.4 112 191 139.7l.6.6c.4 0 .4-.4 1-.4h.2c8.5-4.2 64.6-23.8 107.6-53 44.2-30.3 94.4-96.2 90.5-91.5-73.7 74.8-85 91.7-198.3 143.5h-.3c0-.3-.4-.7-.4-1.6 0-.4 0-.4.4-1 20-54.5 78.7-33.4 127-183.4-5 12.8-10 25.5-16 38.2-2-22.2-8-39-7.7-57.4 8.5-3 31-4.2 37.4 2 26.6 22.7 28.8 39.2 71.6 39.2 13.6 0 31.8 1.7 33.6 27.2-2.6 3.8-21.3 26-39 43.5-62 62-118 62.7-204.2 128.6 2 0 6.3-4.6 8-5.6 67.2-47.6 115.6-47.2 177.7-97.7 28.5-23.4 56-60.8 59-65.5h.5c113.4 19.4 170.4 62.5 164 230-509.2-2.6-578.4 11-830 2.5l-.2.4z"/><g><path fill="#F0C7B1" stroke="#C27B55" stroke-width="1.4" d="M289 1448.8c-4-10.2-33-24-45.2-22-14.4 2.5-19.5 17.4-17.3 28.4 4.2 26 16 37 21.3 57.4 4 17.5 14 27.3 18.2 34.5 5.6 9 11 29.7 12.3 32.8 1.7 4.6 8.5 16.2 20 15.7 13.5-1 30.6-26.8 30.6-32.7 1-31.4-30.4-88-40-114z"/><path fill="#C27B55" d="M291.8 1555.6s1.7-4.2-.4-8c-2.5-5.2-9.7-14-11.5-19.6-1.3-4.3-.8-14-.8-18.8-.5-8-6-13.6-7.7-18.2-12-31.5-27.2-51-36-54.8-6.6 16-1.4 27.6 7.5 52.7-5.6-33.8-.5-44.3-.5-44.3s16.2 14 24.3 45c1.2 5.5-5 17.4-3.6 23 1.3 7.2 17 20.8 21.3 26.8 3.4 4.2 7.3 16 7.3 16z"/><path fill="#F0C7B1" stroke="#C27B55" stroke-width="1.4" d="M713 1448.8c4-10.2 32.8-24 45-22 14.5 2.5 19.5 17.4 17.5 28.4-4.3 26-16 37-21.3 57.4-4.2 17.5-14 27.3-18.2 34.5-5.6 9-11.2 29.7-12.4 32.8-1.6 4.6-8.5 16.2-20 15.7-13.5-1-30.5-26.8-30.5-32.7-1.6-31.4 29.7-88 40-114z"/><path fill="#C27B55" d="M710 1555.6s-1.6-4.2.5-8c2.6-5.2 10-14 11.6-19.6 1.4-4.3 1-14 1-18.8.4-8 5.8-13.6 7.6-18.2 11.8-31.5 27-51 36-54.8 6.6 16 1.4 27.6-7.6 52.7 5.6-33.8.5-44.3.5-44.3s-16.3 14-24.4 45c-1.2 5.5 4.8 17.4 3.5 23-1.2 7.2-17 20.8-21.3 26.8-3.7 4.2-7.2 16-7.2 16z"/><path fill="#F0C7B1" d="M501.4 1123.7c-135.7.5-245.7 111.8-245.4 248.7 0 21.6 3 43 8.2 63 0 .3 46.4 155.5 56.6 206.4 5.6 28.5 36.6 63 66.7 84.3 28 19.5 45.6 46.8 114 46.8s85.8-27.4 113.8-47c30.3-20.7 61.3-55.5 66.7-84.2 10-51 56.6-206 56.6-206.5 5-19.8 8-41 8-62.8 0-136.8-109.4-248.2-245-248.6h-.2z"/><path fill="#E8B9A0" d="M689.7 1213.6c30 41.4 48 93.3 48 150 0 21.5-2.7 42.8-7.7 62.7 0 .5-44.6 155.6-54.3 206.5-5.6 28.8-35.2 63-64.3 84.3-27 19.6-43.5 47-110 47-66.2 0-82.8-27.4-110-47-28.8-20.7-58.7-55.4-64.2-84.2-9.7-51-54.3-206-54.3-206.5-5.2-20-7.7-41.2-7.7-63 0-56.4 17.8-108.3 48-150-35.6 43-57 98.8-57 159 0 21.7 3 43 8 63 0 .4 46.6 155.6 56.8 206.5 5.7 28.5 36.7 63 66.8 84.3 28 19.5 45.5 46.8 114 46.8 68.4 0 85.8-27.4 113.8-47 30.3-20.7 61.3-55.5 66.6-84.2 10-51 56.7-206 56.7-206.5 5-19.8 8-41 8-62.8 0-60.2-21-116-57-158.8l-.3.2z"/><path fill="none" stroke="#C27B55" stroke-width="1.4" d="M501.4 1123.7c-135.7.5-245.7 111.8-245.4 248.7 0 21.6 3 43 8.2 63 0 .3 46.4 155.5 56.6 206.4 5.6 28.5 36.6 63 66.7 84.3 28 19.5 45.6 46.8 114 46.8s85.8-27.4 113.8-47c30.3-20.7 61.3-55.5 66.7-84.2 10-51 56.6-206 56.6-206.5 5-19.8 8-41 8-62.8 0-136.8-109.4-248.2-245-248.6h-.2z"/><linearGradient id="a" gradientUnits="userSpaceOnUse" x1="-382" y1="1600.8" x2="-382" y2="1598.2" gradientTransform="matrix(3.9 0 0 3.9 1993.1 -4553.1)"><stop offset=".1" stop-color="#E8B9A0"/><stop offset="1" stop-color="#E1AC8F"/></linearGradient><path fill="url(#a)" d="M486 1681.4l33.6-1c-3.7 18-31 15.4-33.6 1z"/><path fill="#C27B55" d="M486.5 1682.7c-1.7 0-1.3-2.2.5-2.2 0 0 17.4 2.2 31.8-1 2-.3 2.2 2 .5 2.3-11.5 2.2-26 1.7-32.7 1zm15.3-14.5c-6 0-12-2-18-3-6.7-1.2-13 0-19.8.4-6.8.4-21.8 0-25.7-2.5-2-1.2-1.6-5 1-5.8s6.3 1 9 1.3c11.2 2 17.6 0 27.4-.4 15.7-.3 17 6 36.5 2.3 21-4.3 30.2-1 45-5.6 2-.5 4.8-2 6.8-1.3 2.6 1.2 2.6 4.6 0 6-13.6 6-29 3.3-44.2 6-6.5 1-12.4 2.8-18.3 2.8h.3z"/><radialGradient id="b" cx="69.8" cy="1545.1" r="9.2" gradientTransform="matrix(-3.8 0 0 3.8 664.1 -4451.3)" gradientUnits="userSpaceOnUse"><stop offset="0" stop-color="#FFF"/><stop offset=".5" stop-color="#FDFEFE"/><stop offset=".7" stop-color="#F6F8F9"/><stop offset=".9" stop-color="#EAEFF2"/><stop offset="1" stop-color="#D9E3E8"/><stop offset="1" stop-color="#D8E2E7"/></radialGradient><path fill="url(#b)" d="M344 1455.2c-1 11 7 24.3 50.3 28 38.7 3.5 54.8-3 56-15.6 1.4-12.7-13.5-28-51.8-30-34-2-53.5 5.4-54.4 17.6z"/><g transform="translate(.5 .3)"><path fill="#536987" d="M422.4 1459.5c0 13-10.8 24.2-24.4 24.2-13.6 0-24.2-10.6-24.2-24.2 0-13.2 10.6-24.3 24.2-24.3s24 11 24 24.3h.4z"/><radialGradient id="c" cx="-3905.9" cy="3320" r="53.5" gradientTransform="matrix(.4 -.1 .1 .4 1521.2 -132.2)" gradientUnits="userSpaceOnUse"><stop offset="0" stop-color="#FFF"/><stop offset="1" stop-color="#FFF" stop-opacity="0"/></radialGradient><path opacity=".7" fill="url(#c)" d="M395.5 1435.8s-.4 0 0 0v-.2.2zm0 1.5c.4 8.2 1 15 2 17.6 1-2.8-.3-10-2-17.7zm2 17.6c0 .7-.3 1-1 1-.4 0-.6 0-1-.4v1.7c-.5.4-1 .4-2 .4.6.4 1 1 .6 1.2 0 .5-.3.8-1.2.8 1 .5 1.3.5 1.3 1s0 1-.3 1.3c1 0 1.4 0 1.8.4.5.4.4 1 0 2 .4-.7 1.2-.7 1.2-.7.5 0 1 .5 1 1.3.3-.4.7-1 1.2-1s.8.6 1.2 1c0-1 0-1.3.3-1.3.5-.4 1 0 2 0-.7-.4-.7-1.3-.7-1.6 0-.3 1-.4 1.3-1-.3-.2-.8-.8-.8-1 0-.3.5-1 1-1.3-1 0-1.4-.4-1.4-1 0-.3 0-.6.5-1.6-1 .5-1.3.5-2 0-.4-.2 0-.8 0-1.2-.6.4-1 1-1.4 1-1 .3-1 0-1.4-1zm2.7.2c2-2 4.2-9 6.4-16.6-4 7.4-6.4 13.7-6.4 16.6zm6.4-16.6c.3-.3.3-.8.8-1.6h-.5c-.5 1-.5 1.3-.5 1.6zm-4.8 18c2.6-1 7.7-6 13.2-12-6 5-11.4 9.3-13.2 12zm13.6-11.6c.5-.4 1-.4 1.3-1-1 0-1 .6-1.4 1zm-12.3 14c3 .5 10-1.7 17.2-4.2-7.7 1.3-14.6 2.5-17 4.2zm17.5-4.2h1.3v-.4c-.4 0-1 0-1.3.5v-.2zM403 1461c2.6 2 9.4 3.2 17.2 4.4-7.3-2.5-14-4.3-17-4.3zm17.5 4.4c.5 0 1 .5 1.3.5-1 0-1.3 0-1.3-.6zm-18.7-2c1.3 2.5 7 6.7 13.2 12-5-5.6-10.2-10.8-13.2-12zm13.2 12l1 .7c0-.4-.6-.4-1-1v.3zm-14.8-10.3c0 3 3 9.4 6.4 16.6-2.7-7.7-4.8-14.4-6.4-16.7zm6 16.6c0 .4 0 .4.3 1 0-.6 0-1-.5-1zm-8.6-16.7c-1.2 2.5-2.2 9.8-2.2 17.8 1.2-8 2.5-14.8 2-17.8h.2zm-2 18zm-.5-18.5c-2.5 1.6-6 7.4-10 14.3 5.4-6 9.6-11.5 10-14.4zm-9.8 14.8l-1 .7c.6-.3.6-1 1-1v.3zm8.4-16.7c-2.8.5-8.8 3.7-15.8 8 7.4-3 13.7-5.8 15.8-8zm-15.8 8c-.2 0-.7.5-.7.5s.6 0 1-.3h-.2zm15-10.5c-2.6-.8-9.8-.8-17.8 0 8 1 15 1.4 17.7 0zm-17.8 0h-1.4v.6c.4-.4 1.3-.4 1.3-.4zm18.5-2c-1.6-2-8.3-5-15.8-8 6.5 3.8 13 7.6 15.8 8zm-15.8-8.4c-.2-.5-.7-.5-1.2-1v.5c.5 0 1 .7 1.3.7zm17.2 6.5c-1-3-5.2-8.6-10.3-14.5 4.2 6.7 8 12.6 10.2 14.4zm-9.7-15c-.4-.4-.4-.8-1-1.2h-.4l1.2 1.3z"/><radialGradient id="d" cx="-3091" cy="3993.1" r="53.5" gradientTransform="matrix(.4 0 0 .4 1586.7 -44)" gradientUnits="userSpaceOnUse"><stop offset="0" stop-color="#FFF"/><stop offset="1" stop-color="#FFF" stop-opacity="0"/></radialGradient><path opacity=".4" fill="url(#d)" d="M401.8 1435.8c-.4 0-.4 0 0 0-.4.3-.4 1.2-.4 1.5 0-.3 0-1.2.4-1.6zm-.4 1.5c-1.8 7.7-3 15-2.5 17.6 1.2-2.8 2-9.5 2.4-17.7zM399 1455c-.6.2-1 .7-1.4.7-.4 0-1-.5-1.2-1 0 1 0 1.4-.6 1.4-.5.4-1 0-1.7 0 .5.4.5 1.3 0 1.7-.3.4-.8.4-1.2.4.4.6 1 1 1 1.4 0 .4-.6 1-1 1.3 1 0 1.3.4 1.3 1 0 .5 0 .6-.3 1.5 1-.4 1.4-.4 1.8 0 .5.3.4 1 .4 1.3.4-.3.8-.8 1.2-.8.4 0 1 .5 1.2 1.3 0-1 .5-1.3 1-1.3.3 0 .8 0 1.2.5v-2h2c-.7-.6-1-1-.7-1.4 0-.5.4-1 1.2-1-1-.3-1-.3-1.3-1 0-.2 0-.6.4-1-1 0-1.3 0-2-.5-.4-.4-.2-1 0-1.6-.2.3-1 .3-1 .3s-.4-.4-.4-1.2zm2 .7c2.5-2 6.3-7.7 10.2-14.5-5.2 6.3-9.5 11.8-10.2 14.4zm10.5-14l1.3-1.4h-.4s-1 1-1 1.2zm-9 16c3-.4 9-3.8 15.8-8-7.2 3-13.6 6-15.7 8zm15.8-8c.5 0 1-.4 1.3-.4v-.5c-.4.6-.7 1-1.2 1zm-15.3 10.6c2.5 1.3 9.8 1 18 .5-8.2-1-15-2-18-.5zm18 .5h1v-.5c-.3 0-.8 0-1 .5zm-18.4 1.6c1.8 2.2 8 5.6 15.3 8.6-6.6-4.3-12.8-8-15.4-8.6zm15.3 8.6c.3.4 1 .4 1 1 0-.6-.7-.6-1-1zm-17-6.8c.3 3 4.5 8.3 9.6 14.8-4-6.7-7.7-13-9.8-14.8zm9.6 14.8c0 .5.4.5.4 1 0 0-.5-.5-.5-1zm-12.4-14c-.7 3 .6 9.8 2 17.4 0-7.6-.6-14.8-2-17.4zm2 17.7v1c.2-.4 0-.4 0-1zm-4.4-17.6c-2 2.2-4.3 9-7 16.6 4-7.7 7-14 7-16.7zm-6.5 16c0 .6-.4.6-.4 1 0 0 .4-.4.4-1zm4.8-17.7c-2.5 1-8 6-13.5 11.5 6.3-4.7 11.8-8.8 13.5-11.4zm-13.3 11.4c-.6 0-.6.5-1 .5.4 0 .4 0 1-.4zM393 1461c-3-.2-10 1.4-17.5 4 8-1.3 14.8-2 17.4-4zm-17.5 4h-1.3c1 .4 1.3 0 1.3 0zm17.4-6.4c-2.7-1.7-9.3-3.4-17-4.7 7.6 3 14 5 17 4.6zm-17-4.7c-.5 0-1-.4-1.4-.4v.3h1.3zm18.2 2.5c-1.3-2.6-6.8-7.2-13.2-12 5.5 6 10.6 10.7 13.2 12zm-12.8-12c-.4-.3-1-.8-1-1 0 .2.6.8 1 1zm15 10.7c0-3-2.6-9.2-6-16.6 2 7.7 4.2 14.5 6 16.6zm-6-16.6c0-.3-.4-.8-.4-1.6h-.5c.5.3 1 1 1 1.6h-.2z"/><path fill="#536987" d="M407.7 1459.5c0 5-4 9.2-9.2 9.2-5 0-9.5-4-9.5-9.2 0-5 4.3-9.3 9.3-9.3 5 0 9.4 4.2 9.4 9.3z"/><path opacity=".9" d="M407.7 1459.5c0 5-4 9.2-9.2 9.2-5 0-9.5-4-9.5-9.2 0-5 4.3-9.3 9.3-9.3 5 0 9.4 4.2 9.4 9.3z"/><linearGradient id="e" gradientUnits="userSpaceOnUse" x1="-353.5" y1="1545.3" x2="-352.7" y2="1544.3" gradientTransform="matrix(3.9 0 0 3.9 1764 -4552.2)"><stop offset="0" stop-color="#FFF"/><stop offset="1" stop-color="#FFF" stop-opacity="0"/></linearGradient><path opacity=".5" fill="url(#e)" d="M385 1470.5c1.5-1.2 4-1 5.4 1.3 1.2 1.7.8 4.2-1.4 5.5-1.6 1.3-4 .8-5.5-1.3-.8-1.7-.4-4.3 1.4-5.6z"/><linearGradient id="f" gradientUnits="userSpaceOnUse" x1="-348.9" y1="1539.1" x2="-349.5" y2="1540" gradientTransform="matrix(3.9 0 0 3.9 1764 -4552.2)"><stop offset="0" stop-color="#FFF"/><stop offset="1" stop-color="#FFF" stop-opacity="0"/></linearGradient><path opacity=".5" fill="url(#f)" d="M405.7 1458.2c-1 1.8-4 1.3-6.5-.4-2.5-1.8-3.7-4.2-2.8-6 .8-1.7 3.8-1.2 6.3.5 2.5 1.6 3.8 4.6 3 6z"/><linearGradient id="g" gradientUnits="userSpaceOnUse" x1="-346.3" y1="1536.6" x2="-347.9" y2="1538.4" gradientTransform="matrix(3.9 0 0 3.9 1764 -4552.2)"><stop offset="0" stop-color="#FFF"/><stop offset="1" stop-color="#FFF" stop-opacity="0"/></linearGradient><path opacity=".8" fill="url(#g)" d="M417 1454.3c-2 3.5-8 4-13 .5-5-3.4-7.2-9-5-12.4 2-3.4 8-3.7 13-.3 5.2 3.4 7.3 8.6 5.2 12.4z"/></g><radialGradient id="h" cx="-352" cy="761.8" r="15.8" fx="-340.9" fy="761.8" gradientTransform="matrix(3.8 .1 .1 -3.1 1703.8 3817.3)" gradientUnits="userSpaceOnUse"><stop offset="0" stop-color="#E1AC8F"/><stop offset=".7" stop-color="#E1AC8F" stop-opacity=".3"/><stop offset="1" stop-color="#F0C7B1" stop-opacity="0"/></radialGradient><path fill="url(#h)" d="M331.4 1463.8c2.5 31 41.2 53.5 80 50 38.5-3.3 70.5-27 68-58.2-3-31-36.7-53-75.3-49.6-38.6 3.4-76 15.3-72.6 57.8zm12.7-8.6c1-12.6 20.4-19.4 54.5-17.7 38.3 2 53.2 17.4 52 30-1.4 12.8-17.5 19.2-56.2 15.8-43.4-3.3-51-16.7-50.2-28z"/><path fill="#C27B55" d="M443.2 1440.8c-4.3-2.5-13.2-6.5-13.2-6.5s10.2 2.8 14.5 5.3c4 2.6 8.3 9.2 8.3 9.2s-5.4-5.3-9.6-8zm-75-9.6s-10.5 0-18 4.6c-7 4.2-10 10.5-10 10.5s6.7-6.7 11.5-10c4.2-2.7 16.6-5.2 16.6-5.2v.2z"/><path d="M399.8 1438.3c-24.7-1-63 1.7-54 25-12.7-7.6-3-35.7 56.5-30.6 29 2.6 63 17.4 47.2 39.6 4.7-23.5-25.5-33.2-49.7-34zm43.7 40.7l-12.3 4c-21.3.2-33-1.5-53-2.3-9.3-.5-17.6-5-28-9.8 6 6.7 16.4 12.2 28 13 19 1.3 32 1.3 53.7 2l11.4-7z"/><radialGradient id="i" cx="-362.9" cy="1545.1" r="9.2" gradientTransform="matrix(3.8 0 0 3.8 1993.9 -4451.3)" gradientUnits="userSpaceOnUse"><stop offset="0" stop-color="#FFF"/><stop offset=".5" stop-color="#FDFEFE"/><stop offset=".7" stop-color="#F6F8F9"/><stop offset=".9" stop-color="#EAEFF2"/><stop offset="1" stop-color="#D9E3E8"/><stop offset="1" stop-color="#D8E2E7"/></radialGradient><path fill="url(#i)" d="M658.5 1455.2c1 11-6.6 24.3-50 28-38.7 3.5-55-3-56.2-15.6-1.2-12.7 13.6-28 52-30 34-2 53.6 5.4 54.3 17.6z"/><g transform="translate(-.5 .3)"><path fill="#536987" d="M629 1459.5c0 13-10.7 24.2-24.3 24.2-13.2 0-24-10.6-24-24.2 0-13.2 10.5-24.3 24-24.3 13.2 0 24.2 11 24.2 24.3z"/><radialGradient id="j" cx="-3963.5" cy="3304" r="53.5" gradientTransform="matrix(.4 -.1 .1 .4 1750.3 -131.8)" gradientUnits="userSpaceOnUse"><stop offset="0" stop-color="#FFF"/><stop offset="1" stop-color="#FFF" stop-opacity="0"/></radialGradient><path opacity=".7" fill="url(#j)" d="M601.7 1435.8v-.2.2zm0 1.5c.5 8.2 1 15 2.2 17.6.6-2.8-.6-10-2.4-17.7zm2.2 17.6c0 .7-.6 1-1 1s-1 0-1.4-.4v1.7c-.3.4-1 .4-1.6.4.4.4 1 1 .4 1.2 0 .5-.4.8-1.3.8.4.5 1.3.5 1.3 1s0 1-.4 1.3c.8 0 1.2 0 1.5.4.4.4.5 1 0 2 .5-.7 1.3-.7 1.3-.7.5 0 1 .5 1 1.3.3-.4.7-1 1.2-1s1 .6 1.3 1c0-1 0-1.3.3-1.3.6-.4 1 0 2 0-.6-.4-.6-1.3-.6-1.6 0-.3 1-.4 1.3-1-.5-.2-1-.8-1-1 0-.3.5-1 1-1.3-1 0-1.4-.4-1.4-1 0-.3 0-.6.4-1.6-1 .5-1.3.5-2 0-.4-.2 0-.8 0-1.2-.6.4-1 1-1.4 1-.5.3-1 0-1.3-1h.2zm2.4.2c2-2 4.2-9 6.4-16.6-3.5 7.4-6.4 13.7-6.4 16.6zm6.4-16.6c.3-.3.3-.8.8-1.6h-.5c0 1-.3 1.3-.3 1.6zm-4.3 18c2.5-1 7.6-6 13-12-6.4 5-11.7 9.3-13 12zm13-11.6c.6-.4 1-.4 1.4-1-.5 0-1 .6-1.4 1zm-11.7 14c3 .5 9.7-1.7 17-4.2-7.8 1.3-15 2.5-17 4.2zm17-4.2h1.2v-.4c-.3 0-.7 0-1.2.5v-.2zm-17 6.3c2.5 2 9.2 3.2 17 4.4-7.8-2.5-14.5-4.3-17-4.3zm17 4.4c.4 0 1 .5 1.2.5-.3 0-.7 0-1.2-.6zm-18.3-2c1.3 2.5 6.7 6.7 13 12-5.4-5.6-10.5-10.8-13-12zm13 12l1 .7-1-1v.3zm-15-10.3c0 3 2.8 9.4 6.3 16.6-2.2-7.7-4.3-14.4-6.4-16.7zm6.3 16.6c0 .4 0 .4.3 1-.3-.6-.3-1-.3-1zm-9-16.7c-1.4 2.5-2 9.8-2.3 17.5 2-7.7 3-14.5 2.2-17.6zm-2.3 17.8zm0-18.5c-2.5 1.6-6 7.4-10 14.3 5-6 9-11.4 10-14.4zm-10 14.8c0 .5-.5.5-1 .8.5-.3 1-1 1-1v.3zm8.4-16.6c-3 .5-9 3.7-16 8 7.4-3 13.7-5.8 16-8zm-16 8c-.2 0-.8.6-.8.6.6 0 .6 0 1-.5zm15.4-10.5c-2.5-1-9.7-1-17.8 0 8.2 1 14.8 1.2 18 0h-.2zm-17.8 0h-1.2v.4c.4-.4 1-.4 1.3-.4zm18.4-2c-1.7-2.2-8.6-5.2-15.8-8.2 7 3.8 12.8 7.6 15.8 8zm-15.8-8.6c-.3-.5-1-.5-1.3-1v.5c.4 0 1 .5 1.2.5zm17.4 6.5c-1-3.2-5-8.7-10.2-14.7 4.3 6.7 7.7 12.6 10.2 14.4v.2zm-10.2-14.7c-.3-.5-.3-1-1-1.4h-.3c1 .3 1.4 1 1.4 1.2z"/><radialGradient id="k" cx="-3150.6" cy="3993.6" r="53.5" gradientTransform="matrix(.4 0 0 .4 1815.8 -44)" gradientUnits="userSpaceOnUse"><stop offset="0" stop-color="#FFF"/><stop offset="1" stop-color="#FFF" stop-opacity="0"/></radialGradient><path opacity=".4" fill="url(#k)" d="M608 1435.8c-.3.3-.3 1.2-.3 1.5 0-.3.5-1.2.5-1.6zm-.3 1.5c-1.6 7.7-3 15-2.5 17.6 1.7-2.8 2.2-9.5 2.6-17.7zm-2.5 17.6c-.4.2-1 .7-1.3.7-.4 0-1-.5-1.4-1 0 1 0 1.4-.4 1.4-.4.4-.8 0-1.6 0 .4.4.4 1.3 0 1.7-.5.4-1 .4-1.3.4.3.6.8 1 .8 1.4 0 .4-.4 1-1 1.3 1 0 1.5.4 1.5 1 0 .5 0 .6-.4 1.5 1-.4 1.4-.4 1.7 0 .4.3.5 1 .5 1.3.4-.3 1-.8 1.4-.8s1 .5 1.2 1.3c0-1 .4-1.3 1-1.3s.8 0 1 .5v-2h2c-.5-.6-1-1-.5-1.4 0-.5.5-1 1.3-1-1-.3-1-.3-1.4-1 0-.2 0-.6.5-1-1 0-1.3 0-2-.5s-.2-1 0-1.6c-.2.3-1 .3-1 .3s0-.4-.5-1.2zm2.6.7c2.6-2 6.5-7.7 10.2-14.5-5 6.3-9.7 11.8-10.2 14.4zm10.2-14l1.3-1.4h-.4s-.5 1-1 1.2zm-9 16c3-.4 9-3.8 16-8-7.3 3-13.7 6-16 8zm16.3-8c.3 0 .8-.4 1.2-.4v-.5c-.4.6-1 1-1.3 1zm-15.3 10.6c2.5 1.3 9.7 1 17.7.5-8-1-15.2-2-17.7-.5zm17.4.5h1.2v-.5c-.4 0-1 0-1.2.5zm-18.4 1.6c2 2.2 8.2 5.6 15.4 8.6-6.5-4.3-12.4-8-15.4-8.6zm15.4 8.6c.4.4 1 .4 1 1 0-.6-.6-.6-1-1zm-17-6.8c.4 3 4.6 8.3 9.8 14.8-4-6.7-7.2-13-9.8-14.8zm9.8 14.8c0 .5.4.5.4 1 0 0-.4-.5-.4-1zm-12-14c-.8 3 .5 9.8 1.8 17.4-.5-7.6-.5-14.8-2-17.4zm1.8 17.7zm-4.4-17.6c-2 2.2-4 9-6.7 16.6 3.6-7.7 6.6-14 6.6-16.7zm-6.7 16c0 .6-.6.6-.6 1 .5 0 .5-.4.5-1zm4.5-17.7c-2.5 1-8 6-13.5 11.5 6.8-4.7 12.3-8.8 13.6-11.4zm-13.5 11.5c-.5 0-.5.5-1 .5.5 0 1 0 1-.5zm12.7-13.6c-3-.3-9.7 1.3-17.4 4 7.7-1.4 14.8-2.2 17.4-4zm-17.4 4H581c.5.3 1 0 1.4 0zm17.4-6.6c-2.5-1.6-9.3-3.3-17-4.6 7.3 3 14 5 17 4.6zm-17-4.6c-.4 0-1-.4-1.3-.4v.4h1.3zm18.3 2.6c-1.3-2.6-6.8-7.2-13.2-12 5.6 6 10.2 10.7 13.2 12zm-13.2-12c-.4-.3-1-.8-1-1 0 .2.6.8 1 1zm14.8 10.7c0-3-2.5-9.2-6-16.7 2.3 7.8 4.5 14.6 6 16.7zm-5.5-16.7c0-.2-.3-.7-.3-1.5h-.3c0 .4.4 1 1 1.7h-.3z"/><path fill="#536987" d="M614 1459.5c0 5-4 9.2-9.3 9.2-5 0-9.3-4-9.3-9.2 0-5 4.2-9.3 9.3-9.3 5.2 0 9.2 4.2 9.2 9.3z"/><path opacity=".9" d="M614 1459.5c0 5-4 9.2-9.3 9.2-5 0-9.3-4-9.3-9.2 0-5 4.2-9.3 9.3-9.3 5.2 0 9.2 4.2 9.2 9.3z"/><linearGradient id="l" gradientUnits="userSpaceOnUse" x1="-356.8" y1="1545.3" x2="-356" y2="1544.3" gradientTransform="matrix(3.9 0 0 3.9 1983.5 -4552.2)"><stop offset="0" stop-color="#FFF"/><stop offset="1" stop-color="#FFF" stop-opacity="0"/></linearGradient><path opacity=".5" fill="url(#l)" d="M591.5 1470.5c2-1.2 4.3-1 5.6 1.3 1.4 1.7 1 4.2-1.2 5.5-1.7 1.3-4.3.8-5.6-1.3-1.2-1.7-1-4.3 1.3-5.6z"/><linearGradient id="m" gradientUnits="userSpaceOnUse" x1="-352.2" y1="1539.1" x2="-352.8" y2="1539.9" gradientTransform="matrix(3.9 0 0 3.9 1983.5 -4552.2)"><stop offset="0" stop-color="#FFF"/><stop offset="1" stop-color="#FFF" stop-opacity="0"/></linearGradient><path opacity=".5" fill="url(#m)" d="M612 1458.2c-1 1.8-3.8 1.3-6.4-.4-2.6-1.8-4-4.2-3-6 1-1.7 3.8-1.2 6.4.5 2.8 1.6 4.2 4.6 2.8 6z"/><linearGradient id="n" gradientUnits="userSpaceOnUse" x1="-349.7" y1="1536.5" x2="-351.2" y2="1538.4" gradientTransform="matrix(3.9 0 0 3.9 1983.5 -4552.2)"><stop offset="0" stop-color="#FFF"/><stop offset="1" stop-color="#FFF" stop-opacity="0"/></linearGradient><path opacity=".8" fill="url(#n)" d="M623.4 1454.3c-2 3.5-8 4-13.2.5-5-3.4-7.2-9-5-12.4 2-3.4 8-3.7 13-.3 5.7 3.5 7.8 8.6 5.2 12.4z"/></g><radialGradient id="o" cx="80.5" cy="773" r="15.8" fx="91.7" fy="773" gradientTransform="matrix(-3.8 .1 -.1 -3.1 954.2 3817.3)" gradientUnits="userSpaceOnUse"><stop offset="0" stop-color="#E1AC8F"/><stop offset=".7" stop-color="#E1AC8F" stop-opacity=".3"/><stop offset="1" stop-color="#F0C7B1" stop-opacity="0"/></radialGradient><path fill="url(#o)" d="M598.7 1406c-38.7-3.5-72.2 18.7-75.3 49.7-2.7 31 29 54.4 68.2 58.3 38.6 3.3 77.8-19.2 80-50.2 3-42.6-34.4-54.4-73-57.8zm9.7 77.3c-38.7 3.4-55-3-56.2-15.7-1.2-12.7 13.6-28 52-30 34-2 53.6 5 54.3 17.6 1 11.5-6.6 24.8-50 28z"/><path fill="#C27B55" d="M549.8 1448.8s4.3-6.7 8.5-9.3c4.3-3 14.5-5 14.5-5s-9 3.8-13.2 6.4c-4.3 2.5-9.7 7.8-9.7 7.8h-.2zm101-12.3c4.8 3 11.6 10.2 11.6 10.2s-3-6.3-9.7-10.5c-7.7-4.7-18.3-4.7-18.3-4.7s12.2 2 16.5 5z"/><path d="M553.6 1472.3c-15.7-22.2 18.4-37 47.3-39.6 59.3-5 69 23 56.3 30.6 9-23.3-29.3-26-54-25-24.6 1-54.8 10.5-49.7 34zm17 13c21.8 0 35-.2 54-1.5 11.6-1 21.8-6 28.2-13.2-10.6 5-19.2 9.3-28 9.7-20 1-32 2.8-53.2 2.3l-12.3-3.7 11.5 6.5z"/><g><radialGradient id="p" cx="-390.1" cy="1576.3" r="36.7" gradientTransform="matrix(3.8 0 0 3.8 1993.9 -4451.3)" gradientUnits="userSpaceOnUse"><stop offset="0" stop-color="#FFE4D6" stop-opacity=".5"/><stop offset=".9" stop-color="#F0C7B1" stop-opacity="0"/></radialGradient><path fill="url(#p)" d="M666.7 1579.8c0 91-73.5 165.4-164.8 165.4-91.6 0-165.7-73.5-165.7-165 0-91 73.5-165.3 164.8-165.7 91 0 165 74 165.5 165.3h.2z"/><radialGradient id="q" cx="-390.1" cy="1513.1" r="33.1" gradientTransform="matrix(3.8 0 0 3.8 1993.9 -4451.3)" gradientUnits="userSpaceOnUse"><stop offset="0" stop-color="#FFE4D6" stop-opacity=".5"/><stop offset=".9" stop-color="#F0C7B1" stop-opacity="0"/></radialGradient><path fill="url(#q)" d="M652.2 1338c0 83.3-67.6 151-151 151s-150.8-67.7-150.8-151 67.6-151 151-151S652 1254.8 652 1338z"/></g><g><path fill="#2A232B" d="M324.3 1412.4c59.2-12.4 132.4 11 134.2-2.6.8-5.2-3.5-7-7.4-7.4-59.7-5-108.6-6-126.7 10z"/></g><g><path fill="#2A232B" d="M678.6 1412.4c-59.5-12.4-132.6 11-134.2-2.6-1-5.2 3.3-7 7-7.4 60-5 109-6 127.2 10z"/></g><g><path fill="#E1AC8F" d="M465.7 1585.8c-3.5 8.3 23.8 17.4 34.4 17.8 11.5.4 43-11.5 37.4-20-5.5-9-26.8-1.2-35.7-1.2-9.3 0-31.5-7.7-36 3.3z"/><path fill="#C27B55" d="M509 1592c-1-3 7.7-6.4 10.6-6.7 4.3-1 13.7 3.5 12.8 6.5-.8 3-8.5-2.2-11.5-1.8-3 .3-11.2 5-12 2zm-28-1c3.8 0 9.8 2.4 10.6.3 1.3-2.6-8.5-6-11.5-5.6-2.4.4-11 5-9.6 7.2 1.2 2 5.5-2.2 10.5-2.2z"/><path opacity=".2" fill="#FFF5EF" d="M501.8 1571.7c2.6 0 7.2-3 7.2-9 1-24-3.7-96-7.2-95.5-3 .3-9 70.8-7.6 95.5 0 6 4.6 9 7.6 9z"/></g><g><path fill="#35291F" d="M390 1766c-23.3-14.8-53-44.6-64.2-59.5-31-39.6-18.7-72.3-34.4-141.5-7.6-30.2-21-74.5-22.5-85.5 3.6.5 23.2 3.4 26.7 3.7 4.7 38 47.5 64.8 54.7 142.6 6.5 48.8 30.7 72.6 70.3 96.8 16.5 10.2 48.8 27.2 56.5 9 6.3-15-4.3-44.7 21.3-49.8 5.4-1 17 1.3 21 11 7.4 16.3-3.6 46.8 19.3 46.8 23.8 0 64.6-30.5 76-40.7 44.7-36.6 30.2-81.3 50.6-130 23.8-53 31-46 41.3-86l26.8-4c-17 68.6-30.2 101.6-32 145-3 64.2-22.5 84.6-65.8 124-24.3 21-54.4 41.8-130.6 44.8-21.5 1.6-84-6.5-115-27v.2z"/><path fill="#261B12" d="M482.6 1693.7c2.6-6 7.4-10.6 15.7-12 5.6-.8 17.6 1.4 21.8 11.6 0 .5.5 1 .5 1-7 6-17 40.3-38-.5zm184-1.2c-32.3 57.8-90.8 89.6-154.5 89.6-5 .6-14.5.6-20.3 0-64.3 0-122.5-31.7-154.8-89.5-37.2-55.8-29.8-125.4-60-183.4 4.6 17.7 11 39 15 56 16 69.2 3.6 102.4 34.6 142 11.5 15.2 40.7 44.6 64 59.4 29.4 19.4 86.3 27.8 111.4 27.2 24.7.5 82-8 111.4-27.2 23.4-14.8 52.7-44.2 64.2-59.5 31-39.6 18.5-72.8 34.3-142l15.3-55.8c-31 58-23.8 127.5-60.8 183.4h.2z"/><path fill="#070402" d="M706.7 1483c-10.2 40.3-17.6 33-41.3 85.8-20.8 49-6 93-50.6 130-11 10.2-58.6 46-81 40.3-15.5-5.4-7-31-13.7-45.2-4-10.3-16-12.6-21.7-11.7-26 5.3-15.2 35.5-21.6 50-7.6 17.8-39.5 1-56-9.3-40.8-25-63.8-49.4-70-97-7-78-50-105-54.5-142.6l-27.8-4c1.4 10.3 15 55.4 23.2 86.4 15.7 69.2 3.3 102.4 34.2 142 11.6 15.2 41 44.5 64.3 59.4 31 20.4 93.6 28.5 115.3 27.3 75.6-3 106.2-23.8 130.6-44.7 44-40.3 62.6-60.3 65.6-124.5 2-43.3 14.8-76 32-145.4.2-.5-26 3.4-27 3.4v.2zm-11.5 140.6c-5.5 64.6-18.7 78.7-62.5 118.5-31 27-64 42.2-131.7 47.3-30.2-2-84.2-12.3-109.6-30.2-26.4-17.7-53.5-47.8-60.8-57.6-29-37.4-15.3-72-33.6-137.7-12.3-38.2-18.3-50-28-83.6 3.7.4 13.6 2.6 26.3 3.8 5.5 43 42.6 64.2 49 142.6 1.2 9.2 2.8 27.5 16 49 6.7 11.6 15.3 21.3 23 27.8 22.4 20.8 97.2 70 98.5 16.5 0-14.4-1.6-34.3 19.2-37.8 35.2 5 5 52.7 31.5 60.7 25 7.2 109.3-35.7 122.4-100.8 6.7-24.2-3.5-41.8 34.2-113 10.4-18.4 15-26.4 18-45.6 5-.4 23-3 26.3-3.7-15 50.5-35.3 96.3-38.3 144z"/></g><g><path fill="#2E2116" d="M711.8 1507c-17.4-46.2-9.8-80.7-13.3-150-5-106.6-30-93.4-87.5-97.7-89-6.3-120-47.6-185.7-47.6-35.7 0-77.2 16.2-109.6 44.3-25.5 175 10.7 160.6-27.2 249-23.8-25-27.2-63.8-45-114.8-14-42-10.6-44-26.4-64.6 10.3 1.8 11.2 1.8 15.4 1.8-8-17.5-18-48-21.7-61.7 9.3-4.6 19.5-15.8 26-23.8-3.7-8.6-6.8-18.4-8.6-27 .7 0 2-.7 2-.7 23.3-9 28-63.3 44.2-77.4 7.6-7.3 15.2-10.3 22.2-13.6.7-7.7 1-9.3 2-14.5 37.7-10.3 49-4.7 102.8-19.7 18-5 30.7-8.4 69.4-7.2 14 7.3 64.6 42.2 102.7 6.5 29.5 18.3 55 20.4 91 41.2 61.2 35.7 69.3 61 66 119 42 56 32.7 123.2 14.5 190.4-11.5 41.3-22.6 55-33.2 68h.2z"/><path fill="#0F0904" d="M711 1450.6c-4-32.4 11.8-60.4 16-89-3.6 8.3-12 12-12 20 0-28 12-52 8.4-80.6-4 8-8.4 12-16.3 16.2 12-28.2 0-60.5-20-84.8 4 12 8.2 20 8.2 32.5-24.3-36.3-80.7-40.6-120.7-60.6 8 12 24.2 20 36 28-57-19.4-109.2-43.8-161.4-68 9 9 15.4 24.8 26.5 30.4 4.6 1 3.7 2 0 0-48.6-7-99-12-143.3-34 0 16 12 27.8 24 36-11.7 0-24-12-32-8.2-12 8.2 11.7 16.2 8 24.3-12 8-24.3-3.8-36.2-3.8 8 11.8 0 32.2 8 44-8-3.6-16-11.8-16-8-3.8 16-12 20-12 32.4 0 19.8 12 40.3 12 60.2 0-6.3-7.7-5-11.2-8.3 20 56 19.2 115.5 10.7 175 .4.4.4 1 1 1.3 37.7-88.4 1-74 27-249 32-28 73.6-44.2 109.7-44.2 66.4 0 97 41.2 185.8 47.6 57.4 4.2 82.5-9 87.5 97.7 3.5 69-4 103.6 13.3 150 2.5-30 11.5-57.5 11.5-84.7-4.4 7.2-8.6 15.3-12.4 27.2z"/><path fill="#1F140C" d="M740.2 1408.5c-1.3 2.6-9 3.4-9 6 0-12 14-21.3 12-41.3 0 1.8-12.7 12-14 13.6-.8 4 17.4-42.8 17.4-58.5-5.8 9.8-11 9.8-11 18v-55.7c0 8-8 20-8 28 3.7-30.2-13.6-65-17.6-94.8-2 7.2-5.8 15.8-2.8 21.6-12-16.2-8-44.2-28-56.5-3.8 8-3.8 16-8 24-12-16-28-28-36.2-44v19.8c-20-16-48.4-24-60.4-48.4v27.8c-16-3.7-42-18.7-50-30.6 0 12 14 30.6 14 42.6-33.2-15.7-57-39.6-89.3-55.8 0 8 8 16 3.7 24-16-8-47.5-8-55.6-24 0 11.8 12.3 24 12.3 36-35.5-4.2-43.7-15.3-76.8-30.5-3.8 8-8.5 18.5-12.4 26.6-8-8-12-16-24-16 0 11.7 11.6 28 3.6 40.3-3.7 3.6-20-12.2-20-8.2-8 16 0 40.4-8 56.5 0 3.7-11.8-8-20-3.7 15.8 23 4.6 50.5 14.8 74.3.6.8 1 1.5 1 2.4-.4-1-1-1.8-1-2.5-5-10-19.4-10.8-22.8-21.8 0 29.4 16.6 55.7 23 84.3 2 1.2 3 3.3 1.3 8.5l-1.7-8.4c-3-1.8-8-1.3-10.7-4 19.3 38.5 25 103.5 32 146.8 14.5-62 6.8-126.7-10.6-175-1-1-1.3-2.2-1.3-3.5l1.4 3.3c3 3.5 11 2.2 11 8.6 0-20-12-40.4-12-60.4 0-12 8.2-16.2 12-32.3 0-3.7 8 3.7 16 8-8-12 0-32.3-8-44.2 12 0 24.3 12 36.2 3.8 4-8-20-16-8-24 8-4 20 8 32.3 8-12-8-24.4-20-24.4-36 43.8 21 94.4 26 143 33-11.2-6-18-21.3-26.5-30.2 52.4 24.2 104.7 48.5 161.2 68.5-12-8-28-16-36-28 40.3 20 96.8 24 120.5 60.4 0-12-3.7-20-8-32.4 20 24 32.5 56.5 20 84.5 8-3.7 12-8 16.2-16 3.6 28-8.2 52-8.2 80.5 0-8 8-12 12-20-3.8 28-20 56.6-16.2 89 4-12 8-20 12-28 0 27-8.5 54.7-11.6 84.5 3.5-3.7 6.5-8 10-12.8.4-30.2 12.3-54.8 19.5-86.3h-.3z"/><path fill="#2E2116" d="M473.7 1194c-4.6.3-9.7 1-20-.5-27.2-3.7-115.2-7.3-120.3-35 4.3 13.7 29.7 17.5 49.3 21 0 0 13.6 2.7 35.2 5.2 40 4.6 31.4 8 55.6 9.2zm92 22c-96.6-41.7-90-37-112.4-51.4 29.7 24.7 39.6 25.2 91 48.5 23.8 10.7 28.5 10.3 60.8 18-22-9-25-8.6-39.4-15zm10.4-12c40 32.8 89 24.7 120 60.3-24.6-39.4-80-35.6-120-60.2zM340 1190c-10.5-3.4-16-1.6-21.3 2 17-8.5 35 11.6 55.4 5.7-9.4 1.2-34.2-7-34.2-7.8zm-11.4 27c-9.2-3.2-20.8-8.3-29-7.8-4.2 0-5 2-5 2 3.8-4.5 22.5 4.4 34 6.6 3 .8 5.6.3 5.6.3s-2.6-.4-5.6-1.3v.2zm-46 47c3-7.7 6-15.3 5-22-.4-2.6-1.2-3.8-1.2-3.8 1.7 8-1.3 12.7-6.8 24.5-12.3 26 3.7 46.3 9.8 74-2.2-31.4-17-45.3-6.8-72.6zm437.8 41.8c1.2 8.8 1 14.3-.4 28.3 0 0-3 23.5-8.6 46 8.6-19.4 15.3-52.7 9-74.3zm6.3 62.3c-14 38-16 52-18.2 81.6 14.8-69.2 7.7-34.3 18.2-81.5z"/><path fill="#3D2F23" d="M561.3 1113c-24.6 4-50.5 7-97-21.2 44.7 20.4 66.4 22.6 97 21.3zm54.4 8.2c-24.7-9-26-19-44.7-25 16.7 7.4 16.7 17.3 38.7 27.2 10.7 5 47.6 15 70 30-19.8-17.6-33-20.7-64-32.2zm-273-9c46.8 1 54.2-11 108-17-48.4-.8-53.5 10.7-107.8 17h-.2zm121.7 1c18.7 2 46 19 54.3 38-5.8-21.2-32.7-37.8-54.3-38.3v.2zm105 6.3c18.7 9.8 25.4 31 48.4 35.2-22.5-7.4-27-27.2-48.4-35.2zm-32.4 4c4.8 8 12 16.5 30.2 27.8-21.3-17.4-25-21.3-30-28h-.2zm93.5 19c20.4 2.5 42 23 44.2 45.3 1.3-22-18.7-45-44-45.4h-.2zm70.2 34.4c-9.3-12.2-17.4-15-21.7-16.3 6 3 12 6.7 19.6 17.8 0 0 14 18.3 19.7 38.7-4-24.7-17.6-40.4-17.6-40.4zm-383.4-57.5c1-1.7 21.3 7.7 23 8 5 2.2 29.6 12 38.2 13.4-3.7-1.4-60.7-26-61-21.4h-.2zm-34 25c2.6 3.5 6 9 8 13.2 0 0 1.4 2 2.2 4.3 1.3 2 2 4.2 2 4.2 3 6.3 4 10.2 4.5 14.4 1-12-9.3-28.4-16.7-36zm-12.3 12c-10.2 24.6-10.2 39 0 64.6-6-25.3-7.2-37.3 0-64.4z"/><path d="M732.2 1248.3c1-14 1.3-23 0-37-4.7-40.8-29-60.8-66.7-82.8-37-20.8-62.5-23.4-92-41.7-37.2 36.7-88.3.8-102-6-67.4-3-57.2 10.3-131.7 19.2-27.6 3-39 7-39 7-1 .2-2.2.2-3 .8-1 3.7-1.7 6.3-2.5 14.8-6 3.4-14 6.3-22.3 13.5-16 14.6-20.7 69.4-43.7 78.4-.4 0-1.6 1-2 1 1.6 8.2 4.5 19 8.4 27-6.5 8.2-17 19.7-26 23.5 2.2 8 13.3 43.2 21.4 61-4.2 0-8-.8-16.6-2 18 22.5 13.3 23 28 66.8 18 52 21 91 46.4 116.5 22.6-43 21-63 21-78.2.3-21.2-10-74.3 7.5-172.6 37.5-32.7 90-51.5 140.3-40 52.2 11.7 78.7 38.6 153 43.7 57.8 4.3 81.2-9 86.7 96.5 3.3 70-4.8 105 14 152.2 10.6-13.2 23-26 35-70.6 18-65.3 28.3-133.2-14.2-190.6h.2zm14.8 157.2c-14 66.7-22 79-36.5 100.8-11.4-35.6-8.3-70.4-7-107 5.8-158.2-34-140.3-92.4-144.5-71.2-4.7-99-32-152-42.6-48.2-10.6-101.6 2.6-146.3 44.7-24 109.2 2.6 167.3-19 222.6-4.7 12-1.8 14.8-5.2 23.3-18.7-28-23.8-68-29.6-88-19.4-49-19-65-39.8-88.4 5 1.2 12 1.7 17 1-1.2-4-18.2-50.3-23.3-61.8 9.7-4.7 19-15.3 25.3-23.4-5-16.4 1.4 7.7-8.3-26.6 29.6-9 26.8-65 57-85.5 3.6-2.8 7.5-4.8 11.4-7.4.8-7.7.3-3 2-14.5 35.2-7.2 50 0 101.6-16.2 39-9.2 67-9.2 71-8.3 24.5 15.6 39 24 67.8 22 13.2-1.3 24-7.6 33.2-17 16 12.3 34 19.5 56.5 29.6 89.6 41.3 97.8 74.5 97.8 129.7 5.5 8 11.8 20.3 14.8 29 18.4 45 12.4 89.2 4 128.3z"/></g></g></svg>