<svg xmlns="http://www.w3.org/2000/svg" width="1350" height="1350" viewBox="0 0 1350 1350"><path fill="#EEE" d="M0 0h1350v1350H0z"/><path fill="#F0C7B1" d="M1091.7 1182.6c-9.6-20.6-35.8-51.4-64.7-59.7-35.8-10.6-116.6-23-147-30.4-23.7-5.5-72.4-49-89.4-63.8-3.2-2.7-5.5-7.8-5.5-12-.3-47.2 18.5-173 18.5-173H549.8s18.7 125.8 18.2 173c0 4.2-2.7 9.3-5.5 12-17 14.7-65.6 58.3-89.5 63.8-29.8 7-111 20.2-147 30.8-28.8 8.3-55 38.5-64.6 59.2-16 35-19.7 97.8-19.7 152.4H1112c0-54.6-3.7-117.5-20.3-152.4z"/><path fill="#FFE4D6" d="M934.3 1114.2c106 15.6 150.6 38 164.3 220.8h13.3c0-54.2-3.7-117.5-19.8-152.4-9.6-20.7-35.8-51.4-64.7-59.7-35.8-10.6-116.6-23-147-30.4-23.8-5.5-79.3-52.3-94-71 14.7 20.5 55.5 67.8 91.8 80.2 17 6 31.2 8.7 56 12.4zm-458.5-12.4c35.8-12.4 77-59.6 91.8-80.3-14.7 18.8-70.3 65.6-94 71-30 7-111.2 20.3-147 31-29 8.2-55 38.4-64.7 59-16.2 35-20 98-20 152.5h13.4c13.8-181.8 58.8-205.2 164.4-220.8 24.3-3.7 38.5-6.4 56-12.4z"/><path fill="#E1AC8F" d="M658 1173s-22-7-30.8-10.6c-45.4-17.4-193.2-29-193.2-29s155.6 6 190 12c-1.8-20.6-13.3-87.2-13.3-87.2s22.5 73 28 91.8c2.8 10.6 19.3 23 19.3 23zm46.8-5.5l-1.4 1.3c.5-1 1-1 1.4-1.3zM658 1173s12.4 12.8 18.8 13.3c8.3 0 21-12.4 26.6-18-5.5 4.2-18 6-23 6.5-6 0-22.4-1.8-22.4-1.8zm91.3-32.6c-7 1-19.2 3.2-19.2 3.2l10-64.7c-2.6 13.2-19 70.6-35.2 88 8.3-7 26.6-10.6 36.3-12 44.6-6.4 44.6-6.4 178.6-21.5 0 .4-126.2 0-170.3 7z"/><path fill="none" stroke="#C27B55" stroke-width="1.4" d="M1091.7 1182.6c-9.6-20.6-35.8-51.4-64.7-59.7-35.8-10.6-116.6-23-147-30.4-23.7-5.5-72.4-49-89.4-63.8-3.2-2.7-5.5-7.8-5.5-12-.3-47.2 18.5-173 18.5-173H549.8s18.7 125.8 18.2 173c0 4.2-2.7 9.3-5.5 12-17 14.7-65.6 58.3-89.5 63.8-29.8 7-111 20.2-147 30.8-28.8 8.3-55 38.5-64.6 59.2-16 35-19.7 97.8-19.7 152.4H1112c0-54.6-3.7-117.5-20.3-152.4z"/><path fill="#0C2B2D" d="M225.6 1341c-12.8-105.6 35-204.8 150-237.8 34-9.6 25-14.7 30-14.7v-2.7c.4-35 39.4-28 50.4-30.3 44-9.2 59.2-55.6 109.3-43.6 1.3 10.4.4 22.8-6 67.8 47.3 102 98.7 93.2 117 150.5 16.6-51 75.3-59.2 119-150.5-2.8-25.7-9.3-48.2-6.5-69.3h.5c33.5-11 48.2 3.6 62 17 40.8 39.4 62.3 14.6 83 32.5 8.3 7.4 11 17.5 11 28.5 93.2 13.3 200 43 178.6 250.2l.3.4c-94.5-.3-632 23.5-898.7 2z"/><path fill="#344242" d="M677.7 1225.8c18.4-46.4 74-57 115.7-142.3.4-.5 1.4-2.8 2.7-5.5-.8-8-1.7-16.6-5-25.3-2.2-14.7-4-28.5-2.7-41.3 8.8 2.3 16.6 5.5 22.5 11.5 8.3 8.6 2 24.2-6 39.3-14.6 63.8-51.3 110.2-127 163.5zm300.7-47.3c12.8 45 21 117 11 163 8.7 0 11.5-.5 19.7-.5 3.3-48.2-5.4-125-30.6-162.5zm-138.2 8.2c-55.5 32.6-111.5 45-162.5 88.2-50.5-43.3-107.4-50.6-163-83.2-25.6-10-64.6-46.4-88.5-72 75.3 114.2 129.4 81.6 249.7 158.7 120.6-77 174.8-51 250-165.2-23.4 25.7-60 63.3-85.8 73.4zM676 1231.3c-18.5-46.4-71.7-62.5-113.5-147.8-.4-.5-1.4-2.8-2.7-5.5.4-8-1-16.6 2.7-25.8 2.3-14.6 3.2-26.6 1.8-40-8.7 2.4-13.3 4.2-18.8 10.2-8.2 8.7-1.8 24.3 6 39.5 14.2 64 49 116 124.4 169.3zm-316.4-58c-18.8 41-18.8 119.5-15 167.7 7.7 0 11 .4 19.6.4-10.5-46-7.8-122-4.6-168zm316.7 66.7c71.2-21.6 147.4-60.6 210.3-156-57 76.6-141.4 122-208.4 150-69.3-25.2-152-74.8-200-141.8 56.3 92.2 127 126.2 198 147.8z"/><path fill="#364444" d="M1124 1338.7h-2c-1.8-211.6-119.8-220-185-233.7-10 0-15.5-28.4-23-35.8-6.3-6.4-55.4-6.4-71-48.6 2.7 2.3 5 4.6 7.3 7 41 39.3 62.4 14.5 83 32.5 8.3 7.4 11 17.5 11 28.5 93.7 13.3 200.2 42.7 179.6 250.2zm-899.8 5h2c20.5-168 69.6-221.2 189.4-241 15.2-5.5 7-16.5 14.7-24.3 6.4-6.4 41.8-6.4 91-58.3-3 2.4-13.4 4.7-15.7 7-41 39.5-71.6 28.5-83 32.6-14 5-16 17.4-16 28.5-93.3 13.8-192.5 65.2-182.4 255.7z"/><path fill="#091616" d="M945.3 1087.6c0-42.7-40.4-34.4-58.7-38.6-41-8.7-39.5-56-98.3-39-2.3 20.2 2.3 38 6.5 69.8-43.2 90.4-102.4 100.5-118.5 149.2-17.4-53.7-69.7-48.7-116.5-148.8 6.4-47.2 7.3-58.2 6-68.8-44.6-10-54.7 18.8-95 38-24.4 11.6-31.8 1-52.4 11.6-8.7 4-13.3 15.6-13 25.2v2c-5 .3 2.4.3-31.5 5.8-110.3 18-159.4 111-148 247.4 52 0 4.7 19.3 797-.4 36.6-1 99-2 101.8-2 23.4-202.3-79-235.8-179.5-251.4zm-719.2 253c11-156.6 35-217.7 178.6-249.3 78 130 174 111 270.8 183.6-87.6-73-180-63.5-268-185.6-1-10 4-21.5 15.6-25.7 7.8-3.2 16-2.3 24.3-2.3 30.8.5 54.6-23.8 77.6-41.7 11-7.4 27-7.8 39.8-5.6 1 17-5.5 42.4-7.8 60.3-4.6-10-8.7-20.2-13.3-30.8C598 1202.8 652 1167 676.3 1233c-5-1.3-91.3-32.5-160-101-14.8-14.6-43.8-46.2-46-49 85.3 115.2 139.5 121.2 206 151l.5 1c.5 0 .5-.5 1-.5h.4c9.2-4.6 69.7-25.7 116-57.4 47.8-32.5 102-103.6 98-98.6-79.5 80.8-92 99.2-214 155.2h-.5c0-.5-.4-1-.4-2 0-.3 0-.3.4-.8 21.6-59.2 85-36.3 137.3-198.3-5.5 13.8-11 27.5-17.5 41.3-1.8-23.8-8.7-42.2-8.2-62 9-3.2 33.5-4.5 40.4 2.3 28.4 24.5 30.7 42.4 77 42.4 14.8 0 34.5 1.8 36.3 29.4-2.7 4-23 28-42.2 46.8-67 67-127 68-220.3 139 2.3 0 7-5 8.7-6 72.5-51.3 124.8-51 192-105.5 30.6-25 60.4-65.5 63.7-70.6h.3c122.6 21 184 67.5 177.2 248.3-550-2.7-624.7 12-896.4 2.8z"/><g><path fill="#F0C7B1" stroke="#C27B55" stroke-width="1.4" d="M447.3 668c-4-11-35.3-26-48.6-23.8-15.7 2.8-21.2 18.8-19 30.8 4.7 28 17.6 40 23 62 4.7 18.7 15.2 29.3 19.8 37 6 9.7 12 32.2 13.3 35.4 2 5 9.2 17.5 21.6 17 14.7-1 33-29 33-35.3 1.4-34-32.5-95-43-123z"/><path fill="#C27B55" d="M450.5 783.3s2-4.6-.4-8.7c-2.7-5.6-10.5-15.2-12.3-21.2-1.4-4.5-1-15-1-20.2-.4-8.7-6.4-14.6-8.2-19.7-13-34-29.4-55-39-59.2-7 17.4-1.4 29.8 8.2 57-6-36.3-.4-47.8-.4-47.8s17.4 15 26 48.6c1.5 6-5 19-3.5 25 1.3 7.7 18.3 22.4 23 28.8 3.6 4.6 7.7 17.5 7.7 17.5z"/><path fill="#F0C7B1" stroke="#C27B55" stroke-width="1.4" d="M905.4 668c4-11 35.3-26 48.6-23.8 15.6 2.8 21.2 18.8 19 30.8-4.7 28-17.6 40-23 62-4.7 18.7-15.2 29.3-19.8 37-6 9.7-12 32.2-13.3 35.4-2 5-9.3 17.5-21.7 17-14.7-1-33-29-33-35.3-2-34 32-95 43-123z"/><path fill="#C27B55" d="M902.2 783.3s-2-4.6.4-8.7c2.8-5.6 10.6-15.2 12.4-21.2 1.4-4.5 1-15 1-20.2.4-8.7 6.4-14.6 8.2-19.7 13-34 29.4-55 39-59.2 7 17.4 1.4 29.8-8.2 57 6-36.3.4-47.8.4-47.8s-17.4 15-26 48.6c-1.5 6 5 19 3.5 25-1.4 7.7-18.4 22.4-23 28.8-4.2 4.6-7.8 17.5-7.8 17.5z"/><path fill="#F0C7B1" d="M676.8 317c-146.4.4-265.3 120.6-264.8 268.4 0 23.5 3.2 46.4 8.7 68 0 .4 50 168 61 223 6 30.8 39.5 68 72 91 30.4 21 49.2 50.4 123 50.4 74 0 92.8-29.4 123-50.5 32.7-22.5 66.2-60 72.2-90.8 10.4-55 61-222.7 61-223 5.4-21.7 8.7-44.6 8.7-68 0-148-118.5-268-265-268.6z"/><path fill="#E8B9A0" d="M880 413.8c32.7 45 52 101 52 162 0 23.4-2.7 46.4-8.3 68 0 .4-48 168-58.7 223-6 30.8-38 68-69.3 91-29.4 21-47.3 50.4-119 50.4-71.5 0-89.4-29.4-118.8-50.5-31.3-22.5-63.4-60-69.4-91-10.5-55-58.7-222.5-58.7-223-5.7-21.5-8.4-44.5-8.4-68 0-61 19.3-117 52-162-38.7 46.4-61.6 106.6-61.6 171.7 0 23.5 3.2 46.4 8.7 68 0 .4 50 168 61 223 6 30.8 39.5 68 72 91 30.4 21 49.2 50.4 123 50.4 74 0 92.8-29.4 123-50.5 32.7-22.5 66.2-60 72.2-91 10.4-55 61-222.5 61-223 5.4-21.5 8.6-44.4 8.6-68 0-65-23-125.2-61.5-171.5z"/><path fill="none" stroke="#C27B55" stroke-width="1.4" d="M676.8 317c-146.4.4-265.3 120.6-264.8 268.4 0 23.5 3.2 46.4 8.7 68 0 .4 50 168 61 223 6 30.8 39.5 68 72 91 30.4 21 49.2 50.4 123 50.4 74 0 92.8-29.4 123-50.5 32.7-22.5 66.2-60 72.2-90.8 10.4-55 61-222.7 61-223 5.4-21.7 8.7-44.6 8.7-68 0-148-118.5-268-265-268.6z"/><linearGradient id="a" gradientUnits="userSpaceOnUse" x1="-548.9" y1="1506.1" x2="-548.9" y2="1503.2" gradientTransform="translate(2819.98 -4944.84) scale(3.9015)"><stop offset=".1" stop-color="#E8B9A0"/><stop offset="1" stop-color="#E1AC8F"/></linearGradient><path fill="url(#a)" d="M660.3 919l36.2-.8c-4 19.3-33.5 16.5-36.2 1z"/><path fill="#C27B55" d="M660.7 920.5c-1.8 0-1.3-2.3.5-2.3 0 0 18.8 2.3 34.4-1 2-.4 2.3 2 .5 2.4-12.3 2.3-28 1.8-35.3 1zm16.6-15.6c-6.5 0-13-2.4-19.3-3.3-7.4-1.4-14.2 0-21.6.5-7.3.4-23.4 0-27.5-2.8-2.4-1.4-2-5.5.8-6.4 2.7-1 7 1 9.6 1.3 12.4 2.3 19.3 0 30-.4 17-.6 18.2 6.3 39.3 2.2 22.5-4.6 32.6-1 48.7-6 2.3-.4 5-2.3 7.3-1.4 2.8 1.4 2.8 5 0 6.5-14.6 6.4-31.2 3.6-47.7 6.4-7 1.4-13.3 3.2-19.7 3.2z"/><radialGradient id="b" cx="-333.4" cy="1441" r="9.9" gradientTransform="matrix(-3.8262 0 0 3.8262 -711.383 -4832.83)" gradientUnits="userSpaceOnUse"><stop offset="0" stop-color="#FFF"/><stop offset=".5" stop-color="#FDFEFE"/><stop offset=".7" stop-color="#F6F8F9"/><stop offset=".9" stop-color="#EAEFF2"/><stop offset="1" stop-color="#D9E3E8"/><stop offset="1" stop-color="#D8E2E7"/></radialGradient><path fill="url(#b)" d="M507 675c-1 12 7.3 26 54 30.2 42 3.7 59.3-3.2 60.7-17 1.4-13.7-14.7-30.2-56-32.5-36.7-2-57.8 6-58.7 19.2z"/><g transform="translate(.5 .25)"><path fill="#536987" d="M591.4 679.5c0 14.2-11.5 26.2-26.2 26.2s-26-11.5-26-26.2c0-14.2 11.3-26 26-26s26.2 11.8 26.2 26z"/><radialGradient id="c" cx="-2440.5" cy="1419.5" r="57.7" gradientTransform="matrix(.3673 -.095 .0937 .3677 1328.246 -73.903)" gradientUnits="userSpaceOnUse"><stop offset="0" stop-color="#FFF"/><stop offset="1" stop-color="#FFF" stop-opacity="0"/></radialGradient><path opacity=".7" fill="url(#c)" d="M562.5 653.8s-.5 0 0 0zm0 2c.4 8.6 1 16 2.3 18.7 1-2.8-.5-10.6-2.3-18.8zm2.3 18.7c0 1-.5 1.3-1 1.3s-1 0-1.3-.4v1.8c-.5.5-1 .5-2 .5.6.4 1 1 .6 1.4 0 .5-.4 1-1.3 1 1 .4 1.4.4 1.4 1s0 .8-.4 1.3c1 0 1.4 0 2 .4s.3 1 0 2c.3-.6 1.3-.6 1.3-.6.3 0 .8.6.8 1.5.4-.5 1-1 1.3-1s1 .5 1.5 1c0-1 0-1.4.5-1.4.4-.3 1 0 1.8 0-.4-.3-.4-1.3-.4-1.7s1-.5 1.3-1c-.4-.4-1-1-1-1.3s.6-1 1-1.4c-1 0-1.3-.5-1.3-1s0-.8.4-1.8c-1 .5-1.4.5-1.8 0s-.5-1-.5-1.3c-.4.4-1 1-1.4 1-.8.3-.8 0-1.2-1zm2.7.4c2.3-2.4 4.6-9.7 7-18-4.2 7.8-7 14.7-7 18zm7-18c.4-.4.4-1 .8-1.8h-.4c-.6 1-.6 1.4-.6 1.8zm-5 19.3c2.6-1 8-6.4 14-12.8-6.3 5.5-12.3 10-14 12.8zM584 664c.5-.5 1-.5 1.4-1-1 0-1 .5-1.4 1zm-13.3 15c3.2.5 10.6-1.8 18.4-4.5-8.2 1.3-15.5 2.7-18.3 4.6zm19-4.5h1.2v-.5c-.5 0-1 0-1.4.5zm-19 7c2.8 1.7 10 3 18.4 4.4-7.7-2.8-15-4.6-18.3-4.6zm19 4.4c.3 0 .8.4 1.2.4-1 0-1.4 0-1.4-.5zm-20.3-2.3c1.3 2.7 7.3 7.3 14.2 12.8-5.5-6-11-11.5-14.2-12.8zm14.2 12.8l1 1c0-.5-.6-.5-1-1zm-16-11c0 3.2 3 10 6.8 18-2.7-8.4-5-15.7-7-18zm6.3 18c0 .3 0 .3.4.8 0-.5 0-1-.5-1zm-9.2-18c-1.4 2.7-2.3 10.5-2.3 19.3 1.4-8.8 2.7-16 2.3-19.3zm-2.3 19.3zm-.5-20.2c-2.7 1.8-6.4 8.2-11 15.6 6-6.5 10.6-12.4 11-15.6zm-10.5 16l-1 1c.5-.5.5-1 1-1zm9-18c-3 .6-9.5 4.3-16.8 9 7.8-3.4 14.6-6.6 17-9zm-16.8 9c-.5 0-1 .3-1 .3s.5 0 1-.5zm16-11.6c-2.7-1-10.5-1-19.3 0 8.8 1 16.6 1.4 19.3 0zm-19.3 0H539v.4c.5-.4 1.4-.4 1.4-.4zm20.2-2.3c-1.8-2.3-9-5.5-17-8.7 7 4 13.8 8.2 17 8.7zm-17-9.2c-.4-.5-1-.5-1.3-1v.5c.4 0 1 .5 1.4.5zm18.4 7c-1-3.3-5.5-9.3-11-15.7 4.6 7.3 8.7 13.8 11 15.6zm-10.5-15.7c-.5-.5-.5-1-1-1.4h-.4l1.5 1.4z"/><radialGradient id="d" cx="-2210.4" cy="1704.8" r="57.8" gradientTransform="matrix(.3792 .0034 -.0042 .3792 1410.357 40.776)" gradientUnits="userSpaceOnUse"><stop offset="0" stop-color="#FFF"/><stop offset="1" stop-color="#FFF" stop-opacity="0"/></radialGradient><path opacity=".4" fill="url(#d)" d="M569.4 653.8c-.5 0-.5 0 0 0-.5.5-.5 1.4-.5 2 0-.6 0-1.5.4-2zm-.5 2c-2 8-3.3 16-3 18.7 1.5-2.8 2.4-10 3-18.8zm-3 18.7c-.3.4-.8 1-1.2 1s-1-.6-1.4-1c0 1 0 1.3-.5 1.3-.5.5-1 0-2 0 .6.5.6 1.4 0 2s-.8.3-1.3.3c.5.6 1 1 1 1.5s-.5 1-1 1.4c1 0 1.4.4 1.4.8s0 1-.4 2c1-.6 1.4-.6 2 0s.3.8.3 1.2c.4-.4 1-1 1.3-1s1 .6 1.4 1.5c0-1 .4-1.4 1-1.4s.8 0 1.3.6v-2s1-.3 1.8-.3c-.4-.5-1-1-.4-1.4 0-.6.4-1 1.3-1-1-.5-1-.5-1.3-1 0-.4 0-1 .4-1.3-1 0-1.4 0-1.8-.5s-.5-1 0-1.8c-.5.4-1.4.4-1.4.4s-.5-.4-.5-1.3zm2.4 1c2.8-2 7-8.4 11-15.7-5.5 7-10 12.8-11 15.6zM580 660c.4-.4.8-1 1.3-1.3h-.5s-1 .8-1 1.2zm-9.7 17.5c3.2-.5 9.6-4 17-8.7-7.8 3.2-14.7 6.4-17 8.7zm17-8.7c.4 0 1-.5 1.3-.5v-.5c-.4.5-1 1-1.3 1zm-16.6 11.4c2.8 1.4 10.6 1 19.3.5-8.7-1-16-2-19.3-.6zm19.3.5h1.4v-.6c-.5 0-1 0-1.4.5zm-19.7 1.7c1.8 2.3 8.7 6 16.5 9.2-7-4.7-13.8-8.8-16.5-9.3zm16.5 9.2c.5.4 1 .4 1 .8 0-.4-.5-.4-1-1zm-18.4-7.4c.5 3.2 5 9.2 10.6 16-4-7.3-8.3-14.2-10.6-16zm10.6 16c0 .5.5.5.5 1 0 0-.5-.5-.5-1zm-13.3-15c-1 3 .4 10.4 1.8 18.7 0-8.3-.4-16-1.8-18.8zm1.8 19.2v1c.5-.6 0-.6 0-1zm-4.6-19.3c-2.4 2.3-4.7 9.6-7.4 18 4-8.4 7.3-15.3 7.3-18zm-7 17.4c0 .4-.4.4-.4.8 0 0 .4-.4.4-1zm5-19.3c-2.7 1-8.6 6.4-14.6 12.3 7-5 13-9.6 14.7-12.3zM546.5 696c-.5 0-.5.5-1 .5.5 0 .5 0 1-.5zm13.3-14.6c-3.2-.5-10.5 1.3-18.8 4 8.6-1.3 16-2.2 18.7-4zm-18.8 4h-1.5c1 .5 1.4 0 1.4 0zm18.7-6.8c-2.7-1.8-10-3.7-18.3-5 8.2 3.2 15 5.5 18.3 5zm-18.3-5c-.5 0-1-.5-1.4-.5v.6h1.4zm19.7 2.7c-1.3-2.7-7.2-7.8-14-12.8 5.8 6.4 11.3 11.4 14 12.8zm-13.7-12.8c-.4-.5-1-1-1-1.4 0 .5.6 1 1 1.5zm16 11.4c0-3.3-2.7-10.2-6.3-18 2.3 8.3 4.6 15.6 6.4 18zm-6.3-18c0-.4-.5-1-.5-1.8h-.5c.5.5 1 1 1 1.8z"/><path fill="#536987" d="M575.8 679.5c0 5.5-4.6 10-10 10s-10.2-4.5-10.2-10 4.6-10 10-10 10.2 4.5 10.2 10z"/><path opacity=".9" d="M575.8 679.5c0 5.5-4.6 10-10 10s-10.2-4.5-10.2-10 4.6-10 10-10 10.2 4.5 10.2 10z"/><linearGradient id="e" gradientUnits="userSpaceOnUse" x1="-522.9" y1="1446.1" x2="-522" y2="1445.1" gradientTransform="translate(2590.897 -4943.947) scale(3.9015)"><stop offset="0" stop-color="#FFF"/><stop offset="1" stop-color="#FFF" stop-opacity="0"/></linearGradient><path opacity=".5" fill="url(#e)" d="M551 691.5c1.8-1.4 4.6-1 6 1.3 1.3 2 1 4.6-1.4 6-1.8 1.4-4.6 1-6-1.4-1-1.8-.4-4.6 1.4-6z"/><linearGradient id="f" gradientUnits="userSpaceOnUse" x1="-517.8" y1="1439.5" x2="-518.5" y2="1440.3" gradientTransform="translate(2590.897 -4943.947) scale(3.9015)"><stop offset="0" stop-color="#FFF"/><stop offset="1" stop-color="#FFF" stop-opacity="0"/></linearGradient><path opacity=".5" fill="url(#f)" d="M573.5 678c-1 2-4 1.5-7-.3s-4-4.6-3-6.4c.8-2 4-1.4 6.8.4s4 5 3.2 6.4z"/><linearGradient id="g" gradientUnits="userSpaceOnUse" x1="-515.1" y1="1436.7" x2="-516.8" y2="1438.7" gradientTransform="translate(2590.897 -4943.947) scale(3.9015)"><stop offset="0" stop-color="#FFF"/><stop offset="1" stop-color="#FFF" stop-opacity="0"/></linearGradient><path opacity=".8" fill="url(#g)" d="M586 674c-2.4 3.7-8.8 4-14.3.5s-7.8-9.7-5.6-13.3c2.4-3.7 9-4.2 14.4-.5 5.5 3.7 7.8 9.2 5.5 13.3z"/></g><radialGradient id="h" cx="-523.6" cy="1198.7" r="17.1" fx="-511.6" fy="1198.8" gradientTransform="matrix(3.8258 .0796 .0635 -3.0606 2500.56 4388.217)" gradientUnits="userSpaceOnUse"><stop offset="0" stop-color="#E1AC8F"/><stop offset=".7" stop-color="#E1AC8F" stop-opacity=".3"/><stop offset="1" stop-color="#F0C7B1" stop-opacity="0"/></radialGradient><path fill="url(#h)" d="M493.2 684c2.8 33.6 44.5 58 86.3 54.3 41.8-3.7 76.2-29.4 73.4-63-3.3-33.4-39.5-57.3-81.3-53.6s-82.2 16.5-78.5 62.4zm13.8-9c1-13.8 22-21.2 58.7-19.3 41.3 2.3 57.4 18.8 56 32.6-1.4 13.7-18.8 20.6-60.6 17-46.7-3.7-55-18-54-30.4z"/><path fill="#C27B55" d="M614 659.3c-4.7-2.7-14.3-6.8-14.3-6.8s11 2.7 15.6 5.5c4.6 2.7 9.2 10 9.2 10s-6-6-10.6-8.7zm-81-10.5s-11.3 0-19.6 5c-7.3 4.6-10.6 11.5-10.6 11.5s7.4-7.3 12.4-11c4.6-2.8 18-5.5 18-5.5z"/><path d="M567 656.6c-26.5-1-67.8 1.8-58.2 27-13.8-8.2-3.2-38.5 61-33 31.3 2.8 68 18.8 51 42.7 5-25.2-27.5-35.8-53.7-36.7zm47.4 44L601 705c-23 .4-35.7-1.4-57.3-2.3-10-.5-18.8-5.5-30.3-10.6 7 7.3 18 13.2 30.3 14.2 20.6 1.3 35 1.3 58.3 1.8l12.4-7.3z"/><radialGradient id="i" cx="-525.4" cy="1441" r="9.9" gradientTransform="translate(2799.4 -4832.83) scale(3.8262)" gradientUnits="userSpaceOnUse"><stop offset="0" stop-color="#FFF"/><stop offset=".5" stop-color="#FDFEFE"/><stop offset=".7" stop-color="#F6F8F9"/><stop offset=".9" stop-color="#EAEFF2"/><stop offset="1" stop-color="#D9E3E8"/><stop offset="1" stop-color="#D8E2E7"/></radialGradient><path fill="url(#i)" d="M846.6 675c1 12-7.3 26-54 30.2-42 3.7-59.3-3.2-60.7-17-1.5-13.7 14.6-30.2 56-32.5 36.6-2 57.7 6 58.6 19.2z"/><g transform="translate(-.5 .25)"><path fill="#536987" d="M814.5 679.5c0 14.2-11.4 26.2-26 26.2-14.3 0-26.3-11.5-26.3-26.2 0-14.2 11.5-26 26.2-26 14.2 0 26 11.8 26 26z"/><radialGradient id="j" cx="-2456.2" cy="1414.5" r="57.8" gradientTransform="matrix(.3673 -.095 .0937 .3677 1557.36 -73.523)" gradientUnits="userSpaceOnUse"><stop offset="0" stop-color="#FFF"/><stop offset="1" stop-color="#FFF" stop-opacity="0"/></radialGradient><path opacity=".7" fill="url(#j)" d="M785.2 653.8zm0 2c.4 8.6 1 16 2.3 18.7 1-2.8-.5-10.6-2.3-18.8zm2.3 18.7c0 1-.5 1.3-1 1.3-.4 0-1 0-1.3-.4v1.8c-.5.5-1 .5-2 .5.6.4 1 1 .6 1.4 0 .5-.5 1-1.4 1 .5.4 1.4.4 1.4 1s0 .8-.5 1.3c1 0 1.4 0 2 .4s.3 1 0 2c.3-.6 1.2-.6 1.2-.6.5 0 1 .6 1 1.5.4-.5 1-1 1.3-1s1 .5 1.4 1c0-1 0-1.4.5-1.4.4-.3 1 0 1.8 0-.4-.3-.4-1.3-.4-1.7s1-.5 1.4-1c-.4-.4-1-1-1-1.3s.6-1 1-1.4c-1 0-1.3-.5-1.3-1s0-.8.5-1.8c-1 .5-1.4.5-1.8 0s-.5-1-.5-1.3c-.4.4-1 1-1.4 1-.4.3-1 0-1.3-1zm2.7.4c2.3-2.4 4.6-9.7 7-18-3.8 7.8-7 14.7-7 18zm7-18c.4-.4.4-1 .8-1.8h-.4c0 1-.5 1.4-.5 1.8zm-4.7 19.3c2.8-1 8.3-6.4 14.2-12.8-6.8 5.5-12.8 10-14.2 12.8zm14.2-12.4c.5-.5 1-.5 1.4-1-.3 0-.8.5-1.3 1zM794 679c3 .5 10.4-1.8 18.2-4.5-8.2 1.3-16 2.7-18.3 4.6zm18.3-4.5h1.3v-.5c-.4 0-1 0-1.3.5zm-18.4 7c2.6 1.7 10 3 18.2 4.4-8.2-2.8-15.6-4.6-18.3-4.6zm18.3 4.4c.4 0 1 .4 1.3.4-.4 0-1 0-1.3-.5zm-19.8-2.3c1.4 2.7 7.4 7.3 14.2 12.8-6-6-11.4-11.5-14.2-12.8zm14.2 12.8l1 1-1-1zm-16.5-11c0 3.2 3.2 10 7 18-2.4-8.4-4.7-15.7-7-18zm7 18c0 .3 0 .3.4.8-.5-.5-.5-1-.5-1zm-9.7-18c-1.4 2.7-2 10.5-2.3 18.8 1.8-8.3 3.2-15.6 2.3-18.8zm-2.3 19.3zm0-20.2c-2.8 1.8-6.5 8.2-11 15.6 5.5-6.5 10-12.4 11-15.6zm-11 16c0 .5-.5.5-1 1l1-1zm9-18c-3 .6-9.5 4.3-16.8 9 7.8-3.4 14.6-6.6 17-9zm-17 9c-.3 0-.8.3-.8.3.5 0 .5 0 1-.5zM783 680c-3-1-10.7-1-19.4 0 8.7 1 16 1.4 19.3 0zm-19.4 0h-1.4v.4c.5-.4 1-.4 1.4-.4zm19.7-2.3c-1.8-2.3-9-5.5-17-8.7 7.4 4 13.8 8.2 17 8.7zm-17-9.2c-.4-.5-1-.5-1.3-1v.5c.4 0 1 .5 1.4.5zm19 7c-1-3.3-5.6-9.3-11-15.7 4.4 7.3 8 13.8 11 15.6zm-11-15.7c-.6-.5-.6-1-1-1.4h-.5c1 .5 1.4 1 1.4 1.4z"/><radialGradient id="k" cx="-2226.6" cy="1705" r="57.8" gradientTransform="matrix(.3792 .0034 -.0042 .3792 1639.424 40.764)" gradientUnits="userSpaceOnUse"><stop offset="0" stop-color="#FFF"/><stop offset="1" stop-color="#FFF" stop-opacity="0"/></radialGradient><path opacity=".4" fill="url(#k)" d="M792 653.8c-.4.5-.4 1.4-.4 2 0-.6.5-1.5.5-2zm-.4 2c-1.8 8-3.2 16-2.8 18.7 2-2.8 2.3-10 2.8-18.8zm-2.8 18.7c-.4.4-1 1-1.3 1s-1-.6-1.4-1c0 1 0 1.3-.4 1.3-.4.5-1 0-1.8 0 .5.5.5 1.4 0 2s-1 .3-1.4.3c.5.6 1 1 1 1.5s-.5 1-1 1.4c1 0 1.4.4 1.4.8s0 1-.5 2c1-.6 1.4-.6 2 0s.3.8.3 1.2c.5-.4 1-1 1.4-1s1 .6 1.4 1.5c0-1 .4-1.4 1-1.4s.8 0 1.3.6v-2c.4-.3 1-.3 1.8-.3-.4-.5-1-1-.4-1.4 0-.6.5-1 1.4-1-1-.5-1-.5-1.3-1 0-.4 0-1 .5-1.3-1 0-1.4 0-1.8-.5s-.5-1 0-1.8c-.5.4-1.4.4-1.4.4s0-.4-.5-1.3zm2.8 1c2.8-2 7-8.4 11-15.7-5.5 7-10.5 12.8-11 15.6zm11-15.3l1.4-1.3h-.5s-.4.8-1 1.2zm-9.6 17.5c3.2-.5 9.6-4 17-8.7-7.8 3.2-14.7 6.4-17 8.7zm17.4-8.7c.5 0 1-.5 1.4-.5v-.5c-.5.5-1 1-1.4 1zM794 680.4c2.6 1.4 10.4 1 19.2.5-8.8-1-16.6-2-19.3-.6zm18.7.5h1.4v-.6c-.4 0-.8 0-1.3.5zm-19.7 1.7c1.8 2.3 8.7 6 16.5 9.2-7-4.7-13.3-8.8-16.5-9.3zm16.5 9.2c.5.4 1 .4 1 .8 0-.4-.5-.4-1-1zm-18.4-7.4c.6 3.2 5.2 9.2 10.7 16-4-7.3-7.8-14.2-10.6-16zm10.7 16c0 .5.5.5.5 1 0 0-.5-.5-.5-1zm-13-15c-.8 3 .6 10.4 2 18.7-.5-8.3-.5-16-2-18.8zm2 19.2zm-4.6-19.3c-2.2 2.3-4.5 9.6-7.3 18 4.2-8.4 7.4-15.3 7.4-18zm-7.3 17.4c0 .4-.4.4-.4.8.4 0 .4-.4.4-1zm5-19.3c-2.7 1-8.6 6.4-14.6 12.3 7.4-5 13.4-9.6 14.8-12.3zM769.2 696c-.4 0-.4.5-.8.5.4 0 1 0 1-.5zm14-14.6c-3.3-.5-10.7 1.3-19 4 8.3-1.3 16-2.2 19-4zm-19 4h-1.3c.4.5 1 0 1.4 0zm19-6.8c-3-1.8-10.2-3.7-18.5-5 7.8 3.2 15.2 5.5 18.4 5zm-18.5-5c-.4 0-1-.5-1.4-.5v.6h1.5zm19.8 2.7c-1.4-2.7-7.4-7.8-14.3-12.8 6 6.4 11 11.4 14.3 12.8zM770 663.5c-.4-.5-1-1-1-1.4 0 .5.6 1 1 1.5zm16 11.4c0-3.3-2.7-10.2-6.3-18 2.3 8.3 4.6 15.6 6.4 18zm-6-18c0-.4-.3-1-.3-1.8h-.5c0 .5.5 1 1 1.8z"/><path fill="#536987" d="M798.5 679.5c0 5.5-4.6 10-10 10-5.6 0-10.2-4.5-10.2-10s4.6-10 10-10c5.6 0 10.2 4.5 10.2 10z"/><path opacity=".9" d="M798.5 679.5c0 5.5-4.6 10-10 10-5.6 0-10.2-4.5-10.2-10s4.6-10 10-10c5.6 0 10.2 4.5 10.2 10z"/><linearGradient id="l" gradientUnits="userSpaceOnUse" x1="-522" y1="1446.2" x2="-521.1" y2="1445.1" gradientTransform="translate(2810.382 -4943.947) scale(3.9015)"><stop offset="0" stop-color="#FFF"/><stop offset="1" stop-color="#FFF" stop-opacity="0"/></linearGradient><path opacity=".5" fill="url(#l)" d="M774.2 691.5c1.8-1.4 4.5-1 6 1.3 1.3 2 .8 4.6-1.5 6-1.8 1.4-4.5 1-6-1.4-1.3-1.8-.8-4.6 1.5-6z"/><linearGradient id="m" gradientUnits="userSpaceOnUse" x1="-517" y1="1439.5" x2="-517.7" y2="1440.3" gradientTransform="translate(2810.382 -4943.947) scale(3.9015)"><stop offset="0" stop-color="#FFF"/><stop offset="1" stop-color="#FFF" stop-opacity="0"/></linearGradient><path opacity=".5" fill="url(#m)" d="M796.2 678c-1 2-4 1.5-7-.3s-4-4.6-3-6.4c.8-2 4-1.4 6.8.4 3.2 2 4.6 5 3.2 6.4z"/><linearGradient id="n" gradientUnits="userSpaceOnUse" x1="-514.3" y1="1436.7" x2="-515.9" y2="1438.7" gradientTransform="translate(2810.382 -4943.947) scale(3.9015)"><stop offset="0" stop-color="#FFF"/><stop offset="1" stop-color="#FFF" stop-opacity="0"/></linearGradient><path opacity=".8" fill="url(#n)" d="M808.6 674c-2.3 3.7-8.7 4-14.3.5-5.5-3.7-7.8-9.7-5.5-13.3 2.3-3.7 8.8-4.2 14.3-.5 6 3.7 8.3 9.2 5.6 13.3z"/></g><radialGradient id="o" cx="-331.7" cy="1203.7" r="17.1" fx="-319.7" fy="1203.7" gradientTransform="matrix(-3.8258 .0796 -.0635 -3.0606 -412.546 4388.217)" gradientUnits="userSpaceOnUse"><stop offset="0" stop-color="#E1AC8F"/><stop offset=".7" stop-color="#E1AC8F" stop-opacity=".3"/><stop offset="1" stop-color="#F0C7B1" stop-opacity="0"/></radialGradient><path fill="url(#o)" d="M782 621.7c-42-3.7-78 20.2-81.3 53.7-3.2 33.5 31.2 58.8 73.4 63 42 3.6 84-20.8 86.4-54.3 3.7-45.8-36.7-58.6-78.5-62.3zm10.5 83.5c-41.8 3.7-59.2-3.2-60.6-17-1.5-13.7 14.6-30.2 56-32.5 36.6-2 57.7 5.5 58.6 19.2 1 12.3-7.3 26.6-54 30.2z"/><path fill="#C27B55" d="M729 668s4.7-7.3 9.3-10c4.6-3.2 15.6-5.5 15.6-5.5s-9.7 4-14.3 6.8S729 668 729 668zm109.5-13c5 3.2 12.4 11 12.4 11s-3.2-7-10.6-11.5c-8.3-5-19.7-5-19.7-5s13.3 2.2 18 5.5z"/><path d="M733.3 693.3c-17-24 19.7-40 51-42.7 64.2-5.5 74.7 24.8 61 33 9.6-25.2-31.7-28-58.3-27-26.7 1-59.2 11.5-53.7 36.7zm18.3 14.2c23.4 0 37.7-.4 58.3-1.8 12.3-1 23.3-6.4 30.2-14.2-11.5 5.5-20.6 10-30.3 10.5-21.7 1-34.5 2.8-57.5 2.3l-13.3-4 12.4 7.2z"/><g><path fill="#2A232B" d="M485.4 628.6c64.3-13.3 143.2 12 145-2.8 1-5.5-3.6-7.3-7.8-7.8-64.7-5.5-117.5-6.4-137.2 10.6z"/></g><g><path fill="#2A232B" d="M868.2 628.6c-64.3-13.3-143.2 12-145-2.8-1-5.5 3.6-7.3 7.8-7.8 64.7-5.5 117.5-6.4 137.2 10.6z"/></g><g><path fill="#E1AC8F" d="M638.2 816c-3.6 9 25.8 18.7 37.2 19 12.4.6 46.4-12.3 40.4-21.4-6-9.7-29-1.4-38.5-1.4-10 0-34-8.3-39 3.7z"/><path fill="#C27B55" d="M685 822.7c-1-3.2 8.3-6.8 11.5-7.3 4.6-1 14.7 3.7 13.8 7-1 3-9.2-2.4-12.4-2-3.3.5-12 5.6-13 2.3zm-30.2-1.3c4 0 10.5 2.7 11.5.4 1.3-2.7-9.2-6.4-12.4-6-3 .5-12 5.6-10.7 8 1.4 2.2 6-2.4 11.5-2.4z"/><path opacity=".2" fill="#FFF5EF" d="M677.3 800.7c2.7 0 7.8-3.2 7.8-9.6 1-26-4-103.7-7.7-103.2-3.2.5-9.7 76.7-8.3 103.3 0 6.5 5 9.7 8.3 9.7z"/></g><g><path fill="#35291F" d="M556.5 1010.5c-25.2-16-57.3-48.2-69.3-64.3-33.5-42.7-20.2-78-37-152.8-8.4-32.6-22.6-80.4-24.5-92.3 4.2.6 25.3 3.8 29 4.2 5 41 51.4 69.8 59.2 153.8 6.7 52.8 33 78.5 75.6 104.7 18 11 52.8 29.3 61 9.6 7-16-4.5-48.2 23-53.7 6-1 18.3 1.4 23 12 7.7 17.4-4.2 50.4 20.6 50.4 25.7 0 69.8-33 82.2-44 48-39.5 32.5-87.7 54.6-140.5 25.7-57 33.5-49.6 44.5-92.7 3.2-.5 25.7-3.7 29-4C909 774.5 894.7 810.3 893 857c-3.2 69.3-24.3 91.3-71.2 134-26 22.5-58.7 45-141 48.2-23.3 1.8-90.7-7-124.3-29z"/><path fill="#261B12" d="M656.6 932.4c2.8-6.4 7.8-11.4 17-12.8 6-1 18.8 1.4 23.4 12.4 0 .4.5 1 .5 1-7.4 6.3-18.4 43.5-41-.6zm198.8-1.3c-35 62.5-98.3 97-167 97-5.6.4-15.7.4-22.2 0-69.3 0-132-34.5-167-97-40-60-32.2-135.3-64.7-197.8 5 19 12 41.8 16.5 60.2 17 74.8 3.6 110.6 37.2 153.3 12.4 16.5 44 48.2 69.3 64.2 31.6 21 93 29.8 120.2 29.3 26.6.5 88.6-8.7 120.3-29.4 25.2-16 57-47.8 69.3-64.3 33.5-42.7 20.2-78.5 37.2-153.3 5-18.4 11.5-41.3 16.5-60.2-33.5 62.5-25.7 137.7-65.6 198z"/><path fill="#070402" d="M898.5 704.8c-11 43.6-18.8 35.8-44.5 92.7-22.5 52.8-6.4 100.5-54.6 140.5-12 11-63.4 49.5-87.7 43.6-16.5-6-7.4-33.5-14.7-49.2-4.6-11-17.4-13.3-23.4-12.3-28 5.6-16.5 38.2-23.4 53.8-8.3 19.2-42.7 1-60.6-10-44-27.2-69-53.4-75.7-104.8-7.5-84.4-53.8-113.4-59-154.2l-29.7-4c1.4 11 16 59.5 24.8 93 17 74.8 3.7 110.6 37.2 153.3 12.4 16.7 44 48.3 69.4 64.4 33.5 22 101 30.7 124.3 29.4 81.6-3.2 114.7-25.7 141-48.2 47.6-43.6 67.8-65.2 71-134.5 1.8-46.7 16-82 34.4-157 .5-.3-28 3.8-29 3.8zm-12.4 152c-6 69.7-20 84.8-67.4 128-33.5 29-69.3 45.4-142.3 51-32.5-2.4-90.8-13.4-118.4-32.7-28.5-19-58-51.7-65.7-62.3C461 900.3 475.8 863 456 792c-13.3-41.3-19.7-54.2-30.3-90.4 4.2.4 14.7 2.7 28.5 4 6 46.5 46 69.4 52.8 154 1.3 10 3.2 29.7 17.4 53 7.4 12.5 16.5 23 24.8 30 24.3 22.4 105 75.7 106.5 17.8 0-15.6-2-37 20.6-40.8 38 5.5 5.5 57 34 65.6 27 7.8 118-38.5 132.2-108.8 7.3-26-3.7-45 37.2-122 11-19.8 16-28.5 19.3-49.2 5.5-.4 24.7-3.2 28.4-4-16 54.5-38 104-41.3 155.5z"/></g><g><path fill="#2E2116" d="M904 731c-18.8-50-10.5-87.3-14.2-162-5.5-115.3-32.6-101-94.6-105.6-96-7-129.4-51.5-200.6-51.5-38.5 0-83.5 17.4-118.4 47.7-27.5 189 11.5 173.5-29.4 269-25.7-27-29.3-69-48.6-124-15.2-45.4-11.5-47.7-28.5-69.7 11 1.8 12 1.8 16.6 1.8-8.8-18.8-19.3-52-23.5-66.6 10-5 21.2-17 28-25.7-4-9-7.3-19.7-9-29 .3 0 1.7-.8 1.7-.8 25.2-9.6 30.3-68.4 47.7-83.5 8.3-7.8 16.6-11 24-14.7.8-8.3 1.3-10 2.2-15.6 41-11 53.2-5.2 111-21.2 19.8-5.6 33.6-9.2 75.4-7.8 15 7.8 69.7 45.4 111 6.8 31.7 19.8 59.2 22 98.3 44.6 66.2 38.5 75 66 71.2 128.5 45.4 60.5 35.3 133 15.6 205.5-12.4 44.5-24.3 59.2-35.8 73.4z"/><path fill="#0F0904" d="M903 670c-4-35 13-65.3 17.5-96-4 8.7-12.8 12.8-12.8 21.5 0-30.3 12.8-56.4 8.7-87.2-4 8.8-8.7 13-17.4 17.5 12.8-30.3 0-65.2-21.6-91.4 4 13 8.7 21.6 8.7 35-26-39-87-43.7-130.2-65.3 8.7 13 26 21.7 39 30.4-61.5-21-118-47.2-174.4-73.4 9.6 9.6 16.5 26.6 28.4 32.6 5 1 4 2.3 0 0-52.3-7.4-107-13-154.7-36.7 0 17.3 13 30.2 26.3 39-13 0-26.2-13-35-8.8-12.7 8.7 13 17.4 8.8 26-12.7 8.8-26-4-39-4 8.8 12.8 0 35 8.8 47.7-8.7-4.2-17.4-13-17.4-8.8-4 17.4-13 21.6-13 35 0 21.5 13 43.5 13 65 0-6.8-8.3-5.4-12-9 21.6 60.5 20.7 124.7 11.5 189 .4.4.4 1 1 1.4 40.7-95.5 1.2-80 29.2-269 34.5-30.3 79.4-47.7 118.4-47.7 71.7 0 104.7 44.4 200.6 51.3 62 4.6 89-9.7 94.6 105.5 3.7 74.8-4.6 112 14.2 162 2.8-32 12.4-62 12.4-91.3-4.6 7.8-9.2 16.5-13.3 29.4z"/><path fill="#1F140C" d="M934.8 624.5c-1.4 2.7-9.7 3.6-9.7 6.4 0-13 15.3-23 13-44.6 0 1.8-13.8 12.8-15.2 14.7-1 4.2 18.8-46.3 18.8-63.3-6.4 10.6-12 10.6-12 19.3v-60c0 8.6-8.6 21.4-8.6 30.2 4-32.6-14.7-70.3-18.8-102.4-2.3 7.8-6.5 17-3.2 23.4-13-17.4-8.8-47.7-30.3-61-4.2 8.7-4.2 17.4-8.8 26-13-17.3-30.4-30.2-39-47.6v21.6c-21.6-17.5-52.4-26.2-65.3-52.4V365c-17.4-4-45.4-20-54-33 0 13 15 33 15 46-35.8-17-61.5-42.7-96.4-60.2 0 8.8 8.8 17.5 4.2 26.2-17.5-8.7-51.4-8.7-60.2-26.2 0 13 13.4 26.2 13.4 39-38.6-4.5-47.3-16.5-83-33-4.3 8.7-9.3 20.2-13.4 29-8.8-8.8-13-17.5-26.2-17.5 0 12.8 13 30.3 4.2 43.6-4 4-21.5-13-21.5-8.8-8.8 17.4 0 43.6-8.8 61 0 4.2-13-8.7-21.6-4 17 25 5 54.5 16 80.2.5 1 1 2 1 2.8-.5-1-1-2-1-2.8-5.5-10.5-21-11.5-24.8-23.4 0 31.7 18 60 24.8 91 2.3 1.3 3.2 3.6 1.4 9l-1.4-9c-3.2-2-8.7-1.5-11.4-4.2 20.6 41.3 27 111.5 34.4 158.3 15.6-67 7.3-136.7-11.5-189-1-1-1.5-2.3-1.5-3.7l1.4 3.7c3 3.7 11.8 2.3 11.8 9.2 0-21.6-12.8-43.6-12.8-65.2 0-12.8 8.7-17.4 12.8-35 0-4 8.8 4.3 17.5 8.8-8.7-12.8 0-34.8-8.7-47.7 12.8 0 26 13 39 4.2 4-8.7-21.6-17.4-8.7-26 8.6-4.3 21.4 8.6 34.7 8.6-12.8-8.7-26-21.6-26-39 47 23 101.8 28.4 154 35.8-11.8-6.4-19.2-23-28.4-32.6 56.5 26.2 113 52.3 174 74-13-8.8-30.3-17.5-39-30.4 43.6 21.6 104.6 26.2 130.3 65.2 0-13-4-21.6-8.7-35 21.5 26.3 34.8 61 21.5 91.4 8.7-4 12.8-8.7 17.4-17.4 4 30.3-8.8 56.5-8.8 87.2 0-8.7 8.7-12.8 13-21.6-4.3 30.3-21.7 61-17.6 96 4.2-13 8.7-21.6 13-30.3 0 29.4-9.3 59.3-12.5 91.4 3.8-4 7-8.7 10.6-13.8.5-32.6 13.4-59.2 21.2-93z"/><path fill="#2E2116" d="M647 392.7c-5 .4-10.6 1.3-21.6-.5-29.4-4-124.4-7.8-130-37.6 4.7 14.7 32.2 18.8 53.3 22.5 0 0 14.7 2.8 38 5.6 43.3 5 34 8.7 60.3 10zm99 23.8c-104-45-96.7-40-121-55.5 32 26.6 42.6 27 98.2 52.3 25.7 11.5 30.7 11 65.6 19.3-24-9.6-27-9.2-42.7-16zm11.6-12.8c43 35.3 96 26.6 129.4 65.2-26.6-42.8-86.3-38.7-129.4-65.3zm-255.2-15.2c-11.5-3.6-17.5-1.8-23 2 18.4-8.8 37.7 12.7 59.7 6.3-10 1.4-36.6-7.3-36.6-8.3zm-12.4 29c-10-3.3-22.5-8.8-31.2-8.3-4.6 0-5.5 2.3-5.5 2.3 4-5 24.3 4.6 36.7 7 3.2.8 6 .3 6 .3s-2.8-.4-6-1.3zm-49.6 51c3.2-8.4 6.4-16.6 5.5-24-.5-2.7-1.4-4-1.4-4 1.8 8.6-1.4 13.7-7.4 26.5-13.3 28 4 50 10.6 80-2.3-34-18.4-49.2-7.4-78.6zm472.8 45c1.4 9.5 1 15.5-.5 30.6 0 0-3.2 25.4-9 49.7 9-21 16.4-57 9.5-80.3zm7 67.4c-15.3 40.7-17.6 56-20 88 16.2-74.8 8.4-37.2 20-88z"/><path fill="#3D2F23" d="M741.5 305.5c-26.6 4-54.6 7.3-104.6-23 48 22 71.5 24.3 104.5 23zm58.8 8.7c-26.6-9.7-28-20.7-48.2-27 18 8.2 18 18.7 42 29.3 11.3 5.5 51.3 16.5 75.6 32.6-21.6-19.2-35.8-22.4-69.3-34.8zm-294.7-9.7c50.5 1 58.3-12 116.6-18.3-52.3-1-58 11.5-116.6 18.3zm131.3 1c20 2.3 49.4 20.6 58.6 41.3-6.4-23-35.3-41-58.7-41.3zm113.2 6.8c20.2 10.6 27.6 33.6 52.4 38-24.4-8-29.4-29.2-52.4-38zm-34.8 4.2c5 8.7 12.8 18 32.6 30.3-23-19-27-23-32.6-30.3zm101 20.6c22 3 45.4 25 47.7 49.2 1.5-23.8-20-48.6-47.7-49zm75.7 37.3c-10-12.8-18.7-16-23.3-17.4 6.4 3 12.8 7.2 21 19 0 0 15.2 20 21.2 42-4.2-26.7-19-43.7-19-43.7zm-414-62c1-1.8 23 8.3 24.8 8.8 5.6 2.4 32.2 13 41.4 14.3-4.2-1.4-65.7-28-66-23zm-36.7 27c2.8 3.8 6.5 9.8 8.8 14.4 0 0 1.4 2.2 2.4 4.5 1.3 2.3 2.3 4.6 2.3 4.6 2.7 7 4 11 4.5 15.6 1-12.8-10-30.7-18-39zm-13.3 13c-11 26.6-11 42.2 0 69.7-6.4-27.5-7.8-40.3 0-69.7z"/><path d="M926 451.4c1-15 1.4-24.8 0-40-5-44-31.2-65.6-72-89.4-40-22.5-67.5-25.3-99.2-45-40.4 39.5-95.4 1-110-6.4-73-3.2-62 11-142.4 20.6-30 3.2-42.2 7.4-42.2 7.4-1 .4-2.3.4-3.3 1-1 4-2 6.8-2.8 16-6.4 3.6-15.2 6.8-24 14.6-17.3 15.6-22.4 75-47.2 84.5-.4 0-1.8 1-2.2 1 1.8 9 5 20.6 9 29.3-6.8 8.7-18.2 21-28 25.2 2.4 8.8 14.4 47 23 66-4.5 0-8.6-.8-17.8-2.2 19.3 24.4 14.2 24.8 30.3 72 19.3 56 22.5 98.3 50 126 24.3-46.5 22.5-68 22.5-84.6.5-23-10.6-80.3 8.3-186.3 40.5-35.3 97.4-55.5 151.5-43 56.5 12.8 85 41.7 165.3 47.2 62.4 4.6 87.6-9.7 93.6 104.2 3.7 75.7-5 113.4 15.2 164.3 11.4-14.2 24.7-28 38-76.2 19.3-70.7 30.3-144-15.6-206zm16 169.8c-15 72-23.8 85.4-39.4 108.8-12.4-38.5-9.2-76.2-7.8-115.6 6.5-170.8-36.7-151.5-99.6-156-77-5-107-34.5-164.3-46-52-11.5-109.8 2.8-158 48.2-26.2 118 2.8 180.8-20.6 240.5-5 13-2 16.2-5.6 25.4-20.2-30.3-25.7-73.5-32-95-20.7-52.8-20.3-70.3-42.8-95.5 5.5 1.2 13 1.7 18.4.8-1.4-4-19.8-54.2-25.3-66.6 10.7-5 20.8-16.5 27.7-25.2-5.5-18 1.4 8.3-9.2-29 32-9.6 29-70.2 61.5-92.2 4-2.7 8.3-5 12.4-7.8 1-8.3.5-3.2 2.3-15.6 38-7.8 54.2 0 109.7-17.4 42.2-10 72.5-10 76.6-9.2 26.7 17 42.3 26 73.5 24 14.2-1.5 26-8.4 35.8-18.5 17.4 13.3 36.7 21 61 32 97 44.6 105.6 80.4 105.6 140 6 8.8 12.8 22 16 31.3 19.7 48.7 13.3 96.4 4 138.6z"/></g></g></svg>