<svg id="avatar-designer" xmlns="http://www.w3.org/2000/svg" width="100" height="100" viewBox="0 0 100 100"><style>.st0{fill:#aaa}.st1{fill:#e6e6e6}.st2{opacity:.2;enable-background:new}.st3{fill:#f2f2f2}.st4{fill:#ffc088;stroke:#ffc088;stroke-width:.75}.st5{opacity:.1;fill:#fff;enable-background:new}.st6{fill:#ffc088}.st7{fill:#ffe2b5}.st8{fill:#fff}.st9{fill:#323e4c}.st10{fill:#3873b5}</style><circle class="st0" cx="50" cy="50" r="50"/><path class="st7" d="M50 100c12.182 0 23.343-4.361 32.018-11.602a7849.701 7849.701 0 0 0-3.163-13.796c-1.164-5.043-20.369-9.975-20.369-9.975v-9.398H40.674v9.398s-19.145 4.932-20.309 9.975L17.316 87.82C26.082 95.402 37.5 100 50 100z"/><path class="st6" d="M58.486 57.195l-5.85 2.475-11.962 3.375v-7.816h17.812z"/><path class="st7" d="M34.81 35.004s-5.17-2.514-4.541 1.887c.627 4.398 4.176 7.017 4.916 7.068.739.053-.374-8.955-.374-8.955zm29.415 0s5.171-2.514 4.543 1.887c-.627 4.398-4.176 7.017-4.916 7.068-.739.053.373-8.955.373-8.955z"/><path class="st9" d="M64.525 19.008H35.116c-.724 0-1.414.447-1.898.984-.486.535-.721 1.322-.648 2.043l3.008 29.7a2.588 2.588 0 0 0 1.359 2.025l8.49 4.594c.367.19.773.437 1.187.437h5.875c.356 0 .71-.213 1.035-.357l8.014-4.346c.815-.361 1.384-1.154 1.5-2.04l4.01-29.77a4.86 4.86 0 0 0 .033-.563c0-1.412-1.144-2.707-2.558-2.707z"/><path class="st7" d="M46.615 56.416c-.207 0-.41.36-.594.264l-8.49-4.24c-.38-.2-.635-.475-.68-.903l-3.007-29.613c-.036-.36.08-.88.323-1.147s.587-.582.95-.582h29.406c.368 0 .718.344.961.621.243.278.355.739.307 1.104L61.77 52.164a1.314 1.314 0 0 1-.749 1.025l-8.013 3.516c-.163.072-.34-.289-.518-.289h-5.875z"/><path class="st1" d="M50 100c12.166 0 23.314-4.35 31.984-11.574l-3.19-13.824c-.827-3.592-10.78-7.127-16.437-8.864a26.267 26.267 0 0 0-1.345-.021L49.58 69.375l-11.432-3.658c-.447-.006-.896.004-1.345.021-5.657 1.737-15.61 5.272-16.438 8.864L17.316 87.82C26.082 95.402 37.5 100 50 100z"/><path class="st2" d="M51.11 68.887l-1.53.488-1.53-.488H28.078c-2.096.908-4.043 1.914-5.466 2.968h53.935c-1.422-1.054-3.37-2.06-5.465-2.968H51.11zM18.944 80.762h61.273c-.24-1.035-.47-2.04-.686-2.969H19.63c-.215.932-.445 1.934-.685 2.969zm-1.628 7.058a49.34 49.34 0 0 0 2.283 1.848h60.829a47.635 47.635 0 0 0 1.556-1.242c-.127-.545-.26-1.125-.398-1.727H17.574l-.258 1.121zM38.15 98.574h23.7a49.5 49.5 0 0 0 8.642-2.969h-40.97a49.547 49.547 0 0 0 8.63 2.97z"/><path class="st2" d="M78.082 73.26c-.658-.805-1.701-1.596-2.969-2.354v22.332a49.719 49.719 0 0 0 2.969-1.88V73.26zm-11.876-6.262v30.303a50.091 50.091 0 0 0 2.97-1.115V68.098a82.952 82.952 0 0 0-2.97-1.1zm-8.907-.092v32.555c1-.147 1.99-.324 2.969-.53V65.956l-2.97.951zm-7.719 2.469l-1.187-.379v30.967c.535.017 1.068.037 1.607.037.456 0 .908-.018 1.361-.031V68.805l-1.78.57zm-10.094-3.23v32.732c.979.21 1.97.393 2.97.545V67.096l-2.97-.951zm-8.908 1.722v28.205c.975.412 1.965.79 2.97 1.139V66.793c-.964.33-1.965.69-2.97 1.074zm-8.906 4.763v18.546a50.066 50.066 0 0 0 2.969 1.904V70.564c-1.188.665-2.214 1.358-2.97 2.067z"/><path class="st10" d="M47.799 99.943c.73.034 1.463.057 2.201.057.656 0 1.306-.025 1.955-.049V68.293H47.8v31.65z"/><path class="st9" d="M37.934 33.69l2.768-2.919 6.673 1.69-.837.887-5.163-1.285zm23.393.11l-2.706-2.974-6.707 1.547.818.904 5.19-1.175z"/><path class="st4" d="M49.467 49.709c-1.47 0-4.998.602-4.998.602 1.763 1.193 4.998 2.181 4.998 2.181s3.232-.988 4.997-2.181c0 0-3.528-.602-4.997-.602z"/><path class="st8" d="M45.775 50.61s2.94.036 7.383 0c0 0-3.026 1.39-7.383 0z"/><path class="st9" d="M41.616 8.098c-1.928-1.051-1.768-2.672-1.768-2.672s-.368 1.498.427 2.783c-3.887-.785-3.632-3.318-3.632-3.318s-.592 2.41 1.352 3.732c-2.561.23-5.89.12-6.018-1.978 0 0-2.915 4.001 1.296 7.757h-.007c-3.902-1.06-3.636-3.752-3.636-3.752s-.567 2.282.962 3.877c-1.713-.039-3.738-.343-4.426-1.492 0 0 .844 6.111 6.443 9.78 5.6 3.67 14.444 7.562 34.223 1.847 0 0 4.524-20.94-25.216-16.564z"/><circle class="st3" cx="49.853" cy="82.601" r=".642"/><circle class="st3" cx="49.853" cy="94.998" r=".641"/><path class="st10" d="M38.998 61.893l-5.017 4.55 11.806 10.9 3.799-8.69zm20.994 0l5.016 4.55-10.756 10.9-4.666-8.69z"/><path class="st6" d="M59.304 37.152s-3.44-1.482-5.251.705c0 0 3.023 2.948 5.25-.705zm-18.866 0s3.439-1.482 5.251.705c0 0-3.024 2.948-5.252-.705z"/><path class="st5" d="M50.174.004v99.992C77.707 99.9 100 77.555 100 50 100 22.443 77.707.098 50.174.004z"/></svg>