<svg xmlns="http://www.w3.org/2000/svg" style="position:relative;left:-.6500244140625px;top:-.883331298828125px" class="svga-svg" viewBox="0 0 200 200" preserveAspectRatio="xMinYMin meet" overflow="hidden"><path d="M225 225H-25V-25h250v250z" data-colored="true" data-filltype="tone" data-stroketype="none" fill="#eee"/><g data-updown="6" data-leftright="0" data-dist="0" data-scaleX=".85" data-scaleY=".85" data-rotate="0"><path d="M100.084 107.903h-.816v-.85h.816v.85z" data-colored="true" data-filltype="tone" data-stroketype="none" fill="#6b4e40" data-updown="0" data-leftright="0" data-dist="0" data-scaleX=".96" data-scaleY="1" data-rotate="0"/><path d="M180.78 192.29c-1.866-4.034-6.965-10.012-12.63-11.664-7.004-2.043-22.812-4.512-28.673-5.885-4.7-1.101-14.163-9.6-17.48-12.452-.595-.51-1.082-1.563-1.094-2.346-.118-9.234 3.566-33.765 3.566-33.765H74.884s3.684 24.53 3.564 33.765c-.009.783-.499 1.836-1.092 2.346-3.317 2.853-12.78 11.35-17.48 12.452-5.862 1.373-21.67 3.927-28.672 5.97-5.667 1.65-10.765 7.544-12.631 11.578-3.152 6.807-3.897 19.125-3.897 29.75h170c0-10.624-.745-22.943-3.895-29.75z" data-colored="true" data-filltype="tone" data-stroketype="none" data-fromskin="true" fill="#f0c7b1"/><path d="M149.959 178.928c20.69 3.01 29.398 7.401 32.125 43.112h2.592c0-10.625-.745-22.943-3.895-29.75-1.867-4.034-6.966-10.012-12.631-11.663-7.004-2.043-22.812-4.512-28.673-5.885-4.7-1.101-15.506-10.258-18.397-13.897 2.856 3.998 10.872 13.264 17.896 15.69 3.36 1.162 6.158 1.69 10.983 2.393zm-89.582-2.392c7.024-2.426 15.04-11.693 17.896-15.691-2.89 3.638-13.697 12.796-18.396 13.897-5.862 1.373-21.67 3.926-28.673 5.969-5.666 1.65-10.765 7.545-12.631 11.579-3.15 6.806-3.896 19.125-3.896 29.75h2.593c2.71-35.483 11.453-40.106 32.125-43.113 4.823-.701 7.622-1.23 10.982-2.391z" data-colored="true" data-filltype="hl1" data-stroketype="none" data-fromskin="true" fill="#ffe4d6"/><path d="M95.975 190.455s-4.313-1.367-6.02-2.022c-8.882-3.407-37.736-5.616-37.736-5.616s30.39 1.206 37.097 2.362c-.389-4.052-2.564-17.003-2.564-17.003s4.377 14.293 5.448 17.898c.573 1.928 3.775 4.381 3.775 4.381zm9.18-1.14c-.076.062-.163.142-.257.227.096-.072.183-.147.256-.227zm-9.18 1.14s2.46 2.544 3.695 2.576c1.624.043 4.104-2.464 5.229-3.489-1.076.814-3.536 1.183-4.514 1.221-1.13.043-4.41-.308-4.41-.308zm17.866-6.39c-1.314.21-3.728.67-3.728.67l1.943-12.657c-.549 2.61-3.802 13.78-6.902 17.237 1.624-1.374 5.235-2.033 7.076-2.299 8.7-1.261 8.697-1.26 34.903-4.199 0 0-24.71-.131-33.292 1.247z" data-colored="true" data-filltype="sd1" data-stroketype="none" data-fromskin="true" fill="#e1ac8f"/><path d="M180.78 192.29c-1.866-4.034-6.965-10.012-12.63-11.664-7.004-2.043-22.812-4.512-28.673-5.885-4.7-1.101-14.163-9.6-17.48-12.452-.595-.51-1.082-1.563-1.094-2.346-.118-9.234 3.566-33.765 3.566-33.765H74.884s3.684 24.53 3.564 33.765c-.009.783-.499 1.836-1.092 2.346-3.317 2.853-12.78 11.35-17.48 12.452-5.862 1.373-21.67 3.927-28.672 5.97-5.667 1.65-10.765 7.544-12.631 11.578-3.152 6.807-3.897 19.125-3.897 29.75h170c0-10.624-.745-22.943-3.895-29.75z" data-colored="true" data-filltype="none" data-stroketype="sd3" data-fromskin="true" fill="none" stroke="#c27b55" stroke-width="1.275"/><g><path d="M75.464 163.188c5.276 4.256 10.716 8.678 24.538 8.678 13.815 0 19.256-4.418 24.531-8.672-.188-.49-.305-.997-.312-1.461-.088-6.889 1.573-20.711 2.835-30.131-15.695-2.201-38.418-2.201-54.113 0 1.261 9.421 2.922 23.242 2.833 30.13-.005.456-.122.963-.312 1.456z" data-colored="false" data-filltype="gradient" data-stroketype="none" data-fromskin="true" fill="url(#a)" transform="matrix(.85 0 0 .85 14.676 22.478)"/></g><g data-updown="0" data-leftright="0" data-dist="0" data-scaleX="1" data-scaleY="1" data-rotate="0"><path d="M51.03 222.872l1.125-51.724s8.665-2.114 14.14-5.366c14.872 18.66 59.033 14.733 66.586-.527 1.265.446 2.312 1.017 3.622 1.456 4.25 2.878 7.831 3.82 7.831 3.82l.795 52.432c-12.143.16-94.098-.091-94.098-.091z" data-colored="false" data-filltype="#f5f4f5" data-stroketype="none" fill="#f5f4f5"/><path d="M145.588 173.528c-3.6-.612-6.47-1.443-8.034-3.013-4.542 8.521-22.749 13.922-28.777 14.713 17.471-5.335 24.81-9.191 27.708-18.346 1.692 2.026 5.544 3.017 10.466 3.858l-1.363 2.788zm-86.142-2.826c1.236-.265 1.853-1.049 3.08-1.354l-1.3-1.587c-2.646 1.9-7.625 2.81-13.514 3.76l.16 3.178c3.362-.672 6.644-1.52 9.714-2.825 6.36 7.213 16.293 10.76 26.4 12.23-12.68-3.048-19.95-8.191-24.54-13.402z" data-colored="false" data-filltype="#ffffff" data-stroketype="none" fill="#fff"/><path d="M131.858 167.025c-5.04 9.657-43.129 20.906-64.608.736-1.335.523-5.33 1.772-5.33 1.772 15.645 19.618 61.493 19.743 73.697-.095-.053-.02-2.518-1.833-3.759-2.413z" data-colored="false" data-filltype="#dfdde2" data-stroketype="none" fill="#dfdde2"/><path d="M132.833 165.143c-8.574 15.789-53.191 18.024-66.503.531-4.862 1.323-9.536 4.145-14.243 4.851l-1.056 52.347 94.097.09-.727-53.027c-2.863-.601-5.525-2.327-7.865-3.31-1.294-.543-2.392-1.032-3.703-1.482zm-66.825 1.06c11.817 19.622 58.494 15.686 67.506.083 1.093.425 1.373.592 2.64 1.006-9.335 18.027-55.51 23.772-74.396.975.132-.034 2.918-1.604 4.25-2.065zm-5.188 2.83c15.269 22.99 65.671 19.428 76.146-1.093a17.059 17.059 0 0 0 6.745 3.174l1.411 50.218-93.82.014 1.618-49.554c2.367-1.19 6.166-2.066 7.9-2.758z" data-colored="false" data-filltype="#b8b6c9" data-stroketype="none" fill="#b8b6c9"/><path d="M10.827 222.71c-2.188-11.775-1.949-40.454 7.66-40.393 11.166-4.515 24.88-9.694 36.382-13.015 5.872-6.159 11.42-12.016 22.26-18.117.33 2.21 1.593 7.26.01 10.007-1.152 2-4.916 4.74-8.121 7.113-1.725 2.312-3.338 4.568-5.61 7.726 4.393 18.956 8.161 28.713 8.583 45.154 0 0-1.234.586 54.8.338 1.883-18.988 4.244-28.527 8.822-45.983 0 0-3.661-4.262-6.126-7.54-1.745-1.697-7.106-6.402-7.514-7.353-.998-2.33-.465-5.26.094-9.662 9.174 4.142 14.45 10.218 22.17 18.107 6.57 1.801 26.23 8.472 36.078 12.934 3.37-.094 5.272 1.7 6.691 4.646 4.594 9.516 3.507 23.202 1.853 36.37-16.227.027-131.779 1.88-178.032-.333z" data-colored="true" data-filltype="tone" data-stroketype="none" fill="#3873b5"/><path d="M77.47 153.447c.136.91.258 1.772.35 2.585-.186.226-14.63 19.85-14.736 19.996 3.55-8.074 8.627-16.44 14.386-22.58zm44.351 0c-.135.91-.156 1.772-.247 2.585.185.226 14.391 19.099 14.496 19.246-3.761-7.523-8.49-15.69-14.249-21.83zm33.112 26.412c-3.638 5.297-4.415 7.125-8.397 12.374.91 0 2.379.14 3.29.14 3.114-5.341 3.12-8.06 5.107-12.514zm3.728 38.441c3.224-7.565 5.894-14.204 9.128-21.78l-1.06-1.712c-2.693 7.782-5.552 15.69-8.068 23.492zM49.567 192.374c.91 0 2.38-.141 3.29-.141-3.982-5.249-4.759-5.577-8.396-10.873 1.986 4.453 1.992 5.672 5.106 11.014zm-16.904 2.434l-1.06 1.712c3.235 7.576 4.05 14.215 7.275 21.78-2.517-7.803-3.521-15.71-6.215-23.492z" data-colored="true" data-filltype="sd1" data-stroketype="none" fill="#2361a6"/><path d="M70.469 166.369c1.003-1.4 4.451-6.181 7.31-10.677.84 4.639-.702 7.39-7.31 10.677zm51.086-10.985c2.17 3.737 4.728 7.457 7.365 10.883-7.144-3.253-7.624-6.58-7.365-10.883z" data-colored="true" data-filltype="sd2" data-stroketype="none" fill="#105096"/><path d="M122.047 151.134c.006-.052.014-.1.02-.148 15.378 8.499 24.289 21.267 34.634 30.784-.38.613-1.044 1.014-1.434 1.62-10.833-8.244-15.982-20.708-33.22-32.256zm-46.395.563c-12.78 6.981-30.806 28.354-32.57 29.979.38.615.587.49.977 1.095 10.834-8.243 13.791-16.402 31.593-31.074zm104.663 30.33c-.85-.68-20.95-8.533-36.202-12.724 28.644 13.854 38.75 15.763 43.75 20.673-.325-.85-.989-8.132-7.548-7.95zm-125.3-12.877c-11.495 3.327-26.213 8.583-36.528 13.167-4.56.09-7.827 6.741-8.527 13.672 6.343-14.291 3.21-4.684 45.056-26.839z" data-colored="true" data-filltype="hl1" data-stroketype="none" fill="#5087c4"/><path d="M190.286 201.031c-.289-7.34-2.597-19.637-9.937-19.09-.607-.52-17.699-8.303-35.942-13.27-6.25-6.337-14.038-14.959-22.416-17.814-.604 5.464-1.255 9.029.184 10.807 1.905 2.073 4.19 4.147 6.433 5.544 3.923 5.215 6.918 8.311 6.918 8.311-4.616 17.598-7.493 26.617-9.327 45.635H73.155c-1.834-19.017-4.712-28.036-9.328-45.635 0 0 2.994-3.096 6.919-8.311 2.243-1.398 4.528-3.47 6.432-5.544 1.439-1.778.788-5.343.184-10.807-8.378 2.855-16.166 11.477-22.415 17.814-18.244 4.968-35.336 12.75-35.943 13.27-7.341-.547-9.649 11.75-9.937 19.09-.35 8.914 1.22 21.197 1.347 22.047H188.94c.127-.85 1.697-13.133 1.347-22.047zM76.713 161.193c-1.92 1.898-3.11 2.704-5.502 4.49 4.104-5.33 3.69-4.618 6.551-9.545.129 2.119-.668 4.679-1.05 5.055zm-64.733 60.21c-.92-10.918-2.479-20.75.366-31.444 1.088-4.103 2.111-6.88 6.336-7.233.907 4.708 6.913 24.416 12.154 37.853-5.292-20.563-4.515-15.988-6.987-24.184-.819-2.75-1.575-5.513-2.532-8.221-.665-1.882-1.402-3.729-1.922-5.655l34.368-12.635c-.237.24-10.961 11.419-11.22 11.733 1.57 2.568 6.644 6.139 9.219 9.994-10.57.998-15.732 2.697-19.55 3.264.281.782 7.702 21.55 8.48 23.508-1.258-6.73-4.094-17.253-7.342-23.13 1.198-.152 15.365-2.118 19.884-2.955-1.255-2.426-6.837-7.171-9.825-10.726 17.549-15.438 21.608-23.292 33.654-30.136.127 1.283.376 2.56.467 3.841C64.105 175.28 62.53 175.31 62.53 175.31c3.897 15.139 8.952 30.45 8.952 45.962l-59.5.131zm110.66-60.21c-.381-.376-1.178-2.936-1.05-5.055 2.862 4.928 2.447 4.215 6.552 9.545-2.393-1.786-3.584-2.59-5.502-4.49zm64.732 60.21l-59.5-.132c0-15.511 5.055-30.824 8.953-45.962 0 0-1.576-.029-15.002-20.032.09-1.282.34-2.558.467-3.84 12.046 6.843 16.105 14.697 33.654 30.135-2.988 3.556-8.57 8.301-9.825 10.726 4.518.837 18.685 2.803 19.884 2.956-3.247 5.876-6.083 16.4-7.341 23.129.778-1.958 8.198-22.726 8.48-23.508-3.819-.567-8.98-2.266-19.55-3.264 2.573-3.855 7.648-7.425 9.218-9.994-.26-.314-10.982-11.493-11.22-11.733l34.369 12.635c-.52 1.927-1.257 3.773-1.923 5.655-.956 2.708-1.713 5.471-2.532 8.221-2.472 8.197-1.694 3.621-6.986 24.184 5.24-13.438 11.245-33.145 12.153-37.853 4.225.352 5.248 3.13 6.337 7.233 2.843 10.695 1.284 20.527.364 31.443z" data-colored="true" data-filltype="sd3" data-stroketype="none" fill="#014087"/></g><g data-updown="0" data-leftright="0" data-dist="0" data-scaleX="1" data-scaleY="1" data-rotate="0"><g data-updown="0" data-leftright="3" data-dist="0" data-scaleX=".95" data-scaleY=".95" data-rotate="0"><path d="M57.112 93.788c-1.11-1.981-4.552-6.848-8.059-5.655-2.22.755-2.659 3.224-3.016 5.404-.474 2.9.38 8.636 1.122 10.708.711 1.992 2.853 5.838 4.25 7.304 1.72 1.796 3.857 7.529 4.195 8.124.533.938 1.24 2.35 3.328 2.174 2.304-.197 3.702-1.494 4.73-1.713 2.536-.538-3.658-21.19-6.55-26.346z" data-colored="true" data-filltype="tone" data-stroketype="sd3" fill="#f0c7b1" stroke="#c27b55" stroke-width="1.21125"/><path d="M54.848 105.798c-.107-.47.006-1.26.115-2.022.1-.696.194-1.353.136-1.818-.215-1.74-1.432-5.046-2.226-6.837-.914-2.063-2.393-4.66-4.25-5.329-.766-.277-1.271.054-1.564.39-.215.247-.263.538-.192.572.07.034.23-.205.462-.432a1.05 1.05 0 0 1 .848-.311c-.153.866-.942 5.558-.6 8.757.268 2.516 1.286 4.395 1.445 4.676a7.2 7.2 0 0 0 .12.869c.75 3.671 4.014 7.846 5.15 9.212.209.253.428.402.483.342.053-.061-.076-.313-.285-.565-1.121-1.356-4.354-5.516-5.079-9.059-.769-3.76 1.872-9.331 2.461-10.511.3.553.555 1.085.751 1.528.154.349.325.756.5 1.195-.346.615-2.773 5.103-1.888 8.694.328 1.325 1.805 3.032 2.784 3.499.538.258.742.644.976 1.09.271.516.58 1.102 1.476 1.527.182.087.347.122.493.122a.855.855 0 0 0 .585-.237c.015.227.014.517.007.784-.01.348.034.632.111.638.076.007.158-.268.167-.613.013-.425.01-.95-.058-1.202-.2-.74-.814-1.577-1.464-2.461-.637-.874-1.298-1.773-1.464-2.498zm-5.852-3.255c-1.758-5.765.53-10.74.924-11.532.686.664 1.292 1.55 1.784 2.419-.358.693-2.634 5.235-2.708 9.113zm7.583 8.431c-.81-.383-1.08-.9-1.345-1.399-.237-.451-.483-.917-1.105-1.215a2.903 2.903 0 0 1-.438-.277c-2.008-5.058.22-7.269.778-7.722.17.619.297 1.186.354 1.64.05.418-.042 1.082-.135 1.724-.115.795-.23 1.618-.11 2.15.182.794.863 1.722 1.52 2.619.585.796 1.185 1.617 1.39 2.287-.087.132-.363.453-.909.193z" data-colored="true" data-filltype="sd3" data-stroketype="none" fill="#c27b55"/></g><g data-updown="0" data-leftright="-3" data-dist="0" data-scaleX=".95" data-scaleY=".95" data-rotate="0"><path d="M142.017 93.788c1.112-1.981 4.553-6.848 8.058-5.655 2.221.755 2.66 3.224 3.017 5.404.475 2.9-.38 8.636-1.121 10.708-.712 1.992-2.853 5.838-4.253 7.304-1.719 1.796-3.855 7.529-4.193 8.124-.531.938-1.24 2.35-3.328 2.174-2.304-.197-3.701-1.494-4.73-1.713-2.536-.538 3.659-21.19 6.55-26.346z" data-colored="true" data-filltype="tone" data-stroketype="sd3" fill="#f0c7b1" stroke="#c27b55" stroke-width="1.21125"/><path d="M142.817 108.294c-.65.885-1.263 1.721-1.464 2.462-.07.25-.071.776-.058 1.201.01.346.091.62.167.614s.12-.29.11-.639a9.539 9.539 0 0 1 .009-.783c.14.127.332.236.585.236.147 0 .31-.034.492-.121.895-.425 1.205-1.011 1.476-1.528.233-.446.438-.83.976-1.09.98-.466 2.456-2.173 2.784-3.498.885-3.591-1.541-8.08-1.888-8.695.175-.44.347-.847.5-1.194.197-.443.45-.976.75-1.529.59 1.18 3.23 6.752 2.463 10.512-.724 3.542-3.957 7.702-5.079 9.058-.208.253-.337.504-.284.565.053.06.273-.088.483-.341 1.135-1.367 4.4-5.541 5.15-9.213.057-.283.095-.572.119-.868.159-.282 1.178-2.161 1.446-4.676.34-3.199-.448-7.891-.6-8.758.381-.034.657.126.848.311.232.227.392.466.462.432.07-.034.022-.324-.192-.57-.293-.337-.798-.668-1.565-.392-1.857.67-3.336 3.267-4.25 5.33-.794 1.79-2.01 5.097-2.226 6.836-.059.465.036 1.123.137 1.818.109.763.22 1.554.114 2.022-.166.727-.826 1.626-1.465 2.498zm4.608-14.865c.494-.868 1.1-1.755 1.786-2.418.394.791 2.68 5.766.924 11.53-.075-3.876-2.35-8.418-2.71-9.112zm-5.785 17.352c.205-.67.806-1.491 1.39-2.287.659-.897 1.339-1.825 1.522-2.618.12-.533.003-1.356-.11-2.151-.093-.642-.186-1.306-.134-1.724.054-.454.183-1.022.353-1.64.558.453 2.785 2.664.78 7.722a2.884 2.884 0 0 1-.439.277c-.623.298-.867.764-1.105 1.215-.264.5-.535 1.016-1.346 1.4-.546.259-.823-.062-.91-.194z" data-colored="true" data-filltype="sd3" data-stroketype="none" fill="#c27b55"/></g><g data-scaleX=".96"><g data-updown="0" data-leftright="0" data-dist="0" data-scaleX="1" data-scaleY="1" data-rotate="0"><path d="M99.678 23.23c-27.432.044-49.71 23.513-49.668 52.428a55.12 55.12 0 0 0 1.633 13.286h.001c.01.046 9.418 32.796 11.44 43.554 1.128 6 7.396 13.305 13.49 17.718 5.685 4.117 9.19 9.836 23.103 9.836s17.418-5.719 23.104-9.836c6.093-4.413 12.361-11.719 13.489-17.718 2.023-10.758 11.431-43.508 11.44-43.554h.002a55.126 55.126 0 0 0 1.633-13.286c.044-28.915-22.235-52.384-49.667-52.429z" data-colored="true" data-filltype="tone" data-stroketype="none" fill="#f0c7b1"/><path d="M137.842 42.12c6.102 8.796 9.724 19.754 9.709 31.637a57.142 57.142 0 0 1-1.575 13.286h-.002c-.009.046-9.077 32.796-11.025 43.554-1.09 6-7.13 13.304-13.003 17.718-5.482 4.117-8.857 9.836-22.27 9.836-13.41 0-16.789-5.719-22.27-9.836-5.872-4.413-11.914-11.719-12.999-17.718-1.95-10.758-11.02-43.507-11.028-43.554a57.104 57.104 0 0 1-1.576-13.286c-.017-11.88 3.604-22.834 9.702-31.629-7.19 9.091-11.516 20.779-11.497 33.529a55.12 55.12 0 0 0 1.634 13.286c.01.046 9.419 32.796 11.44 43.554 1.129 6 7.396 13.305 13.49 17.718 5.685 4.117 9.19 9.836 23.103 9.836s17.419-5.719 23.104-9.836c6.094-4.412 12.361-11.718 13.49-17.718 2.022-10.757 11.43-43.508 11.44-43.554h.001a55.126 55.126 0 0 0 1.634-13.286c.022-12.754-4.307-24.445-11.502-33.537z" data-colored="true" data-filltype="sd05" data-stroketype="none" fill="#e8b9a0"/><path d="M100.002.867C66.384.92 39.082 28.536 39.134 62.56a62.416 62.416 0 0 0 2.002 15.634h.001c.012.054 11.542 38.591 14.02 51.25 1.382 7.06 9.063 15.656 16.531 20.849 6.967 4.845 11.263 11.574 28.313 11.574s21.346-6.729 28.313-11.574c7.468-5.192 15.149-13.789 16.531-20.849 2.479-12.658 14.009-51.196 14.02-51.25h.002a62.422 62.422 0 0 0 2.002-15.634C160.923 28.536 133.62.92 100.002.867z" data-colored="true" data-filltype="none" data-stroketype="sd3" fill="none" stroke="#c27b55" stroke-width="1.5" transform="matrix(.816 0 0 .84983 18.076 22.492)"/></g></g><path d="M99.965 143.115c-1.297 0-2.548-.164-3.315-.465a.426.426 0 0 1 .31-.792c1.415.555 4.977.575 6.549-.164a.425.425 0 0 1 .362.769c-.952.447-2.457.652-3.906.652zm12.482-7.21a.668.668 0 0 0-.525-1.227c-9.916 4.244-24.43.288-24.575.249a.668.668 0 1 0-.359 1.286c.394.11 6.538 1.785 13.63 1.785 3.926 0 8.14-.514 11.83-2.092z" data-colored="true" data-filltype="sd3" data-stroketype="none" data-fromskin="true" fill="#c27b55" data-updown="0" data-leftright="0" data-dist="0" data-scaleX="1" data-scaleY="1" data-rotate="0"/><g data-updown="0" data-leftright="0" data-dist="0" data-scaleX=".9" data-scaleY=".9" data-rotate="0"><path d="M83.071 89.125c-3.293-.784-4.969 1.059-9.809 1.166-8.057.177-9.938-.618-11.199-2.638a15.28 15.28 0 0 1-1.264-2.601l-.1-4.149c1.328-3.949 19.541-4.352 25.9 1.784.287.666.433 1.287.465 1.867-.19.958-.512 1.878-.947 2.749-.706.81-1.762 1.426-3.046 1.822z" data-colored="false" data-filltype="gradient" data-stroketype="none" fill="url(#b)" transform="matrix(.765 0 0 .765 20.927 29.627)"/><g data-updown="0" data-leftright="0" data-dist="0" data-scaleX="1" data-scaleY="1" data-rotate="0"><path d="M82.156 95.293a4.577 4.577 0 0 1-5.631 3.21 4.599 4.599 0 0 1-3.224-5.639 4.58 4.58 0 0 1 5.634-3.211 4.598 4.598 0 0 1 3.22 5.64z" data-colored="true" data-filltype="tone" data-stroketype="sd3" fill="#39548e" stroke="#0a2560" stroke-width=".3825"/><path d="M81.442 95.35c-.65 1.875-2.606 2.969-4.513 2.447-1.76-.483-2.87-2.171-2.725-3.956a16.748 16.748 0 0 1 2.108-.03c-.008.025-.02.047-.028.073-.234.86.312 1.763 1.218 2.012.91.25 1.837-.25 2.071-1.11a1.51 1.51 0 0 0 .05-.336c.622.226 1.232.52 1.819.9z" data-colored="true" data-filltype="hl1" data-stroketype="none" fill="#4f689d"/><path d="M78.35 92.709c-.92-.263-1.858.261-2.096 1.178-.237.911.316 1.865 1.235 2.129.921.264 1.86-.262 2.097-1.174.24-.916-.316-1.87-1.236-2.133zm.2 3.237c-.382.12-.778-.039-.883-.353-.101-.315.125-.663.51-.78.385-.119.78.04.886.351.104.315-.125.664-.513.782z" data-colored="false" data-filltype="#000000" data-stroketype="none" opacity=".9"/><path d="M75.288 96.495c-.283.17-.705.017-.947-.342-.242-.357-.206-.784.078-.954.282-.168.708-.016.948.341.239.357.204.786-.079.955z" data-colored="false" data-filltype="#ffffff" data-stroketype="none" fill="#fff" opacity=".6"/><path d="M81.331 93.88c-.647.387-1.62.038-2.17-.781-.551-.82-.468-1.8.179-2.186.645-.389 1.62-.04 2.168.78.55.82.47 1.798-.177 2.186z" data-colored="false" data-filltype="#ffffff" data-stroketype="none" fill="#fff" opacity=".8"/></g><path d="M62.03 93.962c-.293 2.527 7.538 16.833 15.354 16.833S92.3 106.747 92.3 93.963c0-13.609-7.101-16.831-14.917-16.831S63.48 81.42 62.029 93.962zm5.409.73l-.077-3.174c1.016-3.02 14.949-3.329 19.814 1.365 1.068 2.472-.313 4.19-2.7 4.925-2.52-.6-3.801.81-7.504.892-6.164.136-7.603-.472-8.567-2.018a11.65 11.65 0 0 1-.966-1.99z" data-colored="true" data-filltype="tone" data-stroketype="none" data-fromskin="true" fill="#f0c7b1"/><path d="M59.698 82.412c.023 7.534 7.646 13.604 17.038 13.566 9.389-.043 16.985-6.179 16.961-13.713-.023-7.533-7.647-13.605-17.04-13.566-9.392.044-16.984 6.179-16.959 13.713zm1.102 2.641l-.1-4.149c1.328-3.949 19.541-4.352 25.9 1.784 1.396 3.231-.409 5.477-3.529 6.438-3.293-.784-4.969 1.059-9.809 1.166-8.057.177-9.938-.618-11.199-2.638a15.229 15.229 0 0 1-1.263-2.601z" data-colored="false" data-filltype="gradient" data-stroketype="none" data-fromskin="true" fill="url(#c)" transform="matrix(.765 0 0 .765 20.927 29.627)"/><path d="M62.063 87.654a15.28 15.28 0 0 1-1.264-2.601l-.1-4.149c1.328-3.949 19.541-4.352 25.9 1.784 1.396 3.231-.409 5.477-3.529 6.438-3.293-.784-4.969 1.059-9.809 1.166-8.055.177-9.937-.619-11.198-2.638z" data-colored="false" data-filltype="gradient" data-stroketype="none" fill="url(#d)" transform="matrix(.765 0 0 .765 20.927 29.627)"/><path d="M89.367 91.74c-7.357-4.408-12.776-4.688-21.51-4.127 7.29-1.148 15.686-.315 21.51 4.127z" data-colored="true" data-filltype="sd3" data-stroketype="none" data-fromskin="true" fill="#c27b55"/><path d="M88.423 94.868c-2.479-6.36-19.847-6.398-20.985-3.198v2.98c-.781-1.178-.801-1.25-1.135-2.604l-1.679.57s2.1-2.963 4.054-3.351c16.972-3.38 19.6 4.583 19.745 5.603zm-2.668 3.165c-3.538-1.514-4.544.29-8.846.379-6.123.128-7.318-.586-8.51-1.894.622 1.6 1.052 2.36 8.32 2.315 4.112-.025 6.359-1.724 9.036-.8z" data-colored="true" data-filltype="tone" data-stroketype="none"/></g><g data-updown="0" data-leftright="0" data-dist="0" data-scaleX=".9" data-scaleY=".9" data-rotate="0"><path d="M116.529 89.125c3.293-.784 4.969 1.059 9.809 1.166 8.057.177 9.938-.618 11.199-2.638a15.28 15.28 0 0 0 1.264-2.601l.1-4.149c-1.328-3.949-19.541-4.352-25.9 1.784-.287.666-.433 1.287-.465 1.867.19.958.512 1.878.947 2.749.706.81 1.762 1.426 3.046 1.822z" data-colored="false" data-filltype="gradient" data-stroketype="none" fill="url(#e)" transform="matrix(.765 0 0 .765 25.407 29.627)"/><g data-updown="0" data-leftright="0" data-dist="0" data-scaleX="1" data-scaleY="1" data-rotate="0"><path d="M126.034 95.293a4.577 4.577 0 0 1-5.632 3.21 4.6 4.6 0 0 1-3.224-5.639 4.58 4.58 0 0 1 5.634-3.211 4.599 4.599 0 0 1 3.222 5.64z" data-colored="true" data-filltype="tone" data-stroketype="sd3" fill="#39548e" stroke="#0a2560" stroke-width=".3825"/><path d="M125.32 95.35c-.65 1.875-2.607 2.969-4.513 2.447-1.76-.483-2.87-2.171-2.725-3.956a16.75 16.75 0 0 1 2.108-.03c-.008.025-.02.047-.028.073-.234.86.312 1.763 1.22 2.012.909.25 1.836-.25 2.07-1.11.03-.113.046-.225.05-.336a8.97 8.97 0 0 1 1.818.9z" data-colored="true" data-filltype="hl1" data-stroketype="none" fill="#4f689d"/><path d="M122.228 92.709c-.92-.263-1.858.261-2.095 1.178-.238.911.316 1.865 1.234 2.129.921.264 1.86-.262 2.098-1.174.238-.916-.317-1.87-1.237-2.133zm.2 3.237c-.382.12-.778-.039-.882-.353-.102-.315.124-.663.51-.78.385-.119.78.04.885.351.104.315-.125.664-.513.782z" data-colored="false" data-filltype="#000000" data-stroketype="none" opacity=".9"/><path d="M119.167 96.495c-.283.17-.706.017-.947-.342-.242-.357-.206-.784.078-.954.28-.168.709-.016.948.341.239.357.204.786-.079.955z" data-colored="false" data-filltype="#ffffff" data-stroketype="none" fill="#fff" opacity=".6"/><path d="M125.21 93.88c-.648.387-1.62.038-2.171-.781-.55-.82-.468-1.8.179-2.186.646-.389 1.62-.04 2.168.78.55.82.471 1.798-.177 2.186z" data-colored="false" data-filltype="#ffffff" data-stroketype="none" fill="#fff" opacity=".8"/></g><path d="M121.645 77.132c-7.816 0-14.917 3.222-14.917 16.83 0 12.785 7.101 16.833 14.917 16.833S136.862 97 137 93.962c.57-12.613-7.538-16.83-15.354-16.83zm8.978 19.55c-.965 1.546-2.404 2.154-8.567 2.018-3.703-.082-4.985-1.491-7.504-.892-2.387-.735-3.768-2.453-2.7-4.925 4.865-4.694 18.798-4.386 19.814-1.365l-.077 3.174a11.536 11.536 0 0 1-.966 1.99z" data-colored="true" data-filltype="tone" data-stroketype="none" data-fromskin="true" fill="#f0c7b1"/><path d="M122.943 68.699c-9.393-.04-17.016 6.033-17.039 13.566-.025 7.535 7.572 13.67 16.961 13.713 9.391.037 17.014-6.033 17.037-13.566.026-7.534-7.566-13.669-16.959-13.713zm14.594 18.955c-1.261 2.02-3.143 2.815-11.199 2.638-4.84-.107-6.516-1.95-9.809-1.166-3.12-.961-4.925-3.207-3.529-6.438 6.359-6.136 24.572-5.733 25.9-1.784l-.1 4.149a15.08 15.08 0 0 1-1.263 2.601z" data-colored="false" data-filltype="gradient" data-stroketype="none" data-fromskin="true" fill="url(#f)" transform="matrix(.765 0 0 .765 25.407 29.627)"/><path d="M137.537 87.654a15.28 15.28 0 0 0 1.264-2.601l.1-4.149c-1.328-3.949-19.541-4.352-25.9 1.784-1.396 3.231.409 5.477 3.529 6.438 3.293-.784 4.969 1.059 9.809 1.166 8.056.177 9.937-.619 11.198-2.638z" data-colored="false" data-filltype="gradient" data-stroketype="none" fill="url(#g)" transform="matrix(.765 0 0 .765 25.407 29.627)"/><path d="M109.661 91.74c7.357-4.408 12.777-4.688 21.51-4.127-7.29-1.148-15.686-.315-21.51 4.127z" data-colored="true" data-filltype="sd3" data-stroketype="none" data-fromskin="true" fill="#c27b55"/><path d="M130.35 89.264c1.954.389 4.054 3.351 4.054 3.351l-1.679-.57c-.334 1.355-.354 1.427-1.134 2.604v-2.98c-1.138-3.2-18.506-3.162-20.985 3.199.145-1.02 2.772-8.984 19.745-5.604zm-8.04 9.57c7.267.045 7.698-.717 8.32-2.315-1.193 1.308-2.388 2.022-8.511 1.894-4.301-.09-5.308-1.894-8.846-.379 2.677-.925 4.925.774 9.037.8z" data-colored="true" data-filltype="tone" data-stroketype="none"/></g><g data-updown="0" data-leftright="0" data-dist="0" data-scaleX="1" data-scaleY="1" data-rotate="0"><path d="M141 113.974c.035 22.622-18.292 40.994-40.938 41.025-22.642.037-41.028-18.273-41.063-40.9-.035-22.62 18.292-41.064 40.937-41.1 22.643-.035 41.031 18.35 41.064 40.975z" data-colored="false" data-filltype="gradient" data-stroketype="none" data-fromskin="true" fill="url(#h)" transform="matrix(.85 0 0 .85 14.676 22.478)"/><path d="M137.5 53.999c0 20.711-16.789 37.5-37.499 37.5-20.711 0-37.501-16.789-37.501-37.5s16.79-37.5 37.501-37.5c20.71 0 37.499 16.789 37.499 37.5z" data-colored="false" data-filltype="gradient" data-stroketype="none" data-fromskin="true" fill="url(#i)" transform="matrix(.85 0 0 .85 14.676 22.478)"/></g><path d="M60.724 87.597c7.867-12.205 29.466 4.157 30.7-.962.24-1.026-.33-1.627-1.263-2.012-11-4.446-25.556-8.182-29.437 2.974zM138.632 87.622c-7.868-12.205-29.467 4.157-30.7-.961-.241-1.027.329-1.628 1.263-2.013 10.999-4.446 25.556-8.182 29.437 2.974z" data-colored="true" data-filltype="#000000" data-stroketype="none" fill="#6b4e40" data-updown="2" data-leftright="0" data-dist="0" data-scaleX=".95" data-scaleY=".95" data-rotate="0"/><g data-updown="0" data-leftright="0" data-dist="0" data-scaleX="1" data-scaleY="1" data-rotate="0"><path d="M92.124 120.653c-.746 1.754 5.044 3.648 7.241 3.764 2.38.125 9.05-2.465 7.919-4.243-1.19-1.866-5.647-.243-7.57-.243-1.915-.001-6.59-1.62-7.59.722z" data-colored="true" data-filltype="sd1" data-stroketype="none" data-fromskin="true" fill="#e1ac8f"/><path d="M101.255 121.978c-.196-.645 1.594-1.347 2.258-1.44.936-.136 2.856.681 2.684 1.353-.156.593-1.825-.453-2.43-.365-.624.091-2.327 1.056-2.512.452zm-5.85-.21c.822 0 2.043.53 2.267.063.268-.557-1.818-1.242-2.431-1.167-.507.06-2.323 1.118-2.073 1.564.233.408 1.152-.46 2.236-.46z" data-colored="true" data-filltype="sd3" data-stroketype="none" data-fromskin="true" fill="#c27b55"/><path d="M99.752 117.678c.516 0 1.48-.63 1.523-1.896.17-5.107-.813-20.258-1.523-20.204-.663.05-1.927 14.991-1.656 20.204.067 1.277 1.074 1.896 1.656 1.896z" data-colored="true" data-filltype="hl2" data-stroketype="none" data-fromskin="true" fill="#fff5ef" opacity=".2"/></g><g data-updown="0" data-scaleX=".96"><g data-updown="-1" data-leftright="0" data-dist="0" data-scaleX="1" data-scaleY="1" data-rotate="0"><path d="M100.15 175.264c-4.007-.009-5.64-2.295-7.9-5.456-1.313-1.844-2.806-3.935-5.091-6.11-.506-.493-2.203-2.159-2.636-3.051-5.124-.782-6.046-2.329-8.078-5.703-.857-1.427-1.918-3.195-3.574-5.362-2.138-2.72-3.925-4.836-5.508-6.705-7.654-9.068-9.254-10.954-13.66-39.211-.424-2.626-.898-5.983-1.004-6.918.106-.042.212-.093.31-.153 1.053.153 2.48.332 4.83.502.686 4.487 1.951 7.138 3.175 9.705.84 1.759 1.714 3.577 2.358 5.948 1.804 6.383 5.198 9.603 8.479 12.722 3.672 3.485 7.458 7.088 8.943 15.136l.008.05.05.018c3.247.943 4.569 3.153 6.364 6.696l.065.136.074-.127c.416-.73.66-1.258.848-1.674.645-1.428.727-1.606 5.712-4.479 1.322-.773 1.983-1.292 2.66-1.895l.286.128c.604.237 1.33.365 2.122.365.905 0 1.811-.179 2.382-.459.767 1.122 1.624 1.462 2.701 1.904 1.518.612 3.403 1.376 6.063 4.682l.041.051.057-.034c2.211-1.224 3.607-3.042 5.084-4.963 1.534-1.997 3.125-4.062 5.818-5.838 1.958-4.725 4.586-7.555 7.124-10.3 3.157-3.408 6.421-6.935 8.192-14.014.44-1.733 2.644-7.512 3.958-10.963.49-1.291.857-2.252.97-2.574 2.073-.009 3.893-.34 5.574-.689-.938 3.578-.971 6.918-1.012 10.462-.049 4.937-.106 10.036-2.611 16.384-6.259 16.929-9.612 19.937-13.162 23.133-1.926 1.733-3.917 3.518-6.406 7.725-2.146 3.96-3.819 4.818-7.768 5.379l-.049.008-.016.051c-1.004 3.578-4.52 6.153-8.242 8.881-2.407 1.76-4.896 3.586-6.756 5.754-.041.042-.115.135-.204.237-.163.204-.44.536-.571.62z" data-colored="true" data-filltype="tone" data-stroketype="none" fill="#6b4e40"/><path d="M132.904 137.667c-4.896 8.499-11.196 9.74-14.46 19.088 0-3.4-.816-5.1-1.632-8.499-5.41 21.136-10.608 14.447-15.504 22.096.816-2.55-.816-5.1-.816-7.649 0 2.55-1.632 5.1-1.632 7.649 0-4.25-2.448-6.799-4.08-10.198.816 4.249 2.448 6.799 2.448 11.048-5.54-9.782-11.122-11.235-15.504-19.546v5.948c-11.432-23.548-19.95-18.96-28.69-57.796.18 1.232.391 2.634.587 3.875 5.32 34.078 6.675 29.973 19.2 45.95 5.541 7.249 4.366 9.985 11.637 11.048.408.858 1.975 2.43 2.652 3.076 6.324 6.034 6.716 11.592 13.064 11.592.196-.102.677-.731.832-.892 4.692-5.465 13.342-8.694 15.015-14.66 3.884-.56 5.638-1.394 7.825-5.422 6.92-11.71 9.808-4.47 19.568-30.866 2.815-7.13 2.546-13.835 2.635-20.022-3.019 14.923-7.686 24.356-13.145 34.18z" data-colored="true" data-filltype="sd1" data-stroketype="none" fill="#5c3d2e"/><path d="M141.325 97.241c-.278.85-4.325 11.167-4.945 13.597-3.183 12.688-10.918 13.666-15.284 24.263-5.36 3.527-6.463 8.337-10.902 10.793-4.585-5.72-6.976-3.901-8.796-6.637-.963.518-3.052.705-4.488.119h-.008c-.114-.051-.22-.094-.335-.145-.644.586-1.305 1.105-2.684 1.92-6.447 3.714-4.725 2.933-6.594 6.187-1.672-3.297-3.027-5.753-6.413-6.739-2.8-15.246-13.603-14.345-17.422-27.866-1.575-5.82-4.39-8.073-5.54-15.713 0 0-.205-.119-.196.765.57 5.124 4.202 17.013 7.809 22.529 4.912 7.589 11.987 8.991 14.908 20.625 5.075 1.666 5.736 5.898 6.601 7.351-.579 2.507-.114 6.119 2.106 8.43 0 0-.4-.569-.49-.764-.914-1.555-1.281-3.527-1.2-5.329.31-5.991 3.403-6.611 6.749-8.914.4-.272 2.301-1.7 2.48-2.1 1.38.765 3.248.646 4.652.12a.186.186 0 0 1 .04.067c2.318 2.847 4.22 1.53 8.226 6.45 1.803 1.964 1.142 3.485 1.142 7.437.457-2.142 1.053-5.533-.065-7.13 4.161-2.014 7.417-9.272 11.065-11.363 4.724-9.85 12.55-11.268 15.675-24.075 1.51-5.983 2.832-7.113 4.3-13.615.041-.365-.391-.263-.391-.263zm5.443-.595c-2.669 6.467-.84 15.085-5.158 26.166-10.069 27.22-13.129 18.289-19.233 31.623-1.191 2.906-3.256 4.062-6.16 4.716.677-2.898.53-2.592.57-4.997-1.231 11.133-8.42 11.252-14.997 18.076-.882 1.011-1.934 2.439-1.934 2.439-4.684 0-7.45-7.266-10.714-10.215-3.077-2.779-5.239-3.765-5.818-7.963 0 .85-.033 2.023.816 3.646-5.974-1.224-5.24-4.725-10.02-11.651-6.537-9.28-12.298-12.586-14.95-25.087-.849-4.003-6.136-25.682-6.185-26.88-.008 0-.008.008-.017.008a2.793 2.793 0 0 1-.359.17c.09.85.58 4.309 1.012 6.986 5.32 34.078 6.675 29.973 19.2 45.95 5.541 7.249 4.366 9.985 11.637 11.048.408.858 1.975 2.43 2.652 3.076 6.324 6.034 6.716 11.592 13.064 11.592.196-.102.677-.731.832-.892 4.692-5.465 13.342-8.694 15.015-14.66 3.884-.56 5.638-1.394 7.825-5.422 6.92-11.71 9.808-4.47 19.568-30.866 4.333-10.971 1.346-18.382 3.655-26.982l-.301.12z" data-colored="true" data-filltype="sd3" data-stroketype="none" fill="#3d2012"/></g></g><path d="M99.676 37.889z" data-colored="true" data-filltype="tone" data-stroketype="none" fill="#6b4e40" data-updown="0" data-leftright="0" data-dist="0" data-scaleX="1" data-scaleY="1" data-rotate="0"/><g data-updown="0" data-leftright="0" data-dist="0" data-scaleX=".96" data-scaleY="1" data-rotate="0"><path d="M54.776 103.13c-1.977-7.49-3.042-14.05-4.521-20.893l.068-.016c-.56-1.435-2.58-12.798-2.6-12.92-2.06-15.102 4.075-15.964 3.95-22.264 2.583 1.347 5.094.679 7.36-1.16-2.381-1.274-1.63-1.476-4.792-3.48 2.229-.402 3.53.14 5.423.385-1.618-1.685-4.794-5.122-6.857-4.667l-.135-.3c2.987-2.429 6.975 2.626 10.57 1.257.109-13.914 19.64-16.804 24.392-18.871 6.328-2.508 12.939-8.024 17.588-8.516-2.632 2.754-4.244 7.18-4.364 10.502 3.834-3.813 4.105-3.701 9.916-10.423 0 5.409-1.439 6.088-3.306 9.262 5.068-3.459 11.387-13.163 21.119-14.647l.107.314c-3.507 2.152-6.221 5.783-8.077 10.8 1.842-2.317 4.448-4.83 7.333-5.284l.108.313c-1.807 1.126-5.348 4.88-6.158 11.166 3.575-4.159 9.261-7.605 13.165-8.907l.153.294c-3.584 3.037-5.021 8.352-5.831 12.872 2.513-3.892 3.975-4.78 7.137-6.415-1.017 1.585-.951 1.308-1.76 3.03 1.954 5.204 8.415 5.407 9.519 14.498 1.33-1.21 1.858-1.513 3.387-2.628l.23.232c-1.149 1.858-2.096 5.15-2.727 7.352 2.268-1.804 5.771-3.133 8.238-4.06l.172.279c-2.081 2.203-4.608 5.563-5.028 9.207.816-.503.855-.446 1.918-1.246 0 2.618.085 2.284.103 3.488 1.026-.956 1.184-1.09 1.858-1.853-.15 27.502-1.506 22.02-5.155 41.188-.64 3.368-1.772 9.248-2.498 12.073l-4.936.883c1.526-19.03-.076-14.882 1.034-26.858 1.642-17.658-12.08-32.134-30.212-27.396-3.669.959-18.311.958-21.978 0-20.03-5.237-27.247 6.952-29.398 28.28-1.053 10.469-1.31 6.936.218 25.974l-4.733-.845z" data-colored="true" data-filltype="tone" data-stroketype="none" fill="#6b4e40"/><path d="M150.576 51.685c-.018-1.205-.104-.87-.104-3.488-1.062.8-1.102.742-1.918 1.245.42-3.644 2.947-7.003 5.029-9.207l-.173-.278c-2.466.928-5.969 2.256-8.238 4.06.63-2.203 1.578-5.494 2.727-7.353l-.23-.23c-1.53 1.113-2.057 1.417-3.387 2.627-1.104-9.09-7.564-9.294-9.52-14.497.81-1.723.744-1.446 1.761-3.03-3.162 1.634-4.624 2.522-7.137 6.414.81-4.52 2.248-9.835 5.83-12.872l-.152-.294c-3.903 1.302-9.59 4.748-13.165 8.906.81-6.285 4.35-10.039 6.158-11.165l-.108-.313c-2.885.454-5.491 2.968-7.333 5.284 1.856-5.017 4.57-8.648 8.077-10.8l-.107-.314c-9.732 1.484-16.05 11.188-21.119 14.647 1.867-3.174 3.306-3.854 3.306-9.262-5.81 6.722-6.082 6.61-9.915 10.423.119-3.322 1.731-7.75 4.363-10.503-4.648.493-11.259 6.008-17.587 8.517-4.753 2.066-24.283 4.956-24.392 18.87-3.595 1.37-7.583-3.685-10.57-1.257l.135.3c2.063-.455 5.24 2.982 6.857 4.668-1.892-.245-3.194-.787-5.423-.386 3.162 2.005 2.41 2.207 4.792 3.48-2.266 1.84-4.777 2.507-7.36 1.16.125 6.302-6.01 7.164-3.95 22.264.02.123 2.04 11.486 2.6 12.921l-.068.016c1.479 6.843 2.544 13.403 4.52 20.893l.022.003c-.54-13.973-8.992-33.837-4.032-46.56.647-1.662 3.15-6.044 3.15-6.044s7.856-1.074 8.226-4.249c0 0-1.632-.85-2.448-1.7 1.632.85 1.632-1.7 3.264-.85 0-1.7-2.448-.85-2.448-2.549 1.632 0 3.264 0 4.896 1.7-.816-4.25 0-8.499 3.264-11.048 8.16-6.799 18.768-5.949 26.928-12.747-.816 4.249-1.632 8.498-1.632 12.747 4.896-2.55 6.528-7.648 10.608-11.048.816 3.4-.816 7.649-.816 11.048 2.448-5.949 5.712-11.898 13.056-13.597-3.264 3.399-3.264 8.498-3.264 12.747 0-3.4 3.264-5.099 4.08-7.648v10.198c1.632-5.1 4.896-7.649 8.976-9.348-3.264 3.399-2.448 6.798-3.264 11.047 2.448-2.55 5.712-3.399 8.16-5.948 2.448 5.098.816 9.348.816 14.447.816-4.25 4.896-6.799 7.344-10.198.816 4.249.816 8.498 0 12.747.816-2.55 2.448-4.25 3.264-6.799 0 4.13-.545 7.702-1.616 11.169 1.024-1.234 2.696-1.794 3.248-3.52v10.22c.473-1.012 1.868-1.366 2.448-2.572-.697 2.9-.207 5.187-.048 7.905.302-1.665 1.842-2.687 2.399-4.22.032-.662.066-1.324.096-1.985.187.775.11 1.414-.096 1.984-.744 15.103-2.116 30.183-5.105 44.725l.529-.094c.726-2.825 1.857-8.706 2.497-12.074 3.65-19.167 5.007-13.685 5.155-41.187-.673.764-.83.897-1.856 1.852z" data-colored="true" data-filltype="hl1" data-stroketype="none" fill="#7a6155"/><path d="M154.984 39.223c-4.038.709-6.859 2.072-9.016 3.612.314-.854 1.79-5.668 3.378-7.69-2.44 1.132-3.852 2.347-4.668 2.982 0-.877-.324-1.89-.481-2.414-.154-.437-.284-.949-1.037-2.226-4.22-6.2-4.483-3.607-7.939-8.354.63-1.539 1.541-3.036 2.685-4.275-3.19.472-4.868 1.764-6.887 3.833-.033.034-.058.068-.082.102 1.266-5.206 3.745-9.72 8.617-11.413-6.025-.228-13.484 4.412-17.234 9.042 1.619-5.423 3.791-8.006 7.018-10.41-2.322-.358-4.598.63-6.398 2.192 2.074-3.736 5.155-6.713 7.63-8.099-.351-.008-.766-.034-1.223 0-.634-.169-4.471.481-5.843 1.097-6.796 2.763-11.741 9.197-13.864 11.285 1.564-2.632 1.64-4.502 1.355-7.24-.535.478-9.478 9.395-9.588 9.51.634-3.662 1.832-5.896 4.096-9.17-4.037-.787-14.143 6.133-20.408 7.98-6.564 1.851-22.851 5.713-22.105 19.29-3.505.697-8.637-5.164-11.327-.246 2.16-1.334 5.02 1.879 7.01 3.714-.816-.138-3.544-.806-4.863.11 1.545.625 2.896 2.492 4.806 3.485a.284.284 0 0 1 .073.034c-1.745.959-3.808 1.728-5.704 1.181-.285-.085-.473-.136-.473-.144-.22-.102-.457-.204-.71-.323h-.008l-.008-.009c-.106-.06-.212-.119-.327-.178.568 4.766-6.378 8.63-5.614 18.713.315 6.205 4.039 25.077 8.72 37.874l.394.122c-1.952-7.33-3.082-14.226-4.544-20.992-.127 0-2.508-12.785-2.53-12.926-2.045-14.983 4.075-16.07 3.958-21.96 2.547 1.327 5.33.371 7.49-1.47-2.543-1.318-2-1.689-4.634-3.356 1.765-.318 3.92.41 5.402.51-1.914-1.994-5.14-5.533-7.328-5.048 2.912-2.367 6.934 2.78 10.633 1.24 0-13.922 19.358-16.686 24.292-18.832 5.933-2.35 13.287-8.053 17.086-8.456-1.99 2.09-4.096 6.715-4.096 10.691 3.944-3.941 4.333-3.922 9.922-10.385 0 5.111-1.833 6.024-3.615 9.323 5.234-3.143 11.57-13.451 21.616-14.983-4.206 2.581-6.883 7.075-8.495 11.873 1.92-2.6 4.733-5.55 7.858-6.043-1.64 1.022-5.598 4.914-6.3 11.838 3.546-4.346 9.455-7.942 13.44-9.271-3.758 3.185-5.196 8.813-6.03 13.784 1.376-2.187 2.74-4.162 4.871-5.558.01-.008.025-.017.033-.017.84-.594.62-.432 2.057-1.181-.546.85-.596.74-1.46 2.583 1.98 5.42 8.586 5.45 9.57 14.847 1.516-1.4 1.992-1.652 3.607-2.83-1.258 2.034-2.272 5.752-2.897 7.92 2.37-2.111 6.756-3.68 8.6-4.376-2.447 2.592-4.824 6.03-5.107 9.654.5-.351 1.137-.63 1.95-1.241 0 2.315.106 2.006.106 3.535.43-.408 1.404-1.283 1.853-1.793-.16 26.953-1.534 21.725-5.15 40.716-1.353 7.118-2.067 10.41-2.514 12.138l.35-.074c2.924-9.137 8.761-29.78 8.497-40.466-.027-3.994-.864-12.322-.905-13.172-.018.015-1.7 1.674-1.722 1.674 0-.434-.171-2.282-.171-3.289-.289.23-.894.661-1.706 1.156 1.125-3.538 2.838-5.736 6.038-9.73z" data-colored="true" data-filltype="sd3" data-stroketype="none" fill="#3d2012"/></g><path d="M99.676 37.889z" data-colored="true" data-filltype="tone" data-stroketype="none" fill="#26120b" data-updown="0" data-leftright="0" data-dist="0" data-scaleX="1" data-scaleY="1" data-rotate="0"/></g></g><defs><radialGradient id="h" cx="100" cy="114" r="41" gradientUnits="userSpaceOnUse" class="svga-on-canvas-facehighlight-gradient-single-0"><stop stop-opacity=".5" stop-color="#ffe4d6" offset="0" data-stoptype="hl1"/><stop stop-opacity="0" stop-color="#f0c7b1" offset=".9" data-stoptype="tone"/></radialGradient><radialGradient id="i" cx="100" cy="54" r="37" gradientUnits="userSpaceOnUse" class="svga-on-canvas-facehighlight-gradient-single-1"><stop stop-opacity=".5" stop-color="#ffe4d6" offset="0" data-stoptype="hl1"/><stop stop-opacity="0" stop-color="#f0c7b1" offset=".9" data-stoptype="tone"/></radialGradient><radialGradient id="b" cx="125.379" cy="82.93" r="12.84" gradientTransform="matrix(-1.0592 .0004 -.0004 .9318 206.511 5.177)" gradientUnits="userSpaceOnUse" class="svga-on-canvas-eyesback-gradient-left-0"><stop stop-color="#fff" offset="0" data-stoptype="#ffffff"/><stop stop-color="#fdfefe" offset=".544" data-stoptype="#fdfefe"/><stop stop-color="#f6f8f9" offset=".74" data-stoptype="#f6f8f9"/><stop stop-color="#eaeff2" offset=".879" data-stoptype="#eaeff2"/><stop stop-color="#d9e3e8" offset=".992" data-stoptype="#d9e3e8"/><stop stop-color="#d8e2e7" offset="1" data-stoptype="#d8e2e7"/></radialGradient><radialGradient id="e" cx="125.001" cy="82.93" r="12.841" gradientTransform="matrix(1.0592 .0004 .0004 .9318 -6.511 5.177)" gradientUnits="userSpaceOnUse" class="svga-on-canvas-eyesback-gradient-right-0"><stop stop-color="#fff" offset="0" data-stoptype="#ffffff"/><stop stop-color="#fdfefe" offset=".544" data-stoptype="#fdfefe"/><stop stop-color="#f6f8f9" offset=".74" data-stoptype="#f6f8f9"/><stop stop-color="#eaeff2" offset=".879" data-stoptype="#eaeff2"/><stop stop-color="#d9e3e8" offset=".992" data-stoptype="#d9e3e8"/><stop stop-color="#d8e2e7" offset="1" data-stoptype="#d8e2e7"/></radialGradient><radialGradient id="c" cx="123.218" cy="81.096" fx="133.802" fy="77.197" r="17.898" gradientTransform="matrix(.9998 .0183 .0166 -.7038 -47.759 136.625)" gradientUnits="userSpaceOnUse" class="svga-on-canvas-eyesfront-gradient-left-3"><stop stop-color="#e1ac8f" offset="0" data-stoptype="sd1"/><stop stop-opacity=".3" stop-color="#e1ac8f" offset=".7" data-stoptype="sd1"/><stop stop-opacity="0" stop-color="#f0c7b1" offset="1" data-stoptype="tone"/></radialGradient><radialGradient id="d" cx="79.496" cy="81.496" r="23.208" gradientTransform="matrix(1.0971 -.0499 .0576 .9543 -20.163 27.912)" gradientUnits="userSpaceOnUse" class="svga-on-canvas-eyesfront-gradient-left-4"><stop stop-opacity="0" offset=".9" data-stoptype="#000000"/><stop stop-opacity=".2" offset="1" data-stoptype="#000000"/></radialGradient><radialGradient id="f" cx="122.818" cy="81.096" fx="133.402" fy="77.197" r="17.898" gradientTransform="matrix(-.9998 .0183 -.0166 -.7038 246.96 136.633)" gradientUnits="userSpaceOnUse" class="svga-on-canvas-eyesfront-gradient-right-3"><stop stop-color="#e1ac8f" offset="0" data-stoptype="sd1"/><stop stop-opacity=".3" stop-color="#e1ac8f" offset=".7" data-stoptype="sd1"/><stop stop-opacity="0" stop-color="#f0c7b1" offset="1" data-stoptype="tone"/></radialGradient><radialGradient id="g" cx="79.859" cy="81.511" r="23.208" gradientTransform="matrix(-1.0971 -.0499 -.0576 .9543 220.163 27.916)" gradientUnits="userSpaceOnUse" class="svga-on-canvas-eyesfront-gradient-right-4"><stop stop-opacity="0" offset=".9" data-stoptype="#000000"/><stop stop-opacity=".2" offset="1" data-stoptype="#000000"/></radialGradient><linearGradient id="a" x1="100" y1="172" x2="100" y2="130" gradientUnits="userSpaceOnUse" class="svga-on-canvas-chinshadow-gradient-single-0"><stop stop-opacity=".8" stop-color="#e1ac8f" offset="0" data-stoptype="sd1"/><stop stop-color="#c27b55" offset=".7" data-stoptype="sd3"/></linearGradient></defs></svg>