<svg xmlns="http://www.w3.org/2000/svg" width="1350" height="1350" viewBox="0 0 1350 1350"><path fill="#EEE" d="M0 0h1350v1350H0z"/><path fill="#F0C7B1" d="M1083.8 1183.5c-9.4-20.3-35-50.4-63.7-58.8-35.2-10.3-115-22.7-144.4-29.6-23.7-5.5-71.4-48.3-88-62.7-3-2.6-5.5-8-5.6-11.8-.6-46.6 18-170.2 18-170.2H550s18.6 123.6 18 170.2c0 4-2.5 9.2-5.5 11.8-16.7 14.4-64.4 57.2-88 62.8-29.7 7-109.3 20-144.6 30.2-28.7 8.3-54.4 38-63.8 58.3-16 34.3-19.6 96.4-19.6 150h856.8c0-53.6-3.7-115.7-19.6-150z"/><path fill="#FFE4D6" d="M928.4 1116.2c104.3 15 148.2 37.3 162 217.3h13c0-53.6-3.7-115.7-19.6-150-9.4-20.3-35-50.4-63.7-58.8-35.2-10.3-115-22.7-144.4-29.6-23.7-5.5-78-51.6-92.7-70 14.3 20.2 54.7 67 90 79 17 6 31 8.6 55.4 12.2zm-451.5-12c35.3-12.3 75.7-59 90-79.2-14.4 18.4-69 64.5-92.6 70-29.5 7-109.2 20-144.5 30.2-28.7 8.3-54.4 38-63.8 58.3-16 34.3-19.6 96.4-19.6 150h13c13.7-179 57.8-202.2 162-217.3 24.3-3.6 38.4-6.2 55.3-12z"/><path fill="#E1AC8F" d="M656.3 1174.3s-21.7-7-30.3-10.2c-44.8-17-190.2-28.2-190.2-28.2s153.2 6 187 12c-2-20.5-13-85.8-13-85.8s22 72 27.5 90.2c3 9.7 19 22 19 22zm46.3-5.8l-1.3 1.2 1.3-1.2zm-46.3 5.8s12.4 12.8 18.7 13c8.2.2 20.7-12.5 26.3-17.6-5.4 4-17.8 6-22.7 6-5.7.3-22.3-1.4-22.3-1.4zm90-32.2c-6.5 1-18.7 3.4-18.7 3.4l9.8-63.8c-2.8 13.2-19.2 69.5-34.8 87 8.2-7 26.4-10.3 35.7-11.7 43.8-6.4 43.8-6.4 176-21.2 0 0-124.7-.7-168 6.3z"/><path fill="none" stroke="#C27B55" stroke-width="1.5" d="M1083.8 1183.5c-9.4-20.3-35-50.4-63.7-58.8-35.2-10.3-115-22.7-144.4-29.6-23.7-5.5-71.4-48.3-88-62.7-3-2.6-5.5-8-5.6-11.8-.6-46.6 18-170.2 18-170.2H550s18.6 123.6 18 170.2c0 4-2.5 9.2-5.5 11.8-16.7 14.4-64.4 57.2-88 62.8-29.7 7-109.3 20-144.6 30.2-28.7 8.3-54.4 38-63.8 58.3-16 34.3-19.6 96.4-19.6 150h856.8c0-53.6-3.7-115.7-19.6-150z"/><linearGradient id="a" gradientUnits="userSpaceOnUse" x1="-581.2" y1="986.1" x2="-581.2" y2="1031.9" gradientTransform="matrix(4.6 0 0 -4.6 3342.57 5590.84)"><stop offset="0" stop-color="#E1AC8F" stop-opacity=".8"/><stop offset=".7" stop-color="#C27B55"/></linearGradient><path fill="url(#a)" d="M570 1026.2c30 19.4 70 37.7 105 37.7 33.5 0 74.3-18.5 104.8-38-.6-2-1-3.8-1-5.5-.6-42.3 14.3-145.7 17.4-167H553.8c3 21.3 18 124.7 17.4 167 0 1.8-.4 3.8-1 5.7z"/><path fill="#F3F1F3" d="M798.6 1347.2h-249v-240.7c95.3 20 158 18.6 249 0v240.7z"/><path fill="#131111" d="M707 1346c-12 0-46 1-71-1v-.7c-3.4-80 5-131.6 19.5-168.3l.2-.5-.4-.4c-3.8-3.8-10.4-8.2-17.2-13-6.8-4.6-14-9.4-18.5-13.8 2.7-3 6-6.2 10-9.4 1-.6 5-3.6 25.6-21.3l1.7-1.4c3.5-.6 9-1 16-1 9.4 0 20.3.8 28 2.3 6.6 6.2 14.7 22.8 17.7 30.7-4.2 9.8-9 13.4-16 18.4-3.2 2.4-7 5-11.3 9l-.2.3v.5c17.3 87 17.3 107.4 17.3 127 0 8.7 0 28.3 1.6 42.8h-3z"/><path d="M719.3 1148c-3.2-8.5-11.6-25.4-18.3-31.5-12.3-2.4-34.2-3.6-45-1-.3.4-26.6 23-27 22.5-3.8 3-7.5 6.5-10.7 10.3 9 8.8 28.5 19.5 36.4 27.4-15.6 39.3-22.8 92.5-19.5 168.7v1.4c29 2.3 71 1.5 75.3 1-5-48.4 6.2-44.8-18.8-170.7 13.2-12 21.3-12.8 27.6-28zm-22.5 81.6c0-.2 0-.4-.2-.6 8.6 45.2 6 80 12.4 115.6-20.3-1.4-51.5-.2-71.8-.2 1.5-31 5-135.8 20.3-170.3.7 0 1.4-.2 2.2-.4l-4.5 148.8 11.8-150.2h.3l7.7 139.6 1.8-140.2h.3l18 155.7-9.8-154.8 4 1h.5c.4 4.4 4 36 7 56zm-3.7-59.2c-11.8-5.3-27.2-4.3-39 1-7.2-7.7-17.5-13-32.3-23 2.4-2 5.4-4.6 9.5-7.8.3 0 15-12 15-12 4-3.7 7.6-7.8 11-11.3 12.5-.5 31 0 42 .6 6.4 8 12.6 20 17.2 29.6-8.4 12.3-16.7 17.8-23.3 22.8z"/><path fill="#F3F1F4" d="M581.6 1240.5c-49.4-171.7-27-126.7-40.3-194.2 8.7-20.6 17-44.7 21.6-49.7l.3-.3c9.8 102.8 38.3 58.4 102 118.7-36.5 24.3-70 87.2-83.7 125.5zm227-194.2c-6.2-15.8-17.4-39-22.3-44.2 6 88.7-65 71-104.3 112.3 37.7 24.5 73.5 88.5 86.4 126.2 56.2-186.4 26-104.6 40.2-194.2z"/><path fill="#CFC8D7" d="M785.5 1000c0 22-1.8 39.4-5.4 44.4-10.3 25-56 42.2-70 49.3-10.8 5.3-21.3 12-29.3 20.8 16.3 10.6 24.4 14.5 55.3 62 18.2 30.3 28 53.2 32.4 67 57.3-190 26.7-107.2 41-197.3-6.7-17.5-19.6-42.2-24-46zm15.7 83.8c-8.4 77.4-15 62-33.2 146.4-11.6-37-47.4-98.2-83.2-116 16.8-12.7 21.5-13.5 41.6-22.7 61.7-27.5 64.2-53 60.6-86.8 5.2 6 13.4 26.4 20 40.8-3.6 13.5-5.2 32.7-5.8 38.3zM586 1064c-19-15.6-13.7-35-22.4-69.4-3.8 4.3-13.4 28.4-23.2 51.6 2.4 12 3 31.7 3.3 38 2.4 52.2 7.5 54.6 37.8 159 13-38 49.5-104.3 86.7-128.4-29.7-27-67-37.4-82.3-50.7zm23.3 109.4c-9.5 15.7-19.4 32-27.3 56.8-19-86.8-25.7-72.6-33-146.3-1.5-12.8-2.8-26-6-38.5 7-15.4 17-44 20-47 6 30.2.4 57.6 24.4 72.7 11.3 8.6 47.6 22.8 75 44.4-16.6 10-25.6 15.7-53 57.8z"/><path fill="#E1E0E1" d="M762 1226.6l-5-11.4s39-120.7 46-155.2c3.8 35.8-41 166.6-41 166.6zm-177.5-4.8l6.2-14S554 1094.6 547 1060c-3.8 35.8 37.5 161.8 37.5 161.8z"/><path fill="#323E4C" d="M781.2 1165.6c30.3-89.2 11.8-96.6 27-126.2.6-1 6 4.5 6.6 7 5.6 24.3 228.5 74.3 235.6 79.7 6.2 4.6 24.2 13.5 24.2 13.5 21 39 33.2 46 39.2 150 .5 13-.3 50.5-.3 60.5l-366.5-3c.8-33.3 5-93.3 34.2-181.4zm-212.4 0c-30.3-89.2-11.8-96.6-27-126.2-.6-1-6 4.5-6.6 7-5.6 24.3-228.5 74.3-235.6 79.7-6.2 4.6-24.2 13.5-24.2 13.5-21 39-33.2 46-39.2 150-.5 13 .3 50.5.3 60.5l366.5-3c-.8-33.3-5-93.3-34.2-181.4z"/><path fill="#222E3D" d="M804.8 1141.6c-19.5 70.2-46 133.3-57.8 205.5-3.8 0 6.4-97 34.2-181.4 30.3-89.2 11.8-96.6 27-126.2.3-.6-2.7 8.5-1 10.4-.6 33 7.6 58.7-2.4 91.8zm-259.6 0c19.5 70.2 46 133.3 57.8 205.5 3.8 0-6.4-97-34.2-181.4-30.3-89.2-11.8-96.6-27-126.2-.3-.6 2.6 8.5 1 10.4.6 33-7.6 58.7 2.4 91.8z"/><path fill="#15202D" d="M899.6 1124.6s-9.7 11-37 29.7C885.5 1129 896 1119 896 1119l3.6 5.6zm9.4 51l-6.6-6c-19.4 59-32.4 88.2-55 157 32.4-61.5 40-83.2 61.6-151zm-455-56.7s10.6 10 33.3 35.3c-27.2-18.7-37-29.7-37-29.7l3.8-5.7zm48.5 207.5c-22.5-68.7-35.5-97.8-55-157l-6.5 6c21.5 68 29.2 89.6 61.5 151z"/><path fill="#454F5B" d="M1015.2 1267.3c0-49.7 13.3-78.6 41.2-120.6 2.6 1.6 4 2.4 5.8 3.8-29.7 36.8-35.6 71-47 116.8zM852 1316c26.2-71.6 34.5-99.5 52-147.3-5-1.5-37.3-12.8-42.2-14.3 1.7 4.2 13.3 7.8 33.5 20 0 0-21.8 66-43.3 141.6zm35.2-197.6S873 1136 858.7 1154c14.5-11.4 24.6-24 37.2-35-17.2-14.5-45-36.6-63.2-51.8 14.3 15.2 54.4 51.2 54.4 51.2zm225 231.6h1.3c0-10 .8-47.4.3-60.6-6-104-18-111-39.2-150 0 0-18-8.8-24.2-13.3-5.7-4.3-166.2-42.4-225-68 68.7 47 198.4 64.4 236.8 92.5 18.5 13.6 43.5 129.7 50 199.5zM288 1150.4c2.3-1.7 2.6-1.6 5-3.2 27.8 42 42 70.4 42 120-11.4-45.6-19.3-81.4-47-116.8zm167 24c20-12.2 31.6-15.8 33.4-20-5 1.5-37 12.8-42 14.3 17.3 47.8 25.6 75.8 51.8 147.3-21.5-75.5-43.3-141.5-43.3-141.5zm62.4-107.2c-18 15.2-46 37.3-63 51.7 12.5 11 22.6 23.6 37 35-14-18-28.4-35.6-28.4-35.6s40-36 54.4-51.2zM288 1150.5c38.4-28 168-45.4 236.7-92.4-58.7 25.6-219.2 63.7-225 68-6 4.6-24 13.5-24 13.5-21.2 39-33.3 46-39.3 150-.5 13 .3 50.5.3 60.5h1.2c6.6-69.8 31.6-186 50-199.5z"/><path fill="#0B141E" d="M813 1040.4c0-1.3-1.8-2.7-3-2.8-1.3 0-2 2-2.4 3-15.3 29.7 1.7 35.8-28.5 125-29 88-32.4 149.4-33.3 182.8l367.8 1.6c0-10 2-47.4 1.6-60.6-6-104-18.4-112-39.6-150.7 0 0-18.8-9.4-25-14-21-16-2.5.2-94.4-25.6-75.3-22-79.4-28-106.7-35.7-5.5-1.5-17.4-3.5-29.7-12.2-1.2-.7-6-8-6.5-10.6zm-65.3 304c16-101 26-127.5 48.4-202.6 15.2-47.6 7-74.6 14-96.6.4-1 2-1.2 2.5 0 10.4 26.6 39.6 32.7 80.7 73-25 25-31.3 31.6-34.5 36 3.7 1.8 24 9.4 42.4 16.6-1 3.3-57.4 163-58 165 42.8-92.4 48.3-120.8 61-167-3.6-2.7-34-14-39-15.7 18.2-19 23.5-23 32.2-34 7 0-68-57-71.7-61 2 1.6 11.8 6 13 6.4 62.8 22.2 13 12.2 150.7 51.5 13.2 3.2 31.5 6.6 45 8 1 0 23.2 11.6 36 17-31 32-50.7 73.3-55 126.3 13.8-54.3 21.2-82.6 56.3-123.5 32.6 66 29 56.6 39.5 204.4-88.3-3.4-223.7-4.2-363.3-4zM530.4 1051c-12.3 8.8-24.2 10.8-29.7 12.3-27.3 7.6-31.4 13.8-106.7 35.8-92 26-73.4 9.8-94.4 25.8-6.2 4.5-25 14-25 14-21.2 38.7-33.7 46.6-39.7 150.6-.6 13.2 1.5 50.6 1.5 60.6l367.8-1.6c-1-33.4-4.3-94.7-33.4-182.8-30.3-89.2-13.4-95.3-28.6-125-.5-1-1-3-2.4-3-1.2 0-3 1.6-3 2.8-.6 2.5-5.4 10-6.6 10.7zM239 1348.3c10.6-147.8 6.8-138.3 39.5-204.4 35 41 42.5 69.2 56.3 123.5-4.4-53-24-94.4-55-126.4 12.8-5.4 35-17 36-17 13.5-1.4 31.8-4.8 45-8 137.7-39.4 88-29.4 150.8-51.6 1-.4 11-4.8 13-6.3-3.8 4-78.7 61-71.8 61 8.7 11 14 15 32.3 34-5 2-35.4 13-39 15.7 12.7 46.3 18.2 74.7 61 167-.6-2-57-161.6-58-165 18.4-7 38.6-14.7 42.3-16.6-3.2-4.2-9.6-11-34.5-35.8 41-40.3 70.3-46.4 80.7-73 .4-1.2 2-1 2.4 0 7 22-1.2 49 14 96.6 22.2 75 32.3 101.6 48.3 202.5-139.6-.3-275 .5-363.3 4z"/><g><path fill="#F0C7B1" stroke="#C27B55" stroke-width="1.5" d="M454.4 684.2c-6-10.5-24.2-36.3-42.8-30-11.8 4-14 17-16 28.7-2.5 15.3 2 45.7 6 56.7 3.7 10.6 15 31 22.5 38.7 9.2 9.6 20.6 40 22.4 43 2.8 5 6.5 12.6 17.6 11.7 12.2-1 19.7-8 25-9 13.6-3-19.3-112.4-34.6-139.8z"/><path fill="#C27B55" d="M442.3 748c-.5-2.6 0-6.8.7-10.8.5-3.7 1-7.2.7-9.6-1.2-9.3-7.6-26.8-11.8-36.3-5-11-12.8-24.7-22.7-28.3-4-1.5-6.7.3-8.3 2-1 1.4-1.4 3-1 3 .4.3 1.2-1 2.5-2.2 1-1 2.4-1.8 4.5-1.6-1 4.6-5 29.4-3.2 46.4 1.4 13.4 6.8 23.3 7.6 24.8l.7 4.6c4 19.5 21.4 41.7 27.4 49 1 1.3 2.3 2 2.6 1.7.2-.3-.4-1.6-1.6-3-6-7.2-23-29.2-27-48-4-20 10-49.5 13.2-55.8 1.6 2.8 3 5.7 4 8l2.6 6.4c-1.8 3.2-14.7 27-10 46 1.7 7 9.6 16.2 14.7 18.6 2.8 1.4 4 3.5 5 5.8 1.6 2.8 3.2 6 8 8 1 .6 1.8.8 2.6.8 1.3 0 2.3-.6 3-1.3.2 1.2.2 2.8 0 4.2 0 1.8.3 3.3.7 3.4.4 0 .8-1.6 1-3.4 0-2.2 0-5-.4-6.4-1.2-4-4.4-8.3-8-13-3.3-4.7-6.8-9.4-7.7-13.3zm-31-17.3c-9.3-30.6 2.8-57 5-61.2 3.5 3.5 6.8 8.2 9.4 12.8-2 3.7-14 27.8-14.4 48.4zm40.2 44.7c-4.3-2-5.7-4.8-7-7.4-1.4-2.4-2.7-5-6-6.5-.7-.3-1.5-.8-2.3-1.5-10.6-26.8 1.2-38.5 4-41 1 3.4 1.7 6.4 2 8.8.3 2.2-.2 5.7-.7 9-.6 4.3-1.2 8.7-.6 11.5 1 4.2 4.5 9.2 8 14 3 4.2 6.3 8.5 7.4 12-.5.8-2 2.5-5 1z"/><path fill="#F0C7B1" stroke="#C27B55" stroke-width="1.5" d="M894.5 684.2c6-10.5 24.2-36.3 42.8-30 11.7 4 14 17 16 28.7 2.5 15.3-2 45.7-6 56.7-3.8 10.6-15 31-22.5 38.7-9.2 9.6-20.5 40-22.3 43-2.8 5-6.6 12.6-17.6 11.7-12.4-1-19.8-8-25.2-9-13.5-3 19.4-112.4 34.7-139.8z"/><path fill="#C27B55" d="M898.8 761.2c-3.5 4.7-6.7 9-7.8 13-.4 1.4-.4 4-.3 6.4 0 1.8.5 3.3 1 3.3.3-.2.5-1.7.4-3.5 0-1.4 0-3 .2-4.2.7.7 1.8 1.3 3 1.3 1 0 1.7-.2 2.7-.7 4.7-2.3 6.3-5.4 7.7-8.2 1.3-2.3 2.4-4.4 5.2-5.8 5-2.4 13-11.5 14.7-18.5 4.7-19-8.2-43-10-46.2l2.6-6.3c1-2.3 2.4-5.2 4-8 3 6.2 17 35.7 13 55.7-3.8 18.8-21 40.8-27 48-1 1.4-1.7 2.7-1.4 3 .2.3 1.4-.4 2.5-1.8 6-7.3 23.3-29.5 27.3-49 .3-1.5.5-3 .6-4.6 1-1.5 6.3-11.4 7.7-24.8 2-17-2.3-41.8-3-46.4 2-.2 3.4.6 4.4 1.6 1.3 1.2 2 2.5 2.5 2.3.2 0 0-1.6-1-3-1.7-1.7-4.4-3.5-8.4-2-10 3.6-17.7 17.3-22.6 28.3-4.2 9.5-10.7 27-11.8 36.2-.3 2.5.2 6 .7 9.7.5 4 1 8.2.5 10.7-1 3.8-4.4 8.5-7.7 13.2zm24.4-79c2.6-4.5 5.8-9.2 9.5-12.7 2 4.2 14.2 30.6 5 61-.5-20.4-12.6-44.5-14.5-48.2zm-30.7 92.2c1-3.6 4.3-8 7.4-12.2 3.4-4.7 7-9.7 8-14 .6-2.7 0-7-.6-11.3-.5-3.5-1-7-.7-9.2.2-2.4 1-5.4 1.8-8.7 3 2.5 14.8 14.2 4.2 41-.8.7-1.6 1.2-2.4 1.5-3.3 1.6-4.6 4-5.8 6.5-1.4 2.6-3 5.4-7.2 7.4-3 1.4-4.3-.3-4.8-1z"/><path fill="#F0C7B1" d="M675 331.4c-141 .2-255.8 118.5-255.6 264.3 0 23 3 45.5 8.5 67 0 .2 43 134.6 54.2 188.6 10 48.4 54.4 87.7 74.4 109 23 24.7 51.7 61 118.4 60.8 66.7.4 95.4-36 118.4-60.6 20-21.4 64.4-60.7 74.4-109 11.2-54 54.3-188.5 54.4-188.8 5.4-21.4 8.3-43.8 8.4-67 .2-145.7-114.4-264-255.6-264.2z"/><path fill="#E8B9A0" d="M815.5 375c61.3 48 101.3 126.4 101.2 215 0 23-2.8 45.5-8 67 0 0-40.8 134.5-51.4 188.6-9.4 48.4-51.4 87.6-70.3 109-21.7 24.6-49 61-112 60.7-63 .3-90.2-36-112-60.7-19-21.4-61-60.6-70.3-109-10.6-54-51.4-188.5-51.4-188.7-5.2-21.5-8-44-8-67 0-88.6 40-167 101.2-215-69.4 47.3-115.2 128.5-115 220.7 0 23 3 45.5 8.4 67 0 .2 43 134.6 54.2 188.6 10 48.4 54.4 87.7 74.4 109 23 24.7 51.7 61 118.4 60.8 66.7.4 95.4-36 118.4-60.6 20-21.4 64.4-60.7 74.4-109 11.2-54 54.3-188.5 54.4-188.8 5.4-21.4 8.3-43.8 8.4-67 0-92-45.7-173.3-115-220.6z"/><path fill="none" stroke="#C27B55" stroke-width="1.5" d="M686.7 331.4c-144 .2-261 118.5-260.7 264.3 0 23 3 45.6 8.5 67 0 .2 44 134.7 55.5 188.7 10.2 48.4 55.5 87.7 76 109 23.4 24.7 52.7 61 120.7 60.8 68 .3 97.4-36 120.8-60.7 20.4-21.4 65.8-60.7 76-109 11.4-54 55.4-188.6 55.4-188.8 5.5-21.4 8.5-44 8.5-67 .2-145.8-116.7-264-260.8-264.3z" transform="matrix(.98 0 0 1 2 .01)"/><path fill="#C27B55" d="M676.5 935.7c-6.6 0-13-1-16.8-2.4-1-.4-1.6-1.7-1.2-2.8.5-1 1.7-1.6 2.8-1.2 7 2.8 25 3 33-.8 1-.5 2.4 0 3 1 .4 1 0 2.4-1.2 3-4.7 2-12.2 3.2-19.5 3.2zm63-36.4c1.6-.7 2.4-2.7 1.6-4.4-.6-1.8-2.6-2.6-4.3-2-50 21.5-123 1.6-123.8 1.4-2-.5-3.8.5-4.3 2.3-.5 1.8.6 3.7 2.3 4.2 2 .4 33 9 68.7 9 19.8 0 41-2.7 59.7-10.7z"/><g transform="matrix(.9 0 0 .9 7.3 8.4)"><radialGradient id="b" cx="-46.6" cy="1362.9" r="12" gradientTransform="matrix(-3.54 0 0 -3.12 449.32 4997.55)" gradientUnits="userSpaceOnUse"><stop offset="0" stop-color="#FFF"/><stop offset=".5" stop-color="#FDFEFE"/><stop offset=".7" stop-color="#F6F8F9"/><stop offset=".9" stop-color="#EAEFF2"/><stop offset="1" stop-color="#D9E3E8"/><stop offset="1" stop-color="#D8E2E7"/></radialGradient><path fill="url(#b)" d="M656.7 776.5c-14-3.3-21.3 4.6-42 5-34.5.8-42.6-2.6-48-11.3-2.2-3.5-4.4-8.2-5.4-11l-.4-18c5.5-16.8 83.6-18.5 110.8 7.8 1.2 2.8 2 5.5 2 8-.8 4-2.2 8-4 11.7-3 3.5-7.6 6-13 7.8z"/></g><path fill="#7485BF" stroke="#2D4391" stroke-width=".427" d="M585.6 694.3c-3.2 11.7-15.3 18.6-27 15.4-11.7-3.2-18.6-15.3-15.4-27 3.2-11.7 15.2-18.6 27-15.4 11.7 3.2 18.6 15.3 15.4 27z"/><path fill="#92A0CE" d="M582.2 694.6c-3.2 9-12.5 14.2-21.6 11.7-8.5-2.3-13.8-10.4-13-19 3-.2 6.4-.2 10 0v.3c-1.3 4 1.4 8.4 5.7 9.6 4.4 1.2 8.8-1.2 10-5.3v-1.7c3 1 6 2.5 9 4.3z"/><path opacity=".9" d="M567.4 682c-4.5-1.3-9 1.2-10 5.6-1.2 4.3 1.4 9 5.8 10.2 4.4 1.2 9-1.3 10-5.6 1.2-4.4-1.4-9-5.8-10.3zm1 15.4c-2 .6-3.8 0-4.3-1.6-.4-1.5.7-3.2 2.5-3.8 2-.5 3.8.2 4.3 1.7s-.6 3.2-2.5 3.7z"/><path opacity=".6" fill="#FFF" d="M552.7 700c-1.4 1-3.4.2-4.5-1.6-1.2-1.7-1-3.7.3-4.5 1.4-1 3.4-.2 4.6 1.5 1.2 1.7 1 3.8-.3 4.6z"/><path opacity=".8" fill="#FFF" d="M581.6 687.5c-3 2-7.7.2-10.4-3.7-2.6-4-2.2-8.6 1-10.5 3-1.8 7.6 0 10.3 3.8 2.6 4 2.2 8.7-1 10.5z"/><g transform="matrix(.9 0 0 .9 7.3 8.4)"><radialGradient id="c" cx="-708.5" cy="949.7" r="16.7" fx="-698.6" fy="946.1" gradientTransform="matrix(3.3 .1 -.1 2.4 3052.7 -1447.9)" gradientUnits="userSpaceOnUse"><stop offset="0" stop-color="#E1AC8F"/><stop offset=".7" stop-color="#E1AC8F" stop-opacity=".3"/><stop offset="1" stop-color="#F0C7B1" stop-opacity="0"/></radialGradient><path fill="url(#c)" d="M556.6 747.8c0 32.3 32.7 58.3 73 58 40.2 0 72.7-26.4 72.6-58.6 0-32.3-32.7-58.3-73-58.2-40.2.2-72.7 26.5-72.6 58.8zm4.7 11.3l-.4-17.7c5.5-17 83.6-18.6 110.8 7.7 6 13.8-1.7 23.4-15 27.5-14.2-3.3-21.4 4.6-42 5-34.6.8-42.7-2.6-48-11.3-2.3-3.5-4.5-8.2-5.5-11z"/><path fill="#C27B55" d="M684 742.6c-41-24.7-71.5-26.3-120.4-23 41-6.6 88-2 120.5 23z"/><path fill="#09152E" d="M678.8 760c-14-35.5-111-35.7-117.5-17.8V759c-4.4-6.7-4.5-7-6.4-14.7l-9.5 3.2s11.8-16.6 22.7-18.8c95-19 109.8 25.7 110.6 31.4zm-15 17.8c-19.7-8.5-25.4 1.6-49.5 2-34.3.8-41-3.2-47.6-10.5 3.4 9 6 13.2 46.6 13 23-.2 35.6-9.7 50.6-4.5z"/></g><g transform="matrix(.9 0 0 .9 12.6 8.4)"><radialGradient id="d" cx="-707.5" cy="1362.6" r="12" gradientTransform="matrix(3.5 0 0 -3.1 3369 4997.6)" gradientUnits="userSpaceOnUse"><stop offset="0" stop-color="#FFF"/><stop offset=".5" stop-color="#FDFEFE"/><stop offset=".7" stop-color="#F6F8F9"/><stop offset=".9" stop-color="#EAEFF2"/><stop offset="1" stop-color="#D9E3E8"/><stop offset="1" stop-color="#D8E2E7"/></radialGradient><path fill="url(#d)" d="M819.3 776.5c14-3.3 21.3 4.6 42 5 34.5.8 42.6-2.6 48-11.3 2.2-3.5 4.4-8.2 5.4-11l.4-18c-5.6-16.8-83.6-18.5-110.8 7.8-1.3 2.8-2 5.5-2 8 .8 4 2.2 8 4 11.7 3 3.5 7.6 6 13 7.8z"/></g><path fill="#7485BF" stroke="#2D4391" stroke-width=".427" d="M806.7 694.3c-3 11.7-15.2 18.6-27 15.4-11.6-3.2-18.6-15.3-15.4-27 3.2-11.7 15.3-18.6 27-15.4 11.7 3.2 18.6 15.3 15.4 27z"/><path fill="#92A0CE" d="M803.3 694.6c-3 9-12.5 14.2-21.6 11.7-8.4-2.3-13.7-10.4-13-19 3-.2 6.5-.2 10 0v.3c-1.2 4 1.4 8.4 5.8 9.6 4.3 1.2 8.7-1.2 10-5.3v-1.7c3 1 6 2.5 8.8 4.3z"/><path opacity=".9" d="M788.5 682c-4.4-1.3-9 1.2-10 5.6-1.2 4.3 1.5 9 6 10.2 4.3 1.2 8.8-1.3 10-5.6 1-4.4-1.6-9-6-10.3zm1 15.4c-2 .6-3.8 0-4.3-1.6-.4-1.5.6-3.2 2.5-3.8 1.8-.5 3.7.2 4.2 1.7.4 1.5-.7 3.2-2.5 3.7z"/><path opacity=".6" fill="#FFF" d="M774 700c-1.5 1-3.5.2-4.7-1.6-1-1.7-1-3.7.4-4.5 1.3-1 3.4-.2 4.5 1.5 1.2 1.7 1 3.8-.3 4.6z"/><path opacity=".8" fill="#FFF" d="M802.8 687.5c-3 2-7.8.2-10.4-3.7-2.6-4-2.3-8.6 1-10.5 3-1.8 7.6 0 10.2 3.8 2.7 4 2.3 8.7-.8 10.5z"/><path fill="#C27B55" d="M725.4 676.74c36.9-22.23 64.26-23.67 108.36-20.7-36.9-5.94-79.2-1.8-108.45 20.7z"/><path fill="#09152E" d="M829.62 664.23c9.9 1.98 20.43 16.92 20.43 16.92l-8.46-2.88c-1.62 6.84-1.8 7.2-5.67 13.14V676.2c-5.76-16.2-93.24-15.93-105.75 16.2.72-5.22 13.95-45.36 99.54-28.35zm-40.5 48.24c36.54.18 38.7-3.6 41.85-11.7-6.03 6.66-12.06 10.17-42.84 9.54-21.6-.54-26.82-9.63-44.64-1.98 13.5-4.68 24.93 3.87 45.63 4.05z"/><g><path fill="#FEF6E1" d="M480 642.4c28.8-36 78.4-30 119-24.3 10.3 1.6 21 2.7 31 5.3 7.4 1.8 13 10 7.3 16.7-2.8 3.2-8.7 2.6-12.4 2.6-48.8-1-103.8-29-145-.2z"/></g><g><path fill="#FEF6E1" d="M870.3 641c-8.3-5.6-17.2-9.5-27-11.2-36.8-6-106.5 18.5-125 13.3-11-3-8.8-14.3-3.8-17 3-1.7 3.8-1.7 30.5-6.3 45.3-7.8 96-14 125.3 21.3z"/></g><g><path fill="#E1AC8F" d="M671 713.2s-3.7 87.6-3.2 107c0 5.3 10.7 19.7 10 30 0 0-20.6-1.4-27.2-3.8-7-2.4-17.8-7.3-13.5-20.7 6-19.2 34-112.5 34-112.5z"/><path fill="#C27B55" d="M669.2 840s-8.5-3-14-3c-4.8.3-5.5-3-5-4.8.5-2 2.2-3 7-1.8 4.6 1.3 12 9.6 12 9.6zm12.6 0s8.5-2.8 14-2.8c4.8 0 5.5-3.2 5-5-.5-2-2.2-3-7-1.8-4.6 1.3-12 9.6-12 9.6z"/></g><g><path fill="#FEF6E1" d="M897.4 750c-19-53.2 3-135-34.4-195.4-17-29-32-48.8-29.2-82.5l-1.5-.5c-3.7 5.8-8.4 12-11.6 16 1.8-4.5 4.8-11.7 7.4-17l-1.3-1c-11 13-20.2 20-33 23.5 14-10 29.2-27.2 36-36.8l-1.3-1.2c-47.5 31.2-101.4 31.6-149 32-43 .3-69.6-.7-100.6-19-22.3 7.5-40 6.6-59.2-7-60.5 119.7-33.7 59.7-69.8 281.7-21-28.6-27-46.8-32-74-1.4-8.7-2.7-22-2-31l-.2-.2c-18.7-41.8-27.5-65.7-23-148.7 3.2-34.4 10.6-60.3 31.7-87.4-2.7-14.7-3-29.5-1-43.7-11.2-20.7-18.8-42-21.8-49.6 15.5 12.2 16.8 13 29.7 17 3-8.2 7.2-16.4 10-20.7 1.3 9.5 2.2 16 5 25.3l7 2c-.8-5.7-1.6-8.4-1.5-13.5 2.4 5.7 4.5 7 11.4 15.7 7.8 1.6 6 1.4 8.3 1.4-11.2-17.8-18.8-33.7-20.7-57.8 15.3 9 36.8 14 59.2 14 52.6 0 106.5-40.3 181.2-40.3 64.8 0 120.8 36.5 145.7 78.3 0-10.8-.5-19.7 3.3-30.8 0 0 .4 16 .4 28.3h1.7c2.7-14 8.2-26 17.3-37.4-8 22-5 10.2-14 37.2l1.4.8c6-7.8 11-13.4 25.3-20.8-10.4 10.6-18.3 16.7-23.2 24.2l1.3 1c6.2-5.6 12.6-7.7 19-2.6-10.4-3.8-16.5 3-23.7 11.5 27.8 4.7 43 21 62.4 43 45 52.8 56.8 104.5 32.4 177.7 10.4 22.6 8.8 73.4-14 114.3 0 24-16 53.7-28.6 74.3z"/><path fill="#EFE1BC" d="M516.7 457.7l4.5 4.3-1.6-1C459 580.7 486 520.7 449.8 742.7c-21-28.6-27-46.8-32-74-1.4-8.7-2.7-22-2-31l-.2-.2c-18.7-41.8-27.5-65.7-23-148.7 3.2-34.4 10.6-60.3 31.7-87.4-2.7-14.4-3-29-1.2-43 2.6 3.8 5.2 7.4 8 11 1.7 11.2 3.3 22.2.5 31-40 126.3-16.8 184.3 8.4 274.2-10.5-68.2-30-155 23.5-205.6-23 56-16.6 81.5-11 120 3.8-51 21.8-98.6 64.2-131.3zm391-74c-1.6-2-3-3.6-4.6-5.3-1.5 1-3.2 2-4.8 3.2 62.8 131.3 2.5 118.7 17 177.4 16.7 42.8-5 68.5-5 111.3 0-64.2-3-109-37.7-159.2-11.8-17-15-74.5-23-103-97.4 61-241.7 73.8-393.2-49.6 71.4 25.7 217 5.8 266.8-27-56.8 10.5-175.7 11-229-11.3 128-10 126.4-52 235.6-60-52.5-20-167.2 31.2-219.8 31.2-22.4 0-44-5-59.2-14 2 24 9.5 40 20.7 58-2.3 0-.5 0-8.2-1.5-6.8-8.7-9-10-11.3-15.6 0 5.2.7 7.8 1.5 13.5-1.4-.4-6-1.6-7-2-2.8-9.2-3.8-15.7-5-25.3-2.8 4.3-7 12.6-10 21-13-4.3-14.2-5-29.7-17 3 7.5 10.6 28.8 21.7 49.5v.7C449.5 398 486.7 429 521 462c18.7 12.6 36 13.3 57.6 6 31 18.3 57.7 19.3 100.6 19 47.6-.4 101.5-.8 149-32l1.2 1.2c-6.7 9.6-22 27-36 36.8 13-3.6 22.2-10.4 33-23.5l1.5 1c-2.5 5.3-5.5 12.4-7.3 17 3.2-4 8-10.2 11.6-16l1.5.5c-2.7 33.7 12 53.7 29.2 82.6 37.5 60.5 15.3 142.2 34.4 195.4 12.5-20.6 28.6-50.2 28.6-74.3 22.8-41 24.4-91.8 14-114.3 24.5-73.2 12.7-125-32.3-177.8zm3 109.8C909.5 452.7 883 401 883 401c-12.4-22.4-23.5-33-42-37.4 52.2 2.7 72.6 82.2 70.4 123.7-.2 4-.6 6.2-.6 6.2zM792.3 321.2c13.7 11.4 17 14.6 30.6 34-70-128.2-207-31.3-250.5-34.4 44 9.3 143.8-56.5 220 .4zm35.5 55.6c-83.8 71-211.8 41-316.5 7.4 104.3 48.7 237 75 316.5-7.4zm-329.6 77c-27.4 14.8-40.3 51.8-41.5 76.2 5.2-21 20.5-59.8 41.6-76zm-34.5-20.2c-39.3 24.4-47 80.4-43 127.4 4-43.4 11.7-100 43-127.4zm283-53c-4 .8-30.4 4.5-44.7 5-11 .7-54.7 1.4-94-.2 40.5 9 65 10.5 94.5 8.8 34-1.3 64.5-8.2 89.7-29-17.8 9.8-25.4 11.3-45.4 15.3zm141 113.6l-2.5-4.7c-3.8-6.5-8.2-24.3-25-80.3 12.5 103.7 33 84.8 42 138.3 0-19.2-1.3-29-14.5-53.3z"/><path fill="#FFFEFB" d="M918 619.5c1.4-14 .8-7.5 1-15.5 1.2-26.7-14.4-49-5-81.3 8-23.4 12.4-27 9-67.7-.5-6-2-20.4-4.6-25.7 3.6 6.4 6 18.2 7.2 25.4 7 41 1 47-6.4 69.7-10 34.2 9.2 49.2-1.3 95zM849.4 408c4.7 130 30.6 99.8 53.4 178.8-15.6-93-30-16-53.5-178.8zm-391.3 66.3c-38.6 49.5-34.7 85.2-25.2 158.5-.8-74.2-9.7-102.3 25.2-158.5zm-27.7-70.8c-22 70-27 101.5-16.4 177-1.8-75.7-1.4-92.4 16.5-177zm84.7 55.4c-40.4 29.5-61.5 83.8-62.7 130 6.2-44.2 29.4-100 62.7-130zm281-26c-50.7 19-133 24-193.2 5.7-46.8-14-120-60.8-159.3-90.3 35.6 29 98.5 72 142.4 89 45.7 17.4 117.2 23.8 172.6 9.6 38.8-10 59-19.4 91-39-14.3 8-35.3 19.2-53.5 25zM686.7 278c51-9.8 111.3 23.8 143 63.5-33.2-48.5-87.5-72.6-120-73.2-53.2-1-108.2 45.6-216 49.6 101.3 4.5 150-33 193-40zm40 55c-72.3 26-128.3 32.4-204.7 36.6 78.8 5 135-3 205-36.8zm76.4 15c-44.8 21.5-64.4 25-156.8 30.7 58 2.4 112-.7 156.8-30.8zM655 413.3c44.7 5.3 123-.4 162.2-42-47.3 40.7-135 39.3-203 36.5 26 4 21.3 3.4 40.8 5.4zm191.6-39.8c32 12 39.8 69.4 52.5 115.7-5.6-41-15.3-106.8-52.4-115.7z"/><path fill="#D0B87A" d="M908.3 383c-18.2-20.4-34.6-38.4-61.4-43 8.7-10.5 15-14.4 26.2-7.8-6.7-8-14.4-9.6-23.7-1 5.3-8.2 14.6-14.8 26.5-27.5-17.8 8.5-23 14.3-30 23.2 9.7-28.8 5.5-13.5 15.7-42-10.6 12.3-17.4 25.5-20.4 41.8 0-25.3-.8-22-.3-33-5.8 13-5.2 24.8-5.2 32.4-9.3-15.8-23-29-38-40-105.2-78.4-210-6.3-267 2.4-23 4-57.5 1.5-81.2-13 1.7 24.7 9.2 41 20.2 58.6l-6.2-1.3c-8.5-10.5-9.3-10.2-12.4-18.7-.8 7.6.4 11.8 1 16L447 329c-3.2-10.4-4-18.3-5.3-27-2.5 3.3-8 13.6-11 22-12.6-4-13.5-4.7-31.2-18.5 2 4.3 9.7 27.6 22.8 52.4-2 15-1.4 30 1 43.2-21 27-28.3 53-31.6 87.6-4.4 81.6 3.6 105.4 23.2 149v.3c-.7 8.5.5 22 2 31 4.8 27 11 45.7 33 75.5.2 0 .2.2.3.3 14.2-87.3 12.8-89.4 15.8-111 15-110 14.5-93.6 54-171.6 16 11.3 33.6 15.2 58.8 6.7 18.2 10.7 36.8 19 88.4 19 51-.7 110 1.7 161.7-32.3C821 467 803 486.3 789 495c14.6-3 25-9 38-25-4 8.2-8.6 20.6-9 22 .7-.7 9-11 14.8-20-2.8 34 12 54 29.3 83 37.6 60.8 14.7 143.7 35 197 13-21.4 29.5-51.8 29.5-76 22-39 25-90.5 14.3-114.7 22-67 17.5-119.3-32.7-178.3zm-456.7-66c2 6 2.5 6 10.4 15.5l-9-2c-.8-4.5-1.4-8.8-1.4-13.4zM441 305.8c.4 6.5 2 15.2 4.2 22.7-12-3-7.6-2-11.8-3.4 3.5-10.6 4.8-13.3 7.6-19.3zm7.3 429.3c-17.7-32.6-22.4-43.6-27.3-76.6-.5-3.8-2-14.8-2-20C393.5 579 384 466 424 404v-.2s1.7-2.7 4.7-6.5c-1-5.7-2.2-18-1.8-31.2 3 5.8 6.5 11 9.7 15.8l2.4 3.5c19.3 24.8 37 45.4 79.6 76-51.3 84.7-48 56-70.3 273.7zm494-201c-1.6 10.2-4.8 24-6.6 30 11.7 30.4-1 87.5-12.8 113-5.3 30.5-10.8 36.6-25.4 67-10.4-47.2 11-131-28.4-193.2-25.4-43-36.3-48.7-30.3-102 0 0 0-2.8.2-3.5-53 33-111.6 36.8-188.8 35-22.3 0-52.5-2.7-71.3-14.6-38 11-52-6.2-84-31.5-34.2-29.7-57.4-55.6-86.2-116.8 16.2 13.4 48.5 20 68.8 23.6-13.7-18.7-21.8-35.8-25.4-60 14.6 10 49.6 19.7 80.5 16.2 56.8-5.4 136.3-65 234-19.8 45.5 20.4 68.5 49.2 74 64.3.3 0 .5 0 .8.2l1.5.3c29.3 10 31.3 11.8 59.7 45.5 16 20 54.3 59.8 39.5 146.3z"/></g></g></svg>