<svg xmlns="http://www.w3.org/2000/svg" width="1000" height="1000" viewBox="-0.0002441 0.0002441 1000 1000"><path fill="#F0C7B1" d="M872 848.7c-8.4-18.5-31.8-46-57.7-53.5-32-9.3-104.6-20.7-131.4-27-21.8-5-65-44-80.3-57-2.7-2.3-5-7.2-5-10.8C597 658 614 545.6 614 545.6H387s16.8 112.4 16.2 154.7c0 3.5-2.3 8.4-5 10.7-15.2 13-58.5 52-80 57-27 6.3-99.4 18-131.5 27.4-26 7.7-49.3 34.7-57.8 53-14.7 31.3-18 87.8-18 136.5h779c0-48.8-3.5-105.3-18-136.4z"/><path fill="#FFE4D6" d="M731 787.5c94.7 13.7 134.6 33.8 147 197.5h12c0-48.7-3.4-105.2-18-136.3-8.4-18.5-31.8-46-57.7-53.5-32-9.3-104.6-20.7-131.4-27-21.8-5-71.3-47-84.5-63.6 13 18.4 49.8 60.8 82 72 15.4 5.3 28.2 7.7 50.3 11h.2zm-410.6-11c32.2-11 69-53.6 82-72-13.2 16.7-62.7 58.7-84.3 63.7-26.6 6.3-99 18-131.2 27.4-26 7.7-49.3 34.7-57.8 53.2-14.6 31-18 87.6-18 136.3h12c12.3-162.5 52.4-183.7 147-197.5 22.2-3.3 35-5.7 50.4-11z"/><path fill="#E1AC8F" d="M483.5 840.2S463.8 834 456 831c-40.7-15.6-173-25.7-173-25.7s139.3 5.5 170 10.8c-1.8-18.5-11.7-78-11.7-78l25 82c2.6 9 17.2 20 17.2 20v.2zm42-5.2l-1 1c.4-.3.8-.6 1-1zm-42 5.2s11.3 11.7 17 12c7.4 0 18.8-11.4 24-16-5 3.6-16.3 5.3-20.8 5.5-5 .2-20.2-1.5-20.2-1.5zm82-29.2l-17.2 3 9-58c-2.6 12-17.5 63.2-31.7 79 7.4-6.3 24-9.3 32.4-10.5 40-5.8 40-5.8 160-19.2 0 0-113.3-.7-152.6 5.7z"/><path fill="none" stroke="#C27B55" stroke-width="1.5" d="M872 848.7c-8.4-18.5-31.8-46-57.7-53.5-32-9.3-104.6-20.7-131.4-27-21.8-5-65-44-80.3-57-2.7-2.3-5-7.2-5-10.8C597 658 614 545.6 614 545.6H387s16.8 112.4 16.2 154.7c0 3.5-2.3 8.4-5 10.7-15.2 13-58.5 52-80 57-27 6.3-99.4 18-131.5 27.4-26 7.7-49.3 34.7-57.8 53-14.7 31.3-18 87.8-18 136.5h779c0-48.8-3.5-105.3-18-136.4z"/><linearGradient id="a" gradientUnits="userSpaceOnUse" x1="-618.8" y1="1056.1" x2="-618.8" y2="1097.7" gradientTransform="matrix(4.6 0 0 -4.6 3347.2 5601.203)"><stop offset="0" stop-color="#E1AC8F" stop-opacity=".8"/><stop offset=".7" stop-color="#C27B55"/></linearGradient><path fill="url(#a)" d="M405 705.5c27.3 17.8 63.7 34.4 95.5 34.4 30.5 0 67.6-16.8 95.3-34.6-.6-1.8-1-3.5-1-5-.5-38.5 13-132.5 16-152H390.2c2.8 19.5 16.4 113.5 16 152-.2 1.6-.5 3.4-1.2 5z"/><path fill="#F3F1F3" d="M613 997.5H386.4v-219c86.6 18.4 143.6 17 226.4 0v219h.2z"/><path fill="#131111" d="M529.5 996.5c-10.8 0-41.8.7-64.3-1v-.7c-3.3-72.6 4.3-119.6 17.6-153l.2-.5-.4-.3c-3.5-3.6-9.4-7.6-15.7-11.8-6.5-4.3-13-8.7-17-12.7 2.4-2.8 5.4-5.6 9-8.5 1-.5 4.6-3.3 23.3-19.4l1.4-1c3.2-.8 8.4-1.2 14.6-1.2 8.5 0 18.4.8 25.4 2.2 6 5.6 13.4 20.7 16.2 28-4 8.8-8.4 12-14.6 16.6-3 2.2-6.5 4.6-10.3 8.2l-.3.3v.5c15.8 79 15.8 97.6 15.8 115.5 0 7.8 0 25.7 1.3 39h-2.5l.2-.2z"/><path d="M540.8 816.5c-3-8-10.5-23.2-16.7-28.8-11-2.2-31-3.3-40.5-1-.5.4-24.4 21-24.6 20.6-3.6 2.7-7 5.8-10 9.3 8 8.2 26 17.8 33 25-14 35.8-20.6 84-17.5 153.4v1.3c26.3 2 64.5 1.3 68.4 1-4.6-44.2 5.5-40.8-17-155.3 11.7-11 19-11.7 25-25.5h-.2zm-20.4 74l-.2-.5c7.8 41 5.3 72.6 11.2 105-18.4-1-46.8 0-65.3 0 1.6-28 4.8-123.5 18.7-155 .6 0 1.3-.2 2-.4l-4 135.4 10.6-136.6h.3l7 127 1.6-127.5h.4L519 979.4l-9-140.8c1.2.2 2.4.5 3.7 1h.4c.4 4 3.6 32.7 6.5 51v-.2zm-3.5-53.7c-11-5-25-4-35.7 1-6.6-7.2-16-12-29.4-21 2-2 5-4.3 8.6-7 .3 0 13.5-11 13.7-11.2 3.6-3 6.8-6.8 10-10 11.3-.5 28 0 38 .5 6 7.4 11.5 18.4 15.7 27-7.5 11.3-15 16.3-21 21v-.2z"/><path fill="#F3F1F4" d="M415.6 900.5c-45-156-24.7-115.3-36.6-176.6 8-18.8 15.4-40.7 19.6-45l.3-.6c8.7 93.4 34.7 53 92.5 108-33 22-63.7 79-76 114zM622 724c-5.7-14.5-16-35.6-20.3-40.3 5.5 80.5-59 64.5-95 102 34.5 22.3 67 80.5 78.7 114.8 51-169.5 23.6-95 36.6-176.6z"/><path fill="#CFC8D7" d="M601 682c0 20-1.6 35.6-5 40.2-9.4 22.6-51 38.4-63.8 44.8-9.7 4.8-19.2 11-26.6 19 15 9.5 22.3 13 50.4 56 16.5 27.8 25.5 48.6 29.4 61 52-172.6 24.3-97.2 37.4-179-6.2-16-18-38.5-21.8-42zm14.2 76c-7.6 70.4-13.6 56.4-30 133-10.7-33.6-43.3-89-75.8-105.4 15.3-11.4 19.6-12 38-20.5 56-25 58.2-48 55-79 4.6 5.7 12 24 18.2 37.3-3.3 12.2-5 29.7-5.4 34.8zm-195.7-18c-17.2-14.2-12.3-31.7-20.2-63-3.5 4-12.3 25.7-21 47 2 10.7 2.5 28.6 2.8 34.3 2.4 47.5 7 49.7 34.6 144.7 11.8-34.7 45-95 78.8-117-27-24.5-61-34-74.8-46zm21.2 99.4c-8.6 14.2-17.5 29-24.8 51.6-17.5-79-23.5-66-30.3-133-1.2-11.6-2.4-23.5-5.4-35 6.4-14 15.5-40 18.4-42.7 5.3 27.4.3 52.3 22 66C431 754 464 767 489 786.7c-15 9-23.2 14.3-48.3 52.5v.2z"/><path fill="#E1E0E1" d="M579.6 887.8l-4.6-10.3s35.6-109.8 41.8-141c3.5 32.4-37.2 151.3-37.2 151.3zm-161.4-4.3l5.6-12.7s-33.4-103-39.6-134.4c-3.5 32.4 34 147 34 147z"/><path fill="#323E4C" d="M597 832.5c27.6-81.2 10.8-88 24.6-115 .5-1 5.4 4.2 6 6.5 5 22 207.7 67.5 214.2 72.4 5.6 4 22 12.2 22 12.2C883 844 894 850.2 899.4 944.8c.5 12-.2 46-.2 55L566 997.5c.7-30.5 4.6-85 31-165zm-193 0c-27.6-81.2-10.8-88-24.6-115-.5-1-5.4 4.2-6 6.5-5 22-207.8 67.5-214.2 72.4-5.6 4-22 12.2-22 12.2C118 844 107 850.2 101.6 944.8c-.5 12 .2 46 .2 55l333.2-2.3c-.7-30.5-4.6-85-31-165z"/><path fill="#222E3D" d="M618.5 810.5c-17.7 64-42 121.3-52.6 187-3.6-.2 5.6-88.5 31-165 27.5-81.2 10.7-88 24.5-115 .3-.5-2.4 7.8-1 9.6-.4 30 7 53.5-2 83.6zm-236 0c17.7 64 42 121.3 52.6 187 3.6-.2-5.6-88.5-31-165-27.5-81.2-10.7-88-24.5-115-.3-.5 2.4 7.8 1 9.6.4 30-7 53.5 2 83.6z"/><path fill="#15202D" d="M704.7 795s-9 10-33.6 27c21-23 30.4-32 30.4-32l3.4 5zm8.5 46.4l-6-5.5c-17.6 53.6-29.4 80-50 142.6 29.5-55.8 36.5-75.6 56-137.3zm-413.5-51.6s9.5 9.3 30.2 32.2c-25-17-33.8-27-33.8-27l3.4-5.2zm44 188.8c-20.5-62.5-32.3-89-50-142.7l-6 5.3c19.6 61.6 26.6 81.4 56 137.2z"/><path fill="#454F5B" d="M809.8 924.8c0-45 12-71.4 37.4-109.6 2.4 1.5 3.7 2 5.3 3.4-27 33.6-32.3 64.7-42.7 106.3v-.2zM661.4 969c23.8-65 31.4-90.4 47.2-134-4.5-1.2-33.8-11.5-38.3-13 1.6 4 12 7 30.5 18.5 0 0-19.8 60-39.4 128.6zm32-179.5s-13 16-26 32.4c13.3-10.5 22.5-22 34-32-15.6-13-41-33.3-57.4-47 13 14 49.4 46.5 49.4 46.5zM898 1000h1.2c0-9 .7-43 .2-55-5.4-94.7-16.4-101-35.6-136.3 0 0-16.4-8-22-12.3-5.2-4-151-38.7-204.5-62 62.4 42.8 180.3 58.6 215.2 84C869.3 831 892 936.4 898 1000zM148.6 818.5c2-1.5 2.4-1.4 4.5-2.8 25.4 38 38.3 64 38.3 109-10.4-41.5-17.6-74-42.7-106.2zm151.7 22c18.4-11.3 29-14.5 30.5-18.4-4.5 1.5-33.8 11.8-38.3 13 15.8 43.6 23.4 69 47.2 134-19.7-68.5-39.5-128.5-39.5-128.5zM357 743c-16.3 13.7-41.7 34-57.2 47 11.4 10 20.6 21.5 33.8 32l-26-32.5s36.6-32.7 49.5-46.6zm-208.5 75.5c35-25.4 152.8-41.2 215.2-84-53.4 23.3-199.3 58-204.5 62-5.6 4-22 12.2-22 12.2C118 844 107 850.3 101.6 945c-.5 12 .2 46 .2 55h1c6-63.5 29-169 45.7-181.4z"/><path fill="#0B141E" d="M626 718.5c0-1-1.6-2.4-2.8-2.5-1 0-1.7 1.8-2.2 2.8-13.8 27 1.6 32.5-26 113.6-26.3 80-29.4 135.7-30.2 166l334.4 1.5c0-9 2-43 1.4-55-5.4-94.8-16.8-102-36-137 0 0-17.2-8.7-22.8-12.8-19-14.6-2.3 0-85.8-23.4-68.5-20-72.2-25.6-97-32.5-5-1.5-15.8-3.3-27-11.2-1-.6-5.5-7.4-6-9.6zm-59.4 276.3c14.5-91.7 23.7-115.8 44-184 13.7-43.3 6-68 12.7-88 .3-1 1.8-1 2.2 0 9.5 24.3 36 30 73.4 66.4-23 22.7-28.7 28.8-31.6 32.7 3.3 1.6 21.7 8.6 38.5 15l-53 150c39-84 44-110 55.5-152-3.2-2.2-30.8-12.3-35.5-14 16.8-17.2 21.6-21 29.5-31 6.3 0-61.8-52-65.2-55.4 1.8 1.5 10.7 5.5 11.7 6 57.2 20 12 11 137 46.6 12 3 28.8 6.2 41.2 7.4.8 0 21 10.6 32.5 15.4-28 29-46 66.8-50 115 12.6-49.4 19.4-75.2 51.3-112.3 29.6 60 26.3 51.5 36 186-80.4-3.3-203.5-4-330.4-3.7v-.2zM369 728.3c-11.2 8-22 9.7-27 11-24.8 7-28.5 12.6-97 32.6-83.5 23.4-66.7 8.7-85.8 23.3-5.6 4-22.7 12.6-22.7 12.6-19.3 35.2-30.7 42.3-36 137-.6 12 1.3 46 1.3 55l334.4-1.5c-.8-30.3-4-86-30.3-166-27.7-81.2-12.3-86.7-26-113.7-.6-1-1-3-2.3-2.8-1.2 0-2.7 1.4-3 2.6-.3 2.3-4.7 9-5.7 9.8zm-265 270c9.7-134.3 6.4-125.7 36-185.7 32 37.2 38.7 63 51.2 112.3-4-48-22-86-50-115 11.6-4.8 31.8-15.4 32.6-15.4 12.4-1.2 29-4.3 41-7.4C340 751.5 295 760.5 352 740.5c1-.5 10-4.5 11.7-6-3.4 3.6-71.5 55.4-65.2 55.4 8 10 12.7 14 29.3 31-4.6 1.7-32.2 12-35.4 14.2 11.4 42 16.5 68 55.4 152-.6-2-52-147-52.8-150 16.8-6.6 35.2-13.6 38.5-15.3-3-4-8.7-10-31.4-32.8 37.6-36.5 64-42 73.6-66.3.4-1 2-1 2.2 0 6.6 20-1 44.5 12.7 87.7 20.3 68.3 29.5 92.4 44 184-127-.2-250 .5-330.3 3.7h-.2z"/><g><path fill="#F0C7B1" stroke="#C27B55" stroke-width="1.5" d="M300 394.7c-5.4-9.5-22-33-39-27.2-10.7 3.6-12.8 15.5-14.5 26-2.3 14 1.8 41.7 5.4 51.7 3.2 9.6 13.6 28 20.3 35.2 8.3 8.6 18.6 36.2 20.2 39 2.6 4.6 6 11.4 16 10.6 11.2-1 18-7.2 23-8.3 12-2.6-17.7-102.2-31.7-127h.2z"/><path fill="#C27B55" d="M289 452.7c-.5-2.3 0-6 .6-9.8.4-3.5 1-6.6.6-9-1-8.3-7-24.2-10.7-33-4.4-10-11.6-22.3-20.5-25.5-3.7-1.4-6.2.2-7.6 1.8-1 1.2-1.2 2.6-1 2.8.4.3 1.2-1 2.3-2 1-1 2.3-1.6 4-1.5-.6 4.2-4.4 26.8-2.8 42.3 1 12 6 21 7 22.5 0 1.4 0 2.8.4 4.2 3.6 17.7 19.3 37.8 24.8 44.4 1 1 2 2 2.3 1.6.3-.2-.3-1.4-1.3-2.6-5.4-6.6-21-26.7-24.5-43.7-3.7-18.2 9-45 11.8-50.7 1.5 2.6 2.7 5.2 3.7 7.3l2.4 5.7c-1.7 3-13.4 24.7-9 42 1.5 6.4 8.6 14.7 13.3 17 2.5 1 3.5 3 4.6 5.2 1.3 2.4 2.8 5.2 7 7.2 1 .4 1.8.6 2.5.6 1.3 0 2.3-.4 3-1v3.8c0 1.6 0 3 .5 3 .4 0 .8-1.3.8-3 0-2 0-4.5-.3-5.7-.8-3.6-3.8-7.6-7-12-3-4-6.2-8.4-7-12v-.3zM260.8 437c-8.5-28 2.5-51.8 4.4-55.7 3.3 3.2 6.3 7.5 8.6 11.7-1.7 3.3-12.7 25.3-13 44zm36.6 40.6c-4-1.7-5.3-4.2-6.5-6.6-1.4-2.2-2.6-4.4-5.6-6-.6-.2-1.3-.7-2-1.2-9.8-24.4 1-35 3.7-37.3 1 3 1.5 5.7 1.8 7.8 0 2-.3 5.3-.8 8.4-.5 3.8-1 7.8-.5 10.3 1 4 4.2 8.3 7.3 12.7 2.8 3.8 5.7 7.8 6.7 11-.4.6-1.7 2.2-4.3 1h.2z"/><path fill="#F0C7B1" stroke="#C27B55" stroke-width="1.5" d="M700 394.7c5.4-9.5 22-33 39-27.2 10.6 3.6 12.7 15.5 14.5 26 2.3 14-2 41.7-5.4 51.7-3.3 9.6-13.6 28-20.3 35.2-8.3 8.6-18.6 36.2-20.3 39-2.5 4.6-6 11.4-16 10.6-11-1-18-7.2-22.8-8.3-12.3-2.6 17.6-102.2 31.6-127h-.2z"/><path fill="#C27B55" d="M704 464.7c-3.2 4.3-6.2 8.3-7.2 12-.3 1-.3 3.6-.2 5.7 0 1.5.4 3 .8 2.8.3 0 .6-1.4.5-3v-3.8c.5.6 1.5 1 2.7 1 .7 0 1.5 0 2.3-.5 4.5-2 6-5 7.3-7.5 1-2 2-4 4.7-5 4.7-2.4 11.8-10.6 13.4-17 4.3-17.3-7.4-39-9-42l2.3-5.7c1-2 2.2-4.7 3.6-7.3 3 5.6 15.6 32.5 12 50.7-3.6 17-19.2 37-24.6 43.6-1 1.3-1.6 2.5-1.4 2.8.3.4 1.4-.4 2.4-1.6 5.4-6.6 21.2-26.7 24.8-44.4l.6-4.2c1-1.4 6-10.4 7-22.6 1.8-15.4-2-38-2.7-42.2 1.8-.2 3 .6 4 1.5 1.2 1 2 2.4 2.3 2 .3 0 0-1.4-1-2.6-1.4-1.6-3.8-3.2-7.5-1.8-9 3.2-16 15.7-20.4 25.7-3.8 8.6-9.7 24.5-10.7 33-.4 2.2 0 5.3.5 8.7.6 3.7 1 7.5.6 9.7-.7 3.7-4 8-7 12.2v-.3zm22-71.7c2.5-4.2 5.4-8.5 8.8-11.7 2 4 13 27.8 4.4 55.7-.4-18.7-11.3-40.7-13-44h-.2zm-27.8 83.7c1-3.2 4-7.2 6.7-11 3-4.4 6.3-8.8 7.2-12.7.6-2.5 0-6.5-.6-10.3-.4-3-.8-6.3-.6-8.4.4-2 1-5 1.8-8 2.7 2.3 13.4 13 3.8 37.4l-2 1.3c-3.2 1.5-4.3 3.7-5.5 6-1 2.3-2.4 4.8-6.3 6.6-2.6 1.4-4-.2-4.4-.8z"/><path fill="#F0C7B1" d="M500.5 74c-128.3.2-232.5 107.7-232.3 240.2 0 21 2.7 41.5 7.6 61 0 0 39.3 122.3 49.4 171.5 9 44 49.5 79.7 67.7 99 20.7 22.5 47 55.6 107.4 55.3 60.7.3 86.8-32.8 107.6-55.2 18.3-19.4 58.7-55 67.8-99 10-49.3 49.3-171.5 49.4-171.7 5-19.3 7.6-39.7 7.6-61 .2-132.3-104-240-232.3-240z"/><path fill="#E8B9A0" d="M628.2 113.7c55.8 43.6 92.2 114.8 92 195.3 0 21-2.5 41.4-7.2 61 0 0-37 122.3-46.7 171.4-8.6 44-46.8 79.6-64 99-19.7 22.4-44.4 55.5-101.8 55.2-57.4.3-82-32.8-101.8-55-17.2-19.6-55.4-55.3-64-99.3C325.2 492 288 370 288 369.7c-4.7-19.5-7.2-40-7.2-61 0-80.4 36.2-151.6 92-195.2-63 43-104.7 116.7-104.6 200.5 0 21 2.7 41.5 7.6 61 0 0 39.3 122.3 49.5 171.5 9 44 49.4 79.7 67.6 99 20.7 22.5 47 55.6 107.4 55.3 60.7.3 86.8-32.8 107.6-55.2 18.3-19.4 58.7-55 67.8-99 10-49.3 49.4-171.5 49.4-171.7 5-19.5 7.6-40 7.6-61 .2-83.8-41.5-157.5-104.6-200.5v.2z"/><path fill="none" stroke="#C27B55" stroke-width="1.5" d="M499.7 74C371.3 74.4 267 182 267.4 314.5c0 21 2.7 41.3 7.6 60.7 0 .4 39.2 122.6 49.4 171.7 9 44 49.5 79.7 67.6 99.2 21 22.2 47 55.3 107.8 55 60.6.3 86.6-32.8 107.5-55 18-19.6 58.5-55.3 67.6-99.3 10-49 49.3-171.3 49.3-171.6 5-19.3 7.6-39.7 7.6-60.7C732 181.6 628 74 499.5 74z"/><path fill="#C27B55" d="M501.8 623.3c-6 0-11.7-.7-15.2-2-1-.5-1.5-1.6-1-2.6.3-1 1.4-1.5 2.5-1 6.6 2.4 23 2.5 30-1 1-.3 2.3 0 2.8 1 .4 1 0 2.2-1 2.6-4.3 2-11.2 3-18 3zm57.2-33c1.6-.7 2.3-2.5 1.6-4-.6-1.6-2.4-2.3-4-1.6-45.4 19.4-112 1.3-112.6 1-1.6-.3-3.3.6-3.8 2.2-.4 1.6.5 3.3 2.2 3.7 1.8.5 30 8.2 62.4 8.2 18 0 37.3-2.5 54.2-9.7z"/><g transform="matrix(.9 0 0 .9 7.4 8.4)"><radialGradient id="b" cx="4.9" cy="1461.4" r="10.9" gradientTransform="scale(3.5 3.1) rotate(180 66.7 799)" gradientUnits="userSpaceOnUse"><stop offset="0" stop-color="#FFF"/><stop offset=".5" stop-color="#FDFEFE"/><stop offset=".7" stop-color="#F6F8F9"/><stop offset=".9" stop-color="#EAEFF2"/><stop offset="1" stop-color="#D9E3E8"/><stop offset="1" stop-color="#D8E2E7"/></radialGradient><path fill="url(#b)" d="M470.6 452.4c-13-3-19.4 4.3-38.3 4.7-31.3.8-38.7-2.3-43.6-10.2-2-3.3-4-7.5-5-10l-.3-16.3c5.2-15.3 76-16.8 101 7 1 2.6 1.6 5 1.7 7.3-.5 3.8-2 7.3-3.5 10.7-2.7 3.2-6.8 5.6-11.8 7z"/></g><path fill="#7485BF" stroke="#2D4391" stroke-width=".4" d="M419.2 404c-3 10.6-14 17-24.5 14-10.7-3-17-14-14-24.6 3-10.8 13.8-17 24.5-14 10.6 2.8 17 13.8 14 24.4z"/><path fill="#92A0CE" d="M416 404.2c-2.7 8-11.2 13-19.5 10.6-7.7-2-12.5-9.4-12-17.2 3 0 6-.2 9.3 0 0 0 0 .2-.2.3-1 3.6 1.4 7.6 5.3 8.6 4 1 8-1 9-4.8v-1.4c2.8 1 5.4 2.2 8 4v-.2z"/><path opacity=".9" d="M402.6 392.7c-4-1.2-8 1-9 5s1.3 8.2 5.3 9.4c4 1 8-1 9-5s-1.5-8.2-5.5-9.3zm1 14c-1.8.6-3.5 0-4-1.5-.4-1.3.6-3 2.3-3.4 1.5-.5 3.2.2 3.6 1.6.5 1.2-.5 2.8-2.2 3.3h.2z"/><path opacity=".6" fill="#FFF" d="M389.3 409.2c-1.2.7-3 0-4-1.5-1.2-1.6-1-3.4.2-4.2 1.3-.7 3 0 4.2 1.5 1 1.6.8 3.4-.4 4.2z"/><path opacity=".8" fill="#FFF" d="M415.6 397.8c-2.8 1.7-7 0-9.4-3.4-2.4-3.7-2-8 .7-9.6 2.7-1.7 7-.2 9.3 3.4 2.4 3.5 2 7.8-.8 9.5z"/><g transform="matrix(.9 0 0 .9 7.4 8.4)"><radialGradient id="c" cx="-772.2" cy="811.7" r="15.2" fx="-763.2" fy="808.4" gradientTransform="matrix(3.3 .1 -.1 2.3 3084.4 -1415.8)" gradientUnits="userSpaceOnUse"><stop offset="0" stop-color="#E1AC8F"/><stop offset=".7" stop-color="#E1AC8F" stop-opacity=".3"/><stop offset="1" stop-color="#F0C7B1" stop-opacity="0"/></radialGradient><path fill="url(#c)" d="M379.5 426.4c0 29.3 29.8 53 66.4 52.8 36.3 0 66-24 66-53.4-.3-29.3-30-53-66.5-52.8-36.6 0-66.2 24-66 53.4zm4.3 10.3l-.4-16.2c5.2-15.3 76-16.8 101 7 5.3 12.6-1.7 21.4-13.8 25-13-3-19.4 4.3-38.3 4.7-31.3.7-38.7-2.4-43.6-10.3-2-3.4-4-7.6-5-10v-.3z"/><radialGradient id="d" cx="-769.3" cy="1489.3" r="19.7" gradientTransform="matrix(3.7 -.2 -.2 -3.1 3527.1 5052.7)" gradientUnits="userSpaceOnUse"><stop offset=".9" stop-opacity="0"/><stop offset="1" stop-opacity=".2"/></radialGradient><path fill="#C27B55" d="M495.5 421.6c-37.5-22.4-65-23.8-109.6-21 37-5.8 79.7-1.6 109.4 21z"/><path fill="#09152E" d="M490.6 437.6c-12.6-32.4-101-32.6-106.8-16.3v15c-4-6-4-6.3-5.8-13.2l-8.5 3s10.7-15 20.6-17c86.6-17.3 100 23.3 100.7 28.5zm-13.5 16c-18-7.6-23 1.6-45 2-31 .7-37-3-43.2-9.6 3.2 8 5.4 12 42.4 11.8 21-.2 32.4-8.8 46-4v-.2z"/></g><g transform="matrix(.9 0 0 .9 12.6 8.4)"><radialGradient id="e" cx="-765.8" cy="1461" r="10.9" gradientTransform="matrix(3.5 0 0 -3.1 3349.4 5033.7)" gradientUnits="userSpaceOnUse"><stop offset="0" stop-color="#FFF"/><stop offset=".5" stop-color="#FDFEFE"/><stop offset=".7" stop-color="#F6F8F9"/><stop offset=".9" stop-color="#EAEFF2"/><stop offset="1" stop-color="#D9E3E8"/><stop offset="1" stop-color="#D8E2E7"/></radialGradient><path fill="url(#e)" d="M617.8 452.4c12.8-3 19.4 4.3 38.2 4.7 31.4.8 38.7-2.3 43.6-10.2 2-3.3 4-7.5 5-10l.4-16.3c-5.2-15.3-76.2-16.8-101 7-1 2.6-1.6 5-1.7 7.3.7 3.8 2 7.3 3.7 10.7 2.7 3.2 6.8 5.6 11.8 7z"/></g><path fill="#7485BF" stroke="#2D4391" stroke-width=".4" d="M620.3 404c-3 10.6-14 17-24.6 14-10.6-3-17-14-14-24.6 3-10.8 14-17 24.5-14 10.7 2.8 17 13.8 14 24.4z"/><path fill="#92A0CE" d="M617.2 404.2c-3 8-11.4 13-19.7 10.6-7.7-2-12.5-9.4-12-17.2 3 0 6-.2 9.3 0v.3c-1 3.6 1.3 7.6 5.2 8.6 4 1 8-1 9-4.8l.2-1.4c2.7 1 5.4 2.2 8 4v-.2z"/><path opacity=".9" d="M603.7 392.7c-4-1.2-8 1-9 5-1.2 4 1.2 8.2 5.2 9.4 4 1 8-1 9-5s-1.4-8.2-5.4-9.3zm1 14c-1.8.6-3.5 0-4-1.5-.4-1.3.6-3 2.2-3.4 1.5-.5 3.2.2 3.7 1.6.4 1.2-.6 2.8-2.2 3.3h.2z"/><path opacity=".6" fill="#FFF" d="M590.4 409.2c-1.3.7-3 0-4.2-1.5-1-1.6-1-3.4.4-4.2 1.2-.7 3 0 4 1.5 1 1.6 1 3.4-.2 4.2z"/><path opacity=".8" fill="#FFF" d="M616.7 397.8c-3 1.7-7 0-9.5-3.4-2.4-3.7-2-8 .8-9.6 2.8-1.7 7-.2 9.4 3.4 2.4 3.5 2 7.8-.7 9.5z"/><g transform="matrix(.9 0 0 .9 12.6 8.4)"><radialGradient id="f" cx="2.3" cy="790.3" r="15.2" fx="11.3" fy="787" gradientTransform="matrix(-3.3 .1 .1 2.3 595.7 -1414.5)" gradientUnits="userSpaceOnUse"><stop offset="0" stop-color="#E1AC8F"/><stop offset=".7" stop-color="#E1AC8F" stop-opacity=".3"/><stop offset="1" stop-color="#F0C7B1" stop-opacity="0"/></radialGradient><radialGradient id="g" cx="-66.3" cy="1451.3" r="19.7" gradientTransform="matrix(-3.7 -.2 .2 -3.1 150.1 5049.5)" gradientUnits="userSpaceOnUse"><stop offset=".9" stop-opacity="0"/><stop offset="1" stop-opacity=".2"/></radialGradient><path fill="#C27B55" d="M593 421.6c37.4-22.4 65-23.8 109.4-21-37-5.8-79.8-1.6-109.5 21z"/><path fill="#09152E" d="M698.3 409c10 2 20.6 17 20.6 17l-8.8-2.8c-1.7 7-1.8 7.3-5.7 13.2v-15c-5.8-16.4-94.2-16.2-107 16.2 1-5.2 14.2-45.8 100.7-28.6zm-41 48.8c37 .2 39.2-3.7 42.4-11.8-6 6.6-12.2 10.3-43.4 9.6-22-.4-27-9.6-45-2 13.6-4.6 25 4 46 4.2z"/></g><g><radialGradient id="h" cx="-619.1" cy="1105.3" r="34.8" gradientTransform="matrix(4.6 0 0 -4.6 3347.2 5601.2)" gradientUnits="userSpaceOnUse"><stop offset="0" stop-color="#FFE4D6" stop-opacity=".5"/><stop offset=".9" stop-color="#F0C7B1" stop-opacity="0"/></radialGradient><path fill="url(#h)" d="M660.2 514.5c0 88-71.3 159.6-159.5 159.8-88 0-159.8-71.2-160-159.3 0-88 71.4-160 159.5-160 88.2-.3 160 71.3 160 159.5z"/><radialGradient id="i" cx="-619.1" cy="1156.2" r="31.4" gradientTransform="matrix(4.6 0 0 -4.6 3347.2 5601.2)" gradientUnits="userSpaceOnUse"><stop offset="0" stop-color="#FFE4D6" stop-opacity=".5"/><stop offset=".9" stop-color="#F0C7B1" stop-opacity="0"/></radialGradient><path fill="url(#i)" d="M646.6 281c0 80.5-65.4 146-146 146-80.8 0-146.2-65.5-146.2-146 0-80.8 65.4-146 146-146 80.8 0 146.2 65.2 146.2 146z"/></g><g><path fill="#FEF6E1" d="M323.2 356.8c26.2-33 71.3-27.5 108.2-22.2 9.4 1.5 19 2.5 28.3 4.8 6.6 1.7 11.8 9.2 6.5 15.3-2.5 3-8 2.4-11.3 2.4-44.4-1-94.4-26.3-132 0l.2-.2z"/></g><g><path fill="#FEF6E1" d="M678 355.5c-7.5-5-15.6-8.7-24.6-10.2-33.3-5.4-96.7 16.8-113.4 12-10.2-2.8-8-13-3.6-15.5 2.7-1.5 3.4-1.5 27.7-5.7 41.4-7 87.6-12.6 114 19.4z"/></g><g><path fill="#E1AC8F" d="M497 421s-3.5 79.8-3 97c0 5 9.6 18 9 27.7 0 0-18.7-1.3-24.7-3.5-6.4-2.2-16.2-6.6-12.3-19 5.5-17.3 31-102 31-102z"/><path fill="#C27B55" d="M495.2 536.5s-7.7-3-12.6-2.7c-4.5 0-5-3-4.7-4.5.3-1.7 2-2.8 6-1.6 4.4 1 11 8.7 11 8.7h.2zm11.5 0s7.7-2.7 12.6-2.7c4.5 0 5-2.8 4.7-4.5-.5-1.7-2-2.8-6.3-1.6-4.3 1-11 8.7-11 8.7z"/></g><g><path fill="#FEF6E1" d="M702.7 454.5c-17.4-48.3 2.8-122.6-31.3-177.6-15.5-26.4-29-44.5-26.5-75l-1.6-.6c-3.3 5.2-7.6 11-10.5 14.5 1.5-4.3 4.2-10.8 6.6-15.7l-1.3-1c-10 12-18.3 18-30 21.4 12.6-9 26.5-24.7 32.6-33.4l-1-1c-43.3 28.2-92.3 28.6-135.6 29-39 .2-63.3-.7-91.4-17.3-20.2 6.8-36.2 6-53.8-6.4-55 108.8-30.6 54.3-63.5 256-19-26-24.6-42.4-29-67-1.3-8-2.5-20.2-1.8-28.2l-.4-.2c-17-38-25-59.7-21-135.2 3-31.3 9.7-54.8 29-79.4-2.6-13.4-2.8-27-1-39.8-10.2-18.8-17-38-19.8-45 14 11 15 11.6 26.8 15.4 2.7-7.6 6.7-15 9.2-19 1 8.7 2 14.6 4.6 23l6.3 1.8c-1-5-1.6-7.5-1.5-12.2 2.2 5 4 6.3 10.4 14.2 7 1.5 5.2 1.2 7.3 1.2-10.3-16.2-17-30.7-19-52.6 14 8 33.5 12.7 54 12.7 48 0 97-36.7 164.7-36.7 59 0 110 33.3 132.5 71.3 0-10-.5-18 3-28 0 0 .4 14.3.4 25.6h1.4c2.4-12.7 7.4-23.7 15.6-34-7.3 20-4.5 9.3-12.7 34l1.2.6c5.5-7.3 10-12.3 23-19-9.4 9.6-16.6 15-21 22l1 1c5.6-5.2 11.4-7.2 17.3-2.5-9.6-3.5-15.2 2.7-21.7 10.5 25.3 4.2 39 19 56.8 39 41 48 51.7 95 29.5 161.6 9.4 20.5 8 66.7-12.7 104 0 21.8-14.7 48.7-26 67.5l.4.2z"/><path fill="#EFE1BC" d="M356.6 189l4 4c-.4-.6-1-1-1.4-1-55 108.6-30.6 54-63.5 256-19-26-24.6-42.6-29-67.4-1.3-7.7-2.5-20-1.8-28l-.4-.2c-17-38-25-59.7-21-135.2 3-31.3 9.7-54.8 29-79.4-2.6-13.2-2.8-26.4-1.2-39l7 9.8c1.8 10.3 3.2 20.2.6 28.3-36.3 114.7-15.2 167.3 7.7 249-9.4-62-27.2-141 21.5-187-20.8 51-15 74.3-10 109 3.5-46.2 19.8-89.4 58.4-119zM712 121.4l-4.2-4.8-4.4 3c57 119.3 2.3 107.8 15.4 161.2 15.2 39-4.6 62.2-4.6 101 0-58.3-2.6-99-34.2-144.6-10.6-15.6-13.6-68-20.8-94-88.6 55.6-219.8 67.2-357.5-45 65 23.4 197 5.3 242.5-24.5-51.7 9.4-159.8 10-208.3-10.4C452 54.4 451 16.3 550 9 502.2-9 398 37.4 350 37.4c-20.3 0-40-4.7-53.8-12.8 1.7 22 8.6 36.3 18.8 52.6-2 0-.4.4-7.4-1-6.4-8-8.3-9-10.5-14.3 0 4.7.6 7 1.4 12.2l-6.4-1.8c-2.6-8.6-3.5-14.5-4.6-23.2-2.5 4-6.5 11.4-9.2 19-11.7-3.8-13-4.5-27-15.5 2.8 7 9.7 26.3 19.8 45v.7c24 36 57.8 64.2 89 94.3 17 11.3 32.8 12 52.5 5.3 28.2 16.7 52.5 17.6 91.5 17.3 43.3-.3 92.3-.7 135.5-29l1 1c-6 9-20 24.5-32.6 33.5 11.7-3.3 20-9.4 30-21.4l1.3 1c-2.4 5-5 11.4-6.7 15.6 3-3.6 7.2-9.4 10.5-14.6l1.4.4c-2.6 30.6 11 48.7 26.4 75 34 55 14 129.2 31.4 177.7 11.3-18.6 26-45.5 26-67.4 20.7-37.2 22-83.4 12.8-104 22.5-66 11.8-113-29.2-161zm3 99.8c-1.4-37-25.5-84-25.5-84-11.2-20.4-21.3-30-38-34 47.3 2.4 66 74.7 64 112.4l-.6 5.6zM607 64.7C619.5 75 622.5 78 635 95.5 571.3-21 446.6 67.2 407 64.5c40.2 8.3 131-51.5 200 .2zm32.3 50.6c-76.2 64.4-192.5 37-287.7 6.7 94.8 44.3 215.4 68.3 287.7-6.7zm-299.6 70c-25 13.4-36.7 47-37.8 69.2 4.4-19 18.4-54.3 37.6-69v-.2zM308.2 167c-35.7 22-42.7 73-39 116 3.6-39.7 10.6-91.3 39-116zm257.4-48.4c-3.8 1-27.7 4.3-40.7 4.8-10.4.6-50 1.3-85.7-.2 37 8 59 9.6 86 8 30.8-1.2 58.5-7.4 81.5-26.5-16.3 9.2-23.2 10.5-41.4 14h.2zm128 103.5s-1-1.6-2.2-4.2c-3.5-6-7.4-22-22.7-73 11.4 94.3 30 77 38.2 125.8 0-17.5-1.4-26.5-13.4-48.5z"/><path fill="#FFFEFB" d="M721.3 336c1.4-12.7.8-7 1-14 1.2-24.5-13-45-4.4-74 7-21.3 11-24.7 8-61.6-.6-5.5-2-18.7-4.4-23.5 3.3 5.7 5.5 16.4 6.6 23 6.5 37.2 1 43-5.8 63.4-9 31 8.4 44.7-1.2 86.4zm-62-192.4c4 118.4 27.6 91 48.4 162.7-14-84.7-27-14.5-48.5-162.6zm-356 60.4c-35 45-31.4 77.5-22.8 144-.8-67.3-8.8-93 23-144h-.2zm-25-64.3c-20.2 63.6-24.6 92.3-15 160.8-1.7-68.7-1.3-83.8 15-160.7zm77 50.4c-36.8 27-56 76.3-57 118.3 5.5-40 26.7-90.7 57-118.2zm255.3-23.4c-46 17-120.8 21.8-175.5 5-42.4-12.7-109-55.3-144.7-82 32.4 26.3 89.6 65.4 129.5 81 41.4 15.7 106.4 21.5 156.8 8.6 35.3-9 53.6-17.6 82.7-35.5-13 7.3-32 17.6-48.6 23zm-99.4-141c46.5-9 101.2 21.6 130 57.7-30-44-79.5-66-109-66.6C483.8 16 433.7 58.3 336 62c92 4 136-30 175-36.4h.2zm36.5 50c-66 23.8-117 29.5-186.3 33.3 71.6 4.4 122.8-2.7 186.3-33.5zM617 89c-40.7 19.7-58.5 23-142.5 28 52.7 2.3 102-.5 142.5-28zm-134.7 59.5c40.7 5 111.8-.4 147.5-38-43 37-122.6 35.6-184.7 33 24 4 19.7 3.2 37.4 5zm174.2-36c29 10.8 36.2 63 47.7 105-5.2-37.3-14-97-47.7-105z"/><path fill="#D0B87A" d="M712.6 121C696 102.2 681 86 656.8 82c8-9.7 13.6-13.3 23.8-7.3-6-7.3-13-8.7-21.5-1 5-7.3 13.5-13.3 24.3-25-16.2 7.8-21 13-27.2 21.2 8.8-26 5-12.3 14.3-38-9.6 11-15.8 23-18.5 38 0-23-.7-20-.3-30.3-5.3 12-4.7 22.6-4.7 29.6-8.5-14.4-21-26.5-34.5-36.4-95.7-71.4-191-5.8-242.7 2-21 3.7-52.4 1.4-74-11.7 1.7 22.4 8.5 37.3 18.4 53.3l-5.7-1.2c-7.7-9.4-8.4-9-11.3-16.8-.7 6.8.4 10.7 1 14.5l-4.8-1.2c-3-9.4-3.7-16.5-4.7-24.5-2.4 3-7.4 12.4-10 20C267 63.7 266 63 250 50.5c2 3.8 8.8 25 20.8 47.5-1.8 13.8-1.3 27.5 1 39.5-19.2 24.5-25.8 48-28.8 79.6-4 74.3 3.3 96 21 135.7-.5 7.8.6 20 1.8 28 4.5 24.7 10 41.7 30.2 68.8 0 0 0 .2.2.3 13-79.3 11.6-81.3 14.4-100.8 13.6-100.2 13-85.2 49-156 14.4 10.2 30.6 13.8 53.4 6 16.6 9.8 33.5 17.3 80.4 17.3 46.4-.6 100 1.6 147-29.3-7 10.2-23.3 28-36 35.7 13.2-2.8 22.7-8.3 34.6-22.7-3.7 7.5-8 18.8-8.3 20 .6-.6 8.2-10 13.4-18.2-2.3 31 11.3 49 27 75.5 34 55.2 13.3 130.6 31.6 179 11.8-19.4 27-47 27-69 19.8-35.5 22.7-82.3 13-104.3 19.8-60.8 15.8-108.4-30-162zM297.4 61c1.8 5.4 2.3 5.3 9.5 14-3.8-.7-6-1.3-8.3-1.8-1-4-1.4-8-1.4-12.2zm-9.6-10.4c.4 6 1.8 14 3.8 20.8l-10.7-3c3-9.8 4-12.2 6.7-17.7zm6.6 390.4c-16-29.6-20.3-39.7-24.8-69.7-.4-3.4-1.8-13.4-2-18-23-54.2-31.8-156.8 4.7-213.3s1.6-2.5 4.3-6c-1-5.2-2-16.3-1.7-28.3 2.7 5.2 6 10 8.7 14.4l2.3 3c17.5 22.7 33.5 41.5 72.3 69.3-46.6 77-43.7 51-64 248.8zm449-182.6c-1.4 9.2-4.3 21.8-6 27.2 10.7 27.6-1 79.5-11.6 102.8-4.7 27.6-9.7 33-23 60.7-9.4-43 10-119-25.7-175.5-23-39.2-33-44.3-27.4-92.7l.3-3.3c-48.3 30-101.5 33.5-171.7 32-20.3 0-47.8-2.6-65-13.4-34.5 10-47.4-5.5-76.2-28.5-31-27-52.3-50.6-78.4-106.2 14.7 12 44 18.3 62.6 21.4-12.4-17-19.8-32.5-23-54.5 13.2 9 45 18 73 14.7 51.7-5 124-59 213-18 41.2 18.5 62 44.6 67 58.3h.2l.7.2 1.4.4c26.6 9 28.4 10.6 54.2 41.3 14.5 18.2 49.4 54.4 36 133h-.2z"/></g></g></svg>